aileron_semibold.sfdir

StartChar: exclam
Encoding: 33 33 249
Width: 252
Flags: MW
HStem: -14 141<105.5 146.5> 670 20G<67 184 184 184>
VStem: 55 141<35.5 76.5> 73 105
LayerCount: 2
Fore
SplineSet
172 188 m 1xd0
 79 188 l 1
 67 690 l 1
 184 690 l 1
 172 188 l 1xd0
126 127 m 0xe0
 167 127 196 97 196 56 c 0
 196 15 167 -14 126 -14 c 0
 85 -14 55 15 55 56 c 0
 55 97 85 127 126 127 c 0xe0
EndSplineSet
EndChar

StartChar: quotedbl
Encoding: 34 34 256
Width: 357
Flags: MW
HStem: 474 261<83 165 83 83 236 236 236 318>
VStem: 77.5 93.5 230 93.5
LayerCount: 2
Fore
SplineSet
165 474 m 1
 83 474 l 1
 72 735 l 1
 177 735 l 1
 165 474 l 1
318 474 m 1
 236 474 l 1
 224 735 l 1
 329 735 l 1
 318 474 l 1
EndSplineSet
EndChar

StartChar: numbersign
Encoding: 35 35 251
Width: 601
Flags: MW
HStem: 0 21G<113 182 113 113 272 341 272 272> 215 66<70 159 70 173 242 318 70 228 401 500> 410 66<100 200 100 214 100 269 283 359 442 530> 670 20G<260 329 329 329 419 488 488 488>
VStem: 70 460<215 476 281 476>
LayerCount: 2
Fore
SplineSet
428 410 m 1
 401 281 l 1
 500 281 l 1
 500 215 l 1
 387 215 l 1
 341 0 l 1
 272 0 l 1
 318 215 l 1
 228 215 l 1
 182 0 l 1
 113 0 l 1
 159 215 l 1
 70 215 l 1
 70 281 l 1
 173 281 l 1
 200 410 l 1
 100 410 l 1
 100 476 l 1
 214 476 l 1
 260 690 l 1
 329 690 l 1
 283 476 l 1
 373 476 l 1
 419 690 l 1
 488 690 l 1
 442 476 l 1
 530 476 l 1
 530 410 l 1
 428 410 l 1
359 410 m 1
 269 410 l 1
 242 281 l 1
 332 281 l 1
 359 410 l 1
EndSplineSet
EndChar

StartChar: dollar
Encoding: 36 36 283
Width: 601
Flags: MW
HStem: -13 21G<272 272> -12 21G<340 340> 682 20G<272 272> 683 20G<340 340>
VStem: 50 112<190 190> 76 110<490.5 548.5 490.5 565> 272 68<-90 -13 -13 -13 71 289 414 620 703 780> 437 112<141.5 198.5>
LayerCount: 2
Fore
SplineSet
549 183 m 0x57
 549 69 459 0 340 -12 c 1
 340 -90 l 1
 272 -90 l 1x57
 272 -13 l 1
 142 -3 57 68 50 190 c 1
 162 190 l 1x9b
 170 125 210 83 272 71 c 1
 272 303 l 1
 151 339 76 391 76 506 c 0
 76 624 162 690 272 702 c 1
 272 780 l 1
 340 780 l 1x67
 340 703 l 1
 466 691 531 609 544 504 c 1
 432 504 l 1
 425 565 398 608 340 620 c 1
 340 402 l 1
 492 354 549 291 549 183 c 0x57
186 520 m 0
 186 461 214 433 272 414 c 1
 272 620 l 1
 219 611 186 577 186 520 c 0
340 289 m 1
 340 70 l 1
 399 78 437 110 437 173 c 0
 437 224 414 263 340 289 c 1
EndSplineSet
EndChar

StartChar: percent
Encoding: 37 37 303
Width: 751
Flags: MW
HStem: -14 66<542.5 580 542.5 607.5> 0 21G<105 201 105 105> 243 66<542.5 580> 378 66<171 208.5 171 236> 635 66<171 208.5> 670 20G<553 649 649 649>
VStem: 39 90<509 571 509 590> 251 90<509 571> 410 90<117 179 117 198> 622 90<117 179>
LayerCount: 2
Fore
SplineSet
190 701 m 0xbbc0
 282 701 341 640 341 540 c 0
 341 440 282 378 190 378 c 0
 97 378 39 440 39 540 c 0
 39 640 97 701 190 701 c 0xbbc0
201 0 m 1x77c0
 105 0 l 1
 553 690 l 1
 649 690 l 1
 201 0 l 1x77c0
190 635 m 0xbbc0
 152 635 129 602 129 540 c 0
 129 478 152 444 190 444 c 0
 227 444 251 478 251 540 c 0
 251 602 227 635 190 635 c 0xbbc0
561 309 m 0
 654 309 712 248 712 148 c 0
 712 48 654 -14 561 -14 c 0
 469 -14 410 48 410 148 c 0
 410 248 469 309 561 309 c 0
561 243 m 0
 524 243 500 210 500 148 c 0
 500 86 524 52 561 52 c 0
 599 52 622 86 622 148 c 0
 622 210 599 243 561 243 c 0
EndSplineSet
EndChar

StartChar: ampersand
Encoding: 38 38 311
Width: 663
Flags: MW
HStem: -14 84<283 356 283 373.5> 306 88<371 435 386 435 386 435 545 640> 620 84<298.5 362.5> 674 20G<456 456>
VStem: 59 119<145.5 218> 91 119<467.5 543 466.5 567> 435 110<78 306 9 306 394 497>
LayerCount: 2
Fore
SplineSet
640 394 m 1xea
 640 306 l 1
 545 306 l 1
 545 9 l 1
 483 -5 412 -14 335 -14 c 0
 174 -14 59 28 59 174 c 0xea
 59 262 121 332 220 352 c 1
 144 372 91 428 91 507 c 0
 91 627 191 704 341 704 c 0xe6
 388 704 421 701 456 694 c 1xda
 456 610 l 1
 415 618 385 620 340 620 c 0
 257 620 210 578 210 508 c 0xe6
 210 425 260 398 325 395 c 0
 343 394 365 394 386 394 c 2
 435 394 l 1
 435 497 l 1
 545 497 l 1
 545 394 l 1
 640 394 l 1xea
178 190 m 0
 178 101 229 70 337 70 c 0
 375 70 400 72 435 78 c 1
 435 306 l 1
 382 306 l 2
 360 306 343 306 323 305 c 0
 221 296 178 250 178 190 c 0
EndSplineSet
EndChar

StartChar: quotesingle
Encoding: 39 39 257
Width: 187
Flags: MW
HStem: 474 261<51 133 51 51>
VStem: 45.5 93.5
LayerCount: 2
Fore
SplineSet
133 474 m 1
 51 474 l 1
 40 735 l 1
 145 735 l 1
 133 474 l 1
EndSplineSet
EndChar

StartChar: parenleft
Encoding: 40 40 265
Width: 337
Flags: MW
HStem: -80 860<235 300 235 300>
VStem: 105 73<272.5 427.5 272.5 433>
LayerCount: 2
Fore
SplineSet
235 780 m 1
 300 780 l 1
 222 654 178 505 178 350 c 0
 178 195 222 46 300 -80 c 1
 235 -80 l 1
 153 31 105 185 105 350 c 0
 105 516 153 669 235 780 c 1
EndSplineSet
EndChar

StartChar: parenright
Encoding: 41 41 266
Width: 336
Flags: MW
HStem: -80 860<32 97 32 97>
VStem: 154 73<272.5 427.5>
LayerCount: 2
Fore
SplineSet
32 780 m 1
 97 780 l 1
 179 669 227 516 227 350 c 0
 227 185 179 31 97 -80 c 1
 32 -80 l 1
 110 46 154 195 154 350 c 0
 154 505 110 654 32 780 c 1
EndSplineSet
EndChar

StartChar: asterisk
Encoding: 42 42 243
Width: 578
Flags: MW
HStem: 78 397<196 327 251 382>
VStem: 256.5 65
LayerCount: 2
Fore
SplineSet
316 305 m 1
 463 364 l 1
 486 292 l 1
 333 254 l 1
 443 123 l 1
 382 78 l 1
 289 224 l 1
 196 78 l 1
 135 123 l 1
 245 254 l 1
 92 292 l 1
 115 364 l 1
 262 305 l 1
 251 475 l 1
 327 475 l 1
 316 305 l 1
EndSplineSet
EndChar

StartChar: plus
Encoding: 43 43 305
Width: 601
Flags: MW
HStem: 284 64<87 266 87 266 335 514>
VStem: 266 69<83 284 83 284 348 551>
LayerCount: 2
Fore
SplineSet
514 284 m 1
 335 284 l 1
 335 83 l 1
 266 83 l 1
 266 284 l 1
 87 284 l 1
 87 348 l 1
 266 348 l 1
 266 551 l 1
 335 551 l 1
 335 348 l 1
 514 348 l 1
 514 284 l 1
EndSplineSet
EndChar

StartChar: hyphen
Encoding: 45 45 269
Width: 284
Flags: MW
HStem: 250 66<32 252 32 252>
VStem: 32 220<250 316 250 316>
LayerCount: 2
Fore
SplineSet
252 250 m 1
 32 250 l 1
 32 316 l 1
 252 316 l 1
 252 250 l 1
EndSplineSet
EndChar

StartChar: period
Encoding: 46 46 252
Width: 232
Flags: MW
HStem: -14 146<89.5 132>
VStem: 38 146<38 80.5>
LayerCount: 2
Fore
SplineSet
111 132 m 0
 153 132 184 102 184 59 c 0
 184 17 153 -14 111 -14 c 0
 68 -14 38 17 38 59 c 0
 38 102 68 132 111 132 c 0
EndSplineSet
EndChar

StartChar: slash
Encoding: 47 47 259
Width: 314
Flags: MW
HStem: -30 750<-5 319 -5 319>
VStem: -5 324
LayerCount: 2
Fore
SplineSet
68 -30 m 1
 -5 -30 l 1
 246 720 l 1
 319 720 l 1
 68 -30 l 1
EndSplineSet
EndChar

StartChar: zero
Encoding: 48 48 232
Width: 601
Flags: MW
HStem: -14 84<251 349.5 251 396.5> 620 84<251 349.5>
VStem: 42 119<256.5 434.5 256.5 449.5> 439 119<256.5 434.5>
LayerCount: 2
Fore
SplineSet
300 704 m 0
 493 704 558 554 558 345 c 0
 558 138 493 -14 300 -14 c 0
 108 -14 42 138 42 345 c 0
 42 554 108 704 300 704 c 0
300 70 m 0
 399 70 439 168 439 345 c 0
 439 524 399 620 300 620 c 0
 202 620 161 524 161 345 c 0
 161 168 202 70 300 70 c 0
EndSplineSet
EndChar

StartChar: one
Encoding: 49 49 233
Width: 601
Flags: MW
HStem: 0 21G<322 432 322 322> 670 20G<371 432 432 432>
VStem: 322 110<0 575 575 575>
LayerCount: 2
Fore
SplineSet
432 690 m 1
 432 0 l 1
 322 0 l 1
 322 575 l 1
 127 463 l 1
 127 571 l 1
 279 664 l 2
 311 683 340 690 371 690 c 2
 432 690 l 1
EndSplineSet
EndChar

StartChar: two
Encoding: 50 50 234
Width: 601
Flags: MW
HStem: 0 88<224 541 224 541> 621 84<273.5 350.5>
VStem: 426 119<468 534.5>
LayerCount: 2
Fore
SplineSet
224 88 m 1
 541 88 l 1
 541 0 l 1
 60 0 l 1
 60 56 l 1
 301 299 l 1
 388 385 426 435 426 501 c 0
 426 568 388 621 313 621 c 0
 234 621 195 571 186 480 c 2
 185 470 l 1
 75 470 l 1
 76 480 l 2
 90 626 179 705 325 705 c 0
 471 705 545 620 545 511 c 0
 545 420 497 356 376 238 c 1
 224 88 l 1
EndSplineSet
EndChar

StartChar: three
Encoding: 51 51 235
Width: 601
Flags: MW
HStem: -14 84<260 338.5 260 366> 309 81.5 620 84<273 340.5>
VStem: 417 119<487 545.5> 433 119<153 228>
LayerCount: 2
Fore
SplineSet
411 366 m 1xe8
 500 344 552 286 552 195 c 0
 552 66 438 -14 294 -14 c 0
 152 -14 58 52 43 198 c 2
 42 208 l 1
 152 208 l 1
 153 198 l 1
 163 113 221 70 299 70 c 0
 378 70 433 116 433 190 c 0xe8
 433 266 384 308 282 309 c 1
 262 309 l 1
 262 390 l 1
 282 391 l 1
 360 392 417 437 417 514 c 0
 417 577 374 620 307 620 c 0
 239 620 189 576 181 497 c 2
 180 487 l 1
 71 487 l 1
 72 497 l 2
 84 620 170 704 319 704 c 0
 457 704 536 629 536 527 c 0xf0
 536 447 489 388 411 366 c 1xe8
EndSplineSet
EndChar

StartChar: four
Encoding: 52 52 236
Width: 601
Flags: MW
HStem: 0 21G<372 481 372 372> 169 88<163 372 163 372 481 568> 670 20G<368 481 481 481>
VStem: 372 109<0 169 0 169 257 556 556 556>
LayerCount: 2
Fore
SplineSet
568 169 m 1
 481 169 l 1
 481 0 l 1
 372 0 l 1
 372 169 l 1
 34 169 l 1
 34 226 l 1
 368 690 l 1
 481 690 l 1
 481 257 l 1
 568 257 l 1
 568 169 l 1
372 257 m 1
 372 556 l 1
 357 530 341 503 320 475 c 2
 163 257 l 1
 372 257 l 1
EndSplineSet
EndChar

StartChar: five
Encoding: 53 53 237
Width: 601
Flags: MW
HStem: -14 84<259.5 340.5 259.5 367> 375 84<304.5 343.5> 603 87<206 526 206 206>
VStem: 436 119<174 267.5>
LayerCount: 2
Fore
SplineSet
325 459 m 0
 475 459 555 362 555 226 c 0
 555 72 433 -14 301 -14 c 0
 156 -14 72 52 58 186 c 2
 57 196 l 1
 167 196 l 1
 168 186 l 1
 182 115 221 70 298 70 c 0
 383 70 436 127 436 221 c 0
 436 314 386 375 301 375 c 0
 242 375 201 350 171 286 c 1
 68 286 l 1
 117 690 l 1
 526 690 l 1
 526 603 l 1
 206 603 l 1
 178 384 l 1
 217 431 l 1
 249 450 284 459 325 459 c 0
EndSplineSet
EndChar

StartChar: six
Encoding: 54 54 238
Width: 601
Flags: MW
HStem: -14 84<259 339 259 369.5> 381 84<299 345> 620 84<270 344.5>
VStem: 46 116<361 361 361 451> 433 119<177.5 266.5>
LayerCount: 2
Fore
SplineSet
324 465 m 0
 471 465 552 367 552 235 c 0
 552 82 440 -14 299 -14 c 0
 137 -14 46 86 46 317 c 0
 46 585 169 704 321 704 c 0
 448 704 531 630 544 515 c 1
 545 505 l 1
 431 505 l 1
 429 515 l 1
 413 585 376 620 313 620 c 0
 227 620 169 548 162 361 c 1
 199 423 l 1
 236 454 274 465 324 465 c 0
299 70 m 0
 379 70 433 133 433 222 c 0
 433 311 392 381 298 381 c 0
 228 381 168 327 168 224 c 0
 168 136 219 70 299 70 c 0
EndSplineSet
EndChar

StartChar: seven
Encoding: 55 55 239
Width: 601
Flags: MW
HStem: 0 21G<102 220 102 102> 603 87<52 427 52 558>
VStem: 52 506<635 690 635 690 635 690>
LayerCount: 2
Fore
SplineSet
558 690 m 1
 558 635 l 1
 220 0 l 1
 102 0 l 1
 427 603 l 1
 52 603 l 1
 52 690 l 1
 558 690 l 1
EndSplineSet
EndChar

StartChar: eight
Encoding: 56 56 240
Width: 601
Flags: MW
HStem: -15 84<256.5 348 256.5 365.5> 317 84<268.5 343.5 268.5 348.5> 620 84<269.5 345>
VStem: 46 118<156.5 227 156.5 237> 77 115<479.5 542.5 479.5 573> 422 115<479.5 542.5> 436 119<156.5 226.5>
LayerCount: 2
Fore
SplineSet
423 365 m 1xf2
 495 342 555 280 555 194 c 0
 555 43 431 -15 300 -15 c 0
 159 -15 46 43 46 194 c 0xf2
 46 280 109 342 182 365 c 1
 121 388 77 439 77 516 c 0
 77 630 165 704 307 704 c 0
 450 704 537 630 537 516 c 0xec
 537 438 486 387 423 365 c 1xf2
307 620 m 0xec
 232 620 192 573 192 512 c 0
 192 447 231 401 306 401 c 0
 381 401 422 447 422 512 c 0
 422 573 383 620 307 620 c 0xec
302 69 m 0xf2
 394 69 436 120 436 193 c 0
 436 260 396 317 301 317 c 0
 208 317 164 261 164 193 c 0
 164 120 211 69 302 69 c 0xf2
EndSplineSet
EndChar

StartChar: nine
Encoding: 57 57 241
Width: 601
Flags: MW
HStem: -14 84<256 331 256 356> 225 84<255.5 302> 620 84<262 341.5>
VStem: 49 119<424 512.5 424 531.5> 439 116<329 329>
LayerCount: 2
Fore
SplineSet
301 704 m 0
 464 704 555 605 555 373 c 0
 555 105 432 -14 280 -14 c 0
 152 -14 68 60 57 176 c 2
 56 186 l 1
 170 186 l 1
 172 176 l 2
 187 105 224 70 288 70 c 0
 374 70 432 143 439 329 c 1
 402 267 l 1
 365 237 327 225 277 225 c 0
 130 225 49 323 49 455 c 0
 49 608 160 704 301 704 c 0
302 309 m 0
 373 309 433 363 433 466 c 0
 433 554 381 620 302 620 c 0
 222 620 168 557 168 468 c 0
 168 380 209 309 302 309 c 0
EndSplineSet
EndChar

StartChar: colon
Encoding: 58 58 246
Width: 232
Flags: MW
HStem: -14 146<89.5 132> 399 146<89.5 132>
VStem: 38 146<38 80.5 451 493.5>
LayerCount: 2
Fore
SplineSet
111 545 m 0
 153 545 184 515 184 472 c 0
 184 430 153 399 111 399 c 0
 68 399 38 430 38 472 c 0
 38 515 68 545 111 545 c 0
111 132 m 0
 153 132 184 102 184 59 c 0
 184 17 153 -14 111 -14 c 0
 68 -14 38 17 38 59 c 0
 38 102 68 132 111 132 c 0
EndSplineSet
EndChar

StartChar: semicolon
Encoding: 59 59 258
Width: 232
Flags: MW
HStem: -121 247<49 66 -30 161> 399 146<89.5 132>
VStem: 38 146<451 493.5>
LayerCount: 2
Fore
SplineSet
111 545 m 0
 153 545 184 515 184 472 c 0
 184 430 153 399 111 399 c 0
 68 399 38 430 38 472 c 0
 38 515 68 545 111 545 c 0
161 112 m 1
 66 -121 l 1
 -30 -121 l 1
 49 126 l 1
 161 126 l 1
 161 112 l 1
EndSplineSet
EndChar

StartChar: less
Encoding: 60 60 296
Width: 601
Flags: MW
HStem: 28 475<523 523>
VStem: 104 71<266 266 266 308 266 308>
LayerCount: 2
Fore
SplineSet
523 422 m 1
 175 266 l 1
 523 110 l 1
 523 28 l 1
 104 223 l 1
 104 308 l 1
 523 503 l 1
 523 422 l 1
EndSplineSet
EndChar

StartChar: equal
Encoding: 61 61 291
Width: 601
Flags: MW
HStem: 184 64<82 519 82 519> 384 64<82 519 82 519>
VStem: 82 437<184 248 184 248 384 448 184 448>
LayerCount: 2
Fore
SplineSet
519 384 m 1
 82 384 l 1
 82 448 l 1
 519 448 l 1
 519 384 l 1
519 184 m 1
 82 184 l 1
 82 248 l 1
 519 248 l 1
 519 184 l 1
EndSplineSet
EndChar

StartChar: greater
Encoding: 62 62 292
Width: 601
Flags: MW
HStem: 28 475<69 69>
VStem: 416 71<264 264>
LayerCount: 2
Fore
SplineSet
487 308 m 1
 487 223 l 1
 69 28 l 1
 69 108 l 1
 416 264 l 1
 69 420 l 1
 69 503 l 1
 487 308 l 1
EndSplineSet
EndChar

StartChar: question
Encoding: 63 63 254
Width: 522
Flags: MW
HStem: -14 141<232.5 273.5> 620 84<230 297>
VStem: 34 112<489 489> 183 141<35.5 76.5> 202 101<188 188> 367 119<488 547>
LayerCount: 2
Fore
SplineSet
269 704 m 0xf4
 408 704 486 627 486 519 c 0
 486 446 452 388 381 320 c 0
 323 264 307 238 303 188 c 1
 202 188 l 1xec
 207 252 226 289 278 348 c 0
 345 423 367 461 367 515 c 0
 367 579 330 620 264 620 c 0
 196 620 152 576 146 489 c 1
 34 489 l 1
 38 621 131 704 269 704 c 0xf4
253 127 m 0
 294 127 324 97 324 56 c 0
 324 15 294 -14 253 -14 c 0
 212 -14 183 15 183 56 c 0
 183 97 212 127 253 127 c 0
EndSplineSet
EndChar

StartChar: at
Encoding: 64 64 313
Width: 872
Flags: MW
HStem: -112 68<330 448> 69 80<383 386> 73 68<611 654.5> 405 80<419 457 377 475> 606 68<390 550>
VStem: 52 73<152.5 362 152.5 376.5> 229 112<206 282 206 299> 512.21 21.79 742 73<267.5 422>
LayerCount: 2
Fore
SplineSet
651 467 m 1xbf80
 596 236 l 2
 589 208 588 195 588 184 c 0
 588 161 595 141 627 141 c 0
 684 141 742 203 742 332 c 0
 742 512 625 606 475 606 c 0
 305 606 125 476 125 248 c 0
 125 57 247 -44 413 -44 c 0
 495 -44 587 -19 657 32 c 1
 684 -26 l 1
 590 -89 489 -112 407 -112 c 0
 229 -112 52 -1 52 245 c 0
 52 508 259 674 478 674 c 0
 683 674 815 530 815 336 c 0
 815 149 707 73 602 73 c 0
 544 73 501 97 489 153 c 1xbf80
 466 106 l 1
 434 80 403 69 369 69 c 0xdf80
 303 69 229 108 229 232 c 0
 229 366 315 485 439 485 c 0
 475 485 507 474 524 455 c 1
 534 403 l 1
 553 467 l 1
 651 467 l 1xbf80
496 250 m 2
 507 297 l 2
 525 376 496 405 454 405 c 0
 384 405 341 325 341 239 c 0
 341 173 366 149 400 149 c 0xdf80
 448 149 484 198 496 250 c 2
EndSplineSet
EndChar

StartChar: A
Encoding: 65 65 1
Width: 656
GlyphClass: 2
Flags: MW
HStem: 0 21G<23 140 23 23 535 535 535 654> 228 87<244 431 244 460 215 431> 599 91<340 340> 670 20G<271 413 413 413>
VStem: 23 631<0 0>
LayerCount: 2
Fore
SplineSet
460 228 m 1xd8
 215 228 l 1
 140 0 l 1
 23 0 l 1
 271 690 l 1
 413 690 l 1
 654 0 l 1
 535 0 l 1
 460 228 l 1xd8
244 315 m 1
 431 315 l 1
 340 599 l 1xe8
 244 315 l 1
EndSplineSet
Position2: "'cpsp' Capital Spacing in Latin lookup 0 subtable" dx=5 dy=0 dh=10 dv=0
EndChar

StartChar: B
Encoding: 66 66 12
Width: 641
GlyphClass: 2
Flags: MW
HStem: 0 88<205 330> 314 85<205 325 325 333.5 205 335 205 325> 603 87<205 205 205 318>
VStem: 95 110<88 314 399 603> 464 116<477 534.5> 489 116<165.5 236.5>
LayerCount: 2
Fore
SplineSet
467 369 m 1xf4
 557 347 605 296 605 204 c 0xf4
 605 78 513 18 422 5 c 0
 388 0 365 0 330 0 c 2
 95 0 l 1
 95 690 l 1
 318 690 l 2
 352 690 374 690 408 686 c 0
 518 671 580 612 580 516 c 0xf8
 580 438 538 393 467 369 c 1xf4
205 603 m 1
 205 399 l 1
 325 399 l 2
 342 399 359 400 377 403 c 0
 438 413 464 448 464 504 c 0
 464 565 425 594 370 600 c 0xf8
 354 602 334 603 318 603 c 2
 205 603 l 1
388 89 m 0xf4
 445 94 489 132 489 199 c 0
 489 274 446 304 387 311 c 0
 367 314 351 314 335 314 c 2
 205 314 l 1
 205 88 l 1
 341 88 l 2
 357 88 375 88 388 89 c 0xf4
EndSplineSet
Position2: "'cpsp' Capital Spacing in Latin lookup 0 subtable" dx=5 dy=0 dh=10 dv=0
EndChar

StartChar: D
Encoding: 68 68 18
Width: 719
GlyphClass: 2
Flags: MW
HStem: 0 88<205 304 304 314> 603 87<205 308 205 205>
VStem: 95 110<88 603 88 690 88 690> 566 118<276.5 425.5>
LayerCount: 2
Fore
SplineSet
406 686 m 0
 566 667 684 562 684 353 c 0
 684 147 562 24 402 4 c 0
 367 0 351 0 314 0 c 2
 95 0 l 1
 95 690 l 1
 318 690 l 2
 355 690 371 690 406 686 c 0
383 92 m 0
 494 108 566 200 566 353 c 0
 566 498 497 582 387 598 c 0
 365 602 341 603 308 603 c 2
 205 603 l 1
 205 88 l 1
 304 88 l 2
 338 88 361 88 383 92 c 0
EndSplineSet
Position2: "'cpsp' Capital Spacing in Latin lookup 0 subtable" dx=5 dy=0 dh=10 dv=0
EndChar

StartChar: F
Encoding: 70 70 31
Width: 579
GlyphClass: 2
Flags: MW
HStem: 0 21G<95 205 95 95> 302 87<205 524 205 524> 603 87<205 205 205 562>
VStem: 95 110<0 302 389 603>
LayerCount: 2
Fore
SplineSet
205 603 m 1
 205 389 l 1
 524 389 l 1
 524 302 l 1
 205 302 l 1
 205 0 l 1
 95 0 l 1
 95 690 l 1
 562 690 l 1
 562 603 l 1
 205 603 l 1
EndSplineSet
Position2: "'cpsp' Capital Spacing in Latin lookup 0 subtable" dx=5 dy=0 dh=10 dv=0
EndChar

StartChar: G
Encoding: 71 71 32
Width: 722
GlyphClass: 2
Flags: MW
HStem: -14 84<312.5 400.5> 0 21G<571 663 571 571> 254 88<402 556 402 663> 620 84<315 431.5>
VStem: 49 119<261.5 428.5 261.5 450.5> 560 110 569 94
AnchorPoint: "Anchor-0" 370 0 basechar 0
LayerCount: 2
Fore
SplineSet
402 342 m 1xba
 663 342 l 1
 663 0 l 1
 571 0 l 1x7a
 567 117 l 1
 536 50 l 1xba
 497 8 439 -14 362 -14 c 0
 165 -14 49 132 49 342 c 0
 49 559 187 704 381 704 c 0
 562 704 656 604 670 468 c 2
 671 458 l 1
 561 458 l 1
 559 468 l 2xbc
 541 561 484 620 379 620 c 0
 251 620 168 510 168 347 c 0
 168 176 251 70 374 70 c 0
 476 70 550 143 556 254 c 1
 402 254 l 1
 402 342 l 1xba
EndSplineSet
Position2: "'cpsp' Capital Spacing in Latin lookup 0 subtable" dx=5 dy=0 dh=10 dv=0
EndChar

StartChar: H
Encoding: 72 72 36
Width: 740
GlyphClass: 2
Flags: MW
HStem: 0 21G<95 205 95 95 559 668 559 559> 294 89<205 559 205 559> 670 20G<95 205 205 205 559 668 668 668>
VStem: 95 110<0 294 0 383 383 690> 559 109<0 294 294 294 383 690 0 690>
LayerCount: 2
Fore
SplineSet
668 690 m 1
 668 0 l 1
 559 0 l 1
 559 294 l 1
 205 294 l 1
 205 0 l 1
 95 0 l 1
 95 690 l 1
 205 690 l 1
 205 383 l 1
 559 383 l 1
 559 690 l 1
 668 690 l 1
EndSplineSet
Position2: "'cpsp' Capital Spacing in Latin lookup 0 subtable" dx=5 dy=0 dh=10 dv=0
EndChar

StartChar: I
Encoding: 73 73 38
Width: 277
GlyphClass: 2
Flags: MW
HStem: 0 21G<95 205 95 95> 670 20G<95 205 205 205>
VStem: 95 110<0 690>
LayerCount: 2
Fore
SplineSet
205 0 m 1
 95 0 l 1
 95 690 l 1
 205 690 l 1
 205 0 l 1
EndSplineSet
Position2: "'cpsp' Capital Spacing in Latin lookup 0 subtable" dx=5 dy=0 dh=10 dv=0
EndChar

StartChar: J
Encoding: 74 74 47
Width: 568
GlyphClass: 2
Flags: MW
HStem: -14 84<250 323.5 250 354> 670 20G<403 513 513 513>
VStem: 53.5 110.5 403 110<268 273 273 690>
LayerCount: 2
Fore
SplineSet
513 690 m 1
 513 273 l 2
 513 245 513 223 510 184 c 0
 503 67 431 -14 277 -14 c 0
 134 -14 58 70 54 204 c 2
 53 242 l 1
 163 242 l 1
 165 204 l 2
 170 110 213 70 287 70 c 0
 360 70 396 116 402 191 c 0
 403 212 403 236 403 268 c 2
 403 690 l 1
 513 690 l 1
EndSplineSet
Position2: "'cpsp' Capital Spacing in Latin lookup 0 subtable" dx=5 dy=0 dh=10 dv=0
EndChar

StartChar: K
Encoding: 75 75 48
Width: 643
GlyphClass: 2
Flags: MW
HStem: 0 21G<95 205 95 95 493 640 493 493> 670 20G<95 205 205 205 526 656 656 656>
VStem: 95 110<0 222 339 690>
AnchorPoint: "Anchor-0" 342 0 basechar 0
LayerCount: 2
Fore
SplineSet
346 356 m 1
 640 0 l 1
 493 0 l 1
 266 288 l 1
 205 222 l 1
 205 0 l 1
 95 0 l 1
 95 690 l 1
 205 690 l 1
 205 339 l 1
 526 690 l 1
 656 690 l 1
 346 356 l 1
EndSplineSet
Position2: "'cpsp' Capital Spacing in Latin lookup 0 subtable" dx=5 dy=0 dh=10 dv=0
EndChar

StartChar: L
Encoding: 76 76 50
Width: 588
GlyphClass: 2
Flags: MW
HStem: 0 91<205 572 205 572> 670 20G<95 205 205 205>
VStem: 95 110<91 690 91 690 91 690>
AnchorPoint: "Anchor-0" 332 0 basechar 0
LayerCount: 2
Fore
SplineSet
572 91 m 1
 572 0 l 1
 95 0 l 1
 95 690 l 1
 205 690 l 1
 205 91 l 1
 572 91 l 1
EndSplineSet
Position2: "'cpsp' Capital Spacing in Latin lookup 0 subtable" dx=5 dy=0 dh=10 dv=0
EndChar

StartChar: M
Encoding: 77 77 56
Width: 880
GlyphClass: 2
Flags: MW
HStem: 0 21G<95 205 95 95 388 515 388 388 699 808 699 699> 0 98<454 454 454 515 388 454> 585 105 670 20G<95 272 272 272 636 808 808 808>
VStem: 95 110<0 339 0 690> 699 109<0 339 339 378.5>
LayerCount: 2
Fore
SplineSet
808 690 m 1x9c
 808 0 l 1
 699 0 l 1
 699 339 l 2
 699 418 699 513 701 586 c 1
 681 513 652 418 626 340 c 2
 515 0 l 1
 388 0 l 1
 276 341 l 2
 251 418 222 512 203 585 c 1xac
 205 511 205 418 205 339 c 2
 205 0 l 1
 95 0 l 1
 95 690 l 1
 272 690 l 1
 454 98 l 1x5c
 636 690 l 1
 808 690 l 1x9c
EndSplineSet
Position2: "'cpsp' Capital Spacing in Latin lookup 0 subtable" dx=5 dy=0 dh=10 dv=0
EndChar

StartChar: N
Encoding: 78 78 57
Width: 737
GlyphClass: 2
Flags: MW
HStem: 0 21G<95 205 95 95 507 665 507 507> 0 117<559 559 559 665 507 559> 569 121<201 201> 670 20G<95 250 250 250 556 664 664 664>
VStem: 95 110<0 330 0 690> 556 108.5
AnchorPoint: "Anchor-0" 379 0 basechar 0
LayerCount: 2
Fore
SplineSet
665 0 m 1x9c
 507 0 l 1
 201 569 l 1xac
 204 490 205 401 205 330 c 2
 205 0 l 1
 95 0 l 1
 95 690 l 1
 250 690 l 1
 559 117 l 1x5c
 557 195 556 287 556 358 c 2
 556 690 l 1
 664 690 l 1
 665 0 l 1x9c
EndSplineSet
Position2: "'cpsp' Capital Spacing in Latin lookup 0 subtable" dx=5 dy=0 dh=10 dv=0
EndChar

StartChar: O
Encoding: 79 79 63
Width: 750
GlyphClass: 2
Flags: MW
HStem: -14 84<314.5 449 314.5 487.5> 620 84<314.5 449>
VStem: 49 118<259.5 431 259.5 452> 596 118<259.5 431>
LayerCount: 2
Fore
SplineSet
382 704 m 0
 593 704 714 559 714 345 c 0
 714 132 593 -14 382 -14 c 0
 170 -14 49 132 49 345 c 0
 49 559 170 704 382 704 c 0
382 70 m 0
 516 70 596 174 596 345 c 0
 596 517 516 620 382 620 c 0
 247 620 167 517 167 345 c 0
 167 174 247 70 382 70 c 0
EndSplineSet
Position2: "'cpsp' Capital Spacing in Latin lookup 0 subtable" dx=5 dy=0 dh=10 dv=0
EndChar

StartChar: P
Encoding: 80 80 73
Width: 610
GlyphClass: 2
Flags: MW
HStem: 0 21G<95 205 95 95> 272 89<205 321 205 324> 601 89<205 321 321 324 205 205>
VStem: 95 110<0 272 0 361 361 601> 481 116<444.5 517.5>
LayerCount: 2
Fore
SplineSet
415 686 m 0
 523 672 597 603 597 481 c 0
 597 359 515 289 415 276 c 0
 383 272 358 272 321 272 c 2
 205 272 l 1
 205 0 l 1
 95 0 l 1
 95 690 l 1
 321 690 l 2
 358 690 383 690 415 686 c 0
394 365 m 0
 442 374 481 408 481 481 c 0
 481 554 442 588 394 597 c 0
 376 600 352 601 324 601 c 2
 205 601 l 1
 205 361 l 1
 324 361 l 2
 352 361 376 362 394 365 c 0
EndSplineSet
Position2: "'cpsp' Capital Spacing in Latin lookup 0 subtable" dx=5 dy=0 dh=10 dv=0
EndChar

StartChar: Q
Encoding: 81 81 75
Width: 748
GlyphClass: 2
Flags: MW
HStem: -14 84<314.5 395> 2 68<314.5 545> 620 84<314.5 449>
VStem: 49 118<259.5 431 259.5 452> 596 118<291.5 431>
LayerCount: 2
Fore
SplineSet
595 87 m 1xb8
 640 79 679 57 721 22 c 1
 662 -51 l 1
 595 -7 564 2 526 2 c 0x78
 498 2 481 -1 453 -7 c 0
 431 -12 408 -14 382 -14 c 0
 170 -14 49 132 49 345 c 0
 49 559 170 704 382 704 c 0
 593 704 714 559 714 345 c 0
 714 238 673 144 595 87 c 1xb8
167 345 m 0
 167 174 247 70 382 70 c 0
 516 70 596 174 596 345 c 0
 596 517 516 620 382 620 c 0
 247 620 167 517 167 345 c 0
EndSplineSet
Position2: "'cpsp' Capital Spacing in Latin lookup 0 subtable" dx=5 dy=0 dh=10 dv=0
EndChar

StartChar: T
Encoding: 84 84 85
Width: 617
GlyphClass: 2
Flags: MW
HStem: 0 21G<270 379 270 270> 603 87<29 270 29 620 379 620 379 379>
VStem: 270 109<0 603 0 603>
AnchorPoint: "Anchor-0" 324 0 basechar 0
LayerCount: 2
Fore
SplineSet
620 603 m 1
 379 603 l 1
 379 0 l 1
 270 0 l 1
 270 603 l 1
 29 603 l 1
 29 690 l 1
 620 690 l 1
 620 603 l 1
EndSplineSet
Position2: "'cpsp' Capital Spacing in Latin lookup 0 subtable" dx=5 dy=0 dh=10 dv=0
EndChar

StartChar: V
Encoding: 86 86 99
Width: 652
GlyphClass: 2
Flags: MW
HStem: 0 21G<273 415 273 273> 0 84<346 346 346 415 273 346> 670 20G<32 151 151 151 546 663 663 663>
VStem: 32 631<690 690>
LayerCount: 2
Fore
SplineSet
415 0 m 1xb0
 273 0 l 1
 32 690 l 1
 151 690 l 1
 346 84 l 1x70
 546 690 l 1
 663 690 l 1
 415 0 l 1xb0
EndSplineSet
Position2: "'cpsp' Capital Spacing in Latin lookup 0 subtable" dx=5 dy=0 dh=10 dv=0
EndChar

StartChar: W
Encoding: 87 87 100
Width: 968
GlyphClass: 2
Flags: MW
HStem: 0 21G<204 350 204 204 633 778 633 633> 0 88<712 712 712 778 633 712> 588 92<495 495> 670 20G<26 147 147 147 852 966 966 966>
VStem: 26 940<690 690>
LayerCount: 2
Fore
SplineSet
966 690 m 1x98
 778 0 l 1
 633 0 l 1
 495 588 l 1xa8
 350 0 l 1
 204 0 l 1
 26 690 l 1
 147 690 l 1x98
 279 91 l 1
 422 680 l 1
 573 680 l 1
 712 88 l 1x68
 852 690 l 1
 966 690 l 1x98
EndSplineSet
Position2: "'cpsp' Capital Spacing in Latin lookup 0 subtable" dx=5 dy=0 dh=10 dv=0
EndChar

StartChar: X
Encoding: 88 88 105
Width: 648
GlyphClass: 2
Flags: MW
HStem: 0 21G<22 151 22 22 519 647 519 519> 670 20G<40 166 166 166 513 639 639 639>
VStem: 22 625<0 0>
LayerCount: 2
Fore
SplineSet
519 0 m 1
 331 279 l 1
 151 0 l 1
 22 0 l 1
 269 348 l 1
 40 690 l 1
 166 690 l 1
 336 420 l 1
 513 690 l 1
 639 690 l 1
 399 351 l 1
 647 0 l 1
 519 0 l 1
EndSplineSet
Position2: "'cpsp' Capital Spacing in Latin lookup 0 subtable" dx=5 dy=0 dh=10 dv=0
EndChar

StartChar: Y
Encoding: 89 89 106
Width: 602
GlyphClass: 2
Flags: MW
HStem: 0 21G<262 371 262 262> 670 20G<18 143 143 143 493 615 615 615>
VStem: 262 109<0 270 0 270>
LayerCount: 2
Fore
SplineSet
371 270 m 1
 371 0 l 1
 262 0 l 1
 262 270 l 1
 18 690 l 1
 143 690 l 1
 321 371 l 1
 493 690 l 1
 615 690 l 1
 371 270 l 1
EndSplineSet
Position2: "'cpsp' Capital Spacing in Latin lookup 0 subtable" dx=5 dy=0 dh=10 dv=0
EndChar

StartChar: Z
Encoding: 90 90 111
Width: 605
GlyphClass: 2
Flags: MW
HStem: 0 88<179 581 179 581> 603 87<76 448 76 576>
VStem: 48 533<0 84 84 84>
LayerCount: 2
Fore
SplineSet
581 88 m 1
 581 0 l 1
 48 0 l 1
 48 84 l 1
 448 603 l 1
 76 603 l 1
 76 690 l 1
 576 690 l 1
 576 604 l 1
 179 88 l 1
 581 88 l 1
EndSplineSet
Position2: "'cpsp' Capital Spacing in Latin lookup 0 subtable" dx=5 dy=0 dh=10 dv=0
EndChar

StartChar: bracketleft
Encoding: 91 91 263
Width: 333
Flags: MW
HStem: -80 66<169 291 169 291> 714 66<169 291 169 169>
VStem: 101 68<-14 714 -14 780 -14 780>
LayerCount: 2
Fore
SplineSet
291 780 m 1
 291 714 l 1
 169 714 l 1
 169 -14 l 1
 291 -14 l 1
 291 -80 l 1
 101 -80 l 1
 101 780 l 1
 291 780 l 1
EndSplineSet
EndChar

StartChar: backslash
Encoding: 92 92 244
Width: 314
Flags: MW
HStem: -30 750<-5 319 -5 246>
VStem: -5 324
LayerCount: 2
Fore
SplineSet
319 -30 m 1
 246 -30 l 1
 -5 720 l 1
 68 720 l 1
 319 -30 l 1
EndSplineSet
EndChar

StartChar: bracketright
Encoding: 93 93 264
Width: 324
Flags: MW
HStem: -80 66<33 155 33 223 33 155> 714 66<33 155 33 223>
VStem: 155 68<-14 714 714 714>
LayerCount: 2
Fore
SplineSet
223 -80 m 1
 33 -80 l 1
 33 -14 l 1
 155 -14 l 1
 155 714 l 1
 33 714 l 1
 33 780 l 1
 223 780 l 1
 223 -80 l 1
EndSplineSet
EndChar

StartChar: asciicircum
Encoding: 94 94 312
Width: 601
Flags: MW
HStem: 550 66<301 301>
VStem: 86 428<215 215>
LayerCount: 2
Fore
SplineSet
435 215 m 1
 301 550 l 1
 166 215 l 1
 86 215 l 1
 260 616 l 1
 340 616 l 1
 514 215 l 1
 435 215 l 1
EndSplineSet
EndChar

StartChar: underscore
Encoding: 95 95 260
Width: 500
Flags: MW
HStem: -87 66<50 450 50 450>
VStem: 50 400<-87 -21 -87 -21>
LayerCount: 2
Fore
SplineSet
450 -87 m 1
 50 -87 l 1
 50 -21 l 1
 450 -21 l 1
 450 -87 l 1
EndSplineSet
EndChar

StartChar: grave
Encoding: 96 96 331
Width: 300
Flags: MW
HStem: 578 114<23 191 23 125>
VStem: 23 168<578 692>
LayerCount: 2
Fore
SplineSet
191 578 m 1
 125 578 l 1
 23 692 l 1
 123 692 l 1
 191 578 l 1
EndSplineSet
EndChar

StartChar: a
Encoding: 97 97 115
Width: 545
GlyphClass: 2
Flags: MW
HStem: -14 80<217 231> 0 66 248 73<330 364> 465 80<237 300.5>
VStem: 35 116<120 188.5 120 198> 364 110<199 248 248 248 321 322>
LayerCount: 2
Fore
SplineSet
375 0 m 1x7c
 365 77 l 1x7c
 338 20 l 1
 302 -5 256 -14 206 -14 c 0xbc
 112 -14 35 40 35 139 c 0
 35 257 129 321 330 321 c 2
 364 321 l 1
 364 334 l 2
 364 354 364 372 362 392 c 0
 359 435 332 465 269 465 c 0
 205 465 172 429 166 363 c 1
 56 363 l 1
 63 479 150 545 271 545 c 0
 408 545 462 487 471 397 c 0
 473 375 474 347 474 322 c 2
 474 135 l 2
 474 95 476 59 484 0 c 1
 375 0 l 1x7c
246 66 m 0xbc
 315 66 364 113 364 199 c 2
 364 248 l 1
 235 258 151 229 151 148 c 0
 151 92 188 66 246 66 c 0xbc
EndSplineSet
EndChar

StartChar: b
Encoding: 98 98 126
Width: 626
GlyphClass: 2
Flags: MW
HStem: -14 80<318 371 292 408.5> 0 21G<69 179 69 69> 465 80<331 380> 715 20G<69 179 179 179>
VStem: 69 110<0 72 179 244 244 271 448 735> 481 116<199 322.5>
LayerCount: 2
Fore
SplineSet
358 545 m 0xbc
 510 545 597 430 597 275 c 0
 597 80 477 -14 340 -14 c 0
 296 -14 241 -2 214 19 c 1
 179 72 l 1xbc
 179 0 l 1
 69 0 l 1x7c
 69 735 l 1
 179 735 l 1
 179 448 l 1
 219 505 l 1
 249 530 304 545 358 545 c 0xbc
327 66 m 0
 415 66 481 133 481 265 c 0
 481 380 428 465 332 465 c 0
 250 465 179 413 179 271 c 2
 179 244 l 2
 179 114 257 66 327 66 c 0
EndSplineSet
EndChar

StartChar: c
Encoding: 99 99 127
Width: 544
GlyphClass: 2
Flags: MW
HStem: -14 80<242 310.5 242 335.5> 465 80<244.5 315.5>
VStem: 29 116<199 337.5 199 353.5>
AnchorPoint: "Anchor-0" 268 0 basechar 0
LayerCount: 2
Fore
SplineSet
286 545 m 0
 420 545 505 464 518 347 c 1
 407 347 l 1
 391 428 348 465 283 465 c 0
 206 465 145 404 145 271 c 0
 145 127 205 66 279 66 c 0
 342 66 387 104 403 176 c 1
 515 176 l 1
 490 49 398 -14 273 -14 c 0
 134 -14 29 74 29 263 c 0
 29 444 147 545 286 545 c 0
EndSplineSet
EndChar

StartChar: d
Encoding: 100 100 132
Width: 629
GlyphClass: 2
Flags: MW
HStem: -14 80<245.5 295> 0 21G<447 557 447 447> 465 80<254.5 308 217.5 333.5> 715 20G<447 557 557 557>
VStem: 29 116<208.5 332 208.5 354> 447 110<0 84 84 84 260 288 288 352.5 459 735 0 735>
LayerCount: 2
Fore
SplineSet
557 735 m 1xbc
 557 0 l 1
 447 0 l 1
 447 84 l 1x7c
 407 26 l 1
 377 2 322 -14 268 -14 c 0
 116 -14 29 101 29 257 c 0
 29 451 149 545 286 545 c 0
 330 545 385 533 412 512 c 1
 447 459 l 1
 447 735 l 1
 557 735 l 1xbc
293 66 m 0xbc
 376 66 447 118 447 260 c 2
 447 288 l 2
 447 417 369 465 298 465 c 0
 211 465 145 398 145 266 c 0
 145 151 198 66 293 66 c 0xbc
EndSplineSet
EndChar

StartChar: f
Encoding: 102 102 145
Width: 312
GlyphClass: 2
Flags: MW
HStem: 0 21G<78 187 78 78> 450 77<21 78 21 78 187 296> 669.75 78.25
VStem: 78 109<0 450 0 450 527 561 561 567>
LayerCount: 2
Fore
SplineSet
190 618 m 0
 188 604 187 582 187 567 c 2
 187 527 l 1
 296 527 l 1
 296 450 l 1
 187 450 l 1
 187 0 l 1
 78 0 l 1
 78 450 l 1
 21 450 l 1
 21 527 l 1
 78 527 l 1
 78 561 l 2
 78 580 78 606 80 624 c 0
 89 706 144 754 244 754 c 0
 266 754 287 752 305 748 c 1
 305 666 l 1
 240 678 196 662 190 618 c 0
EndSplineSet
EndChar

StartChar: g
Encoding: 103 103 146
Width: 629
GlyphClass: 2
Flags: MW
HStem: -213 83<250 339 250 370> -9 80<245.5 298> 465 80<254.5 308 217.5 333.5> 511 20G<447 557 557 557>
VStem: 29 116<211.5 335 211.5 356> 45 108<-35 -34> 447 110<78 132 89 132 265 288 288 352.5 459 531>
LayerCount: 2
Fore
SplineSet
557 531 m 1xda
 557 132 l 2
 557 99 557 58 556 29 c 0
 550 -132 450 -213 290 -213 c 0
 137 -213 56 -149 45 -35 c 2
 44 -25 l 1
 152 -25 l 1
 153 -34 l 2xe6
 160 -91 209 -130 291 -130 c 0
 387 -130 442 -78 446 17 c 0
 447 40 447 59 447 78 c 2
 447 89 l 1
 407 31 l 1
 377 7 325 -9 271 -9 c 0
 118 -9 29 103 29 259 c 0
 29 453 149 545 286 545 c 0
 330 545 385 533 412 512 c 1
 447 459 l 1xea
 447 531 l 1
 557 531 l 1xda
293 71 m 0
 376 71 447 123 447 265 c 2
 447 288 l 2
 447 417 369 465 298 465 c 0
 211 465 145 401 145 269 c 0xea
 145 154 198 71 293 71 c 0
EndSplineSet
EndChar

StartChar: h
Encoding: 104 104 150
Width: 606
GlyphClass: 2
Flags: MW
HStem: 0 21G<69 179 69 69 431 541 431 431> 464 81 720 20G<69 179 179 179>
VStem: 69 110<0 238 443 740> 431 110<0 287 287 299 0 299.5>
LayerCount: 2
Fore
SplineSet
538 393 m 0
 540 366 541 342 541 299 c 2
 541 0 l 1
 431 0 l 1
 431 287 l 2
 431 312 431 335 429 362 c 0
 424 422 392 465 317 464 c 0
 241 462 179 404 179 238 c 2
 179 0 l 1
 69 0 l 1
 69 740 l 1
 179 740 l 1
 179 443 l 1
 215 504 l 1
 257 536 296 545 349 545 c 0
 463 545 528 486 538 393 c 0
EndSplineSet
EndChar

StartChar: i
Encoding: 105 105 152
Width: 251
GlyphClass: 2
Flags: MW
HStem: 0 21G<69 179 69 69> 511 20G<69 179 179 179> 589 127<105.5 142.5>
VStem: 60 129<634.5 671> 69 110<0 531>
LayerCount: 2
Fore
SplineSet
124 716 m 0xf0
 161 716 189 689 189 653 c 0
 189 616 161 589 124 589 c 0
 87 589 60 616 60 653 c 0
 60 689 87 716 124 716 c 0xf0
179 0 m 1xe8
 69 0 l 1
 69 531 l 1
 179 531 l 1
 179 0 l 1xe8
EndSplineSet
EndChar

StartChar: j
Encoding: 106 106 161
Width: 245
GlyphClass: 2
Flags: MW
HStem: -210 85<-22 74> 511 20G<65 174 174 174> 589 127<100 139.5>
VStem: 55 129<633.5 672> 65 109<-34 -31 -31 531>
LayerCount: 2
Fore
SplineSet
120 716 m 0xf0
 159 716 184 691 184 653 c 0
 184 614 159 589 120 589 c 0
 80 589 55 614 55 653 c 0
 55 691 80 716 120 716 c 0xf0
174 531 m 1xe8
 174 -31 l 2
 174 -51 173 -77 172 -95 c 0
 165 -168 124 -210 24 -210 c 0
 6 -210 -8 -210 -22 -208 c 1
 -22 -125 l 1
 35 -130 59 -115 63 -79 c 0
 65 -65 65 -49 65 -34 c 2
 65 531 l 1
 174 531 l 1xe8
EndSplineSet
EndChar

StartChar: k
Encoding: 107 107 162
Width: 550
GlyphClass: 2
Flags: MW
HStem: 0 21G<69 179 69 69 406 406 406 549> 511 20G<411 546 546 546> 715 20G<69 179 179 179>
VStem: 69 110<0 166 0 275 275 735>
AnchorPoint: "Anchor-0" 285 0 basechar 0
LayerCount: 2
Fore
SplineSet
226 218 m 1
 179 166 l 1
 179 0 l 1
 69 0 l 1
 69 735 l 1
 179 735 l 1
 179 275 l 1
 411 531 l 1
 546 531 l 1
 304 282 l 1
 549 0 l 1
 406 0 l 1
 226 218 l 1
EndSplineSet
EndChar

StartChar: l
Encoding: 108 108 164
Width: 262
GlyphClass: 2
Flags: MW
HStem: -6 82<138 239> -1 21G<239 239> 715 20G<65 175 175 175>
VStem: 65 110<159 162 162 735>
AnchorPoint: "Anchor-0" 133 0 basechar 0
LayerCount: 2
Fore
SplineSet
175 735 m 1x70
 175 162 l 2
 175 144 175 128 176 112 c 0
 178 82 192 72 239 76 c 1
 239 -1 l 1
 217 -4 192 -6 167 -6 c 0
 109 -6 70 15 66 83 c 0xb0
 65 103 65 127 65 159 c 2
 65 735 l 1
 175 735 l 1x70
EndSplineSet
EndChar

StartChar: m
Encoding: 109 109 170
Width: 883
GlyphClass: 2
Flags: MW
HStem: 0 21G<69 179 69 69 389 498 389 389 708 818 708 708> 464 67 464 81<304 314.5 623.5 633.5>
VStem: 69 110<0 267 452 531> 389 109<0 267 0 281 0 301> 708 110<0 281 281 301>
LayerCount: 2
Fore
SplineSet
813 415 m 0xbc
 817 388 818 364 818 321 c 2
 818 0 l 1
 708 0 l 1
 708 281 l 2
 708 321 707 350 704 377 c 0
 697 434 662 464 605 464 c 0
 541 464 498 411 498 267 c 2
 498 0 l 1
 389 0 l 1
 389 281 l 2
 389 321 388 350 385 377 c 0
 377 434 343 464 286 464 c 0xbc
 221 464 179 411 179 267 c 2
 179 0 l 1
 69 0 l 1
 69 531 l 1
 179 531 l 1
 179 452 l 1xdc
 215 514 l 1
 243 536 280 545 328 545 c 0
 412 545 465 503 485 444 c 1
 534 514 l 1
 563 536 600 545 647 545 c 0
 745 545 801 488 813 415 c 0xbc
EndSplineSet
EndChar

StartChar: n
Encoding: 110 110 171
Width: 606
GlyphClass: 2
Flags: MW
HStem: 464 81<322.5 354.5>
VStem: 69 110<0 238 443 531> 431 110<0 287 287 299 0 299.5>
AnchorPoint: "Anchor-0" 302 0 basechar 0
LayerCount: 2
Fore
SplineSet
538 393 m 0
 540 366 541 342 541 299 c 2
 541 0 l 1
 431 0 l 1
 431 287 l 2
 431 312 431 335 429 362 c 0
 424 422 392 464 317 464 c 0
 241 464 179 404 179 238 c 2
 179 0 l 1
 69 0 l 1
 69 531 l 1
 179 531 l 1
 179 443 l 1
 215 504 l 1
 257 536 296 545 349 545 c 0
 463 545 528 486 538 393 c 0
EndSplineSet
EndChar

StartChar: o
Encoding: 111 111 177
Width: 595
GlyphClass: 2
Flags: MW
HStem: -14 80<249.5 346 249.5 387> 465 80<249.5 346>
VStem: 29 116<206 326 206 343.5> 450 117<206 326>
LayerCount: 2
Fore
SplineSet
298 545 m 0
 476 545 567 421 567 266 c 0
 567 111 476 -14 298 -14 c 0
 119 -14 29 111 29 266 c 0
 29 421 119 545 298 545 c 0
298 66 m 0
 394 66 450 146 450 266 c 0
 450 386 394 465 298 465 c 0
 201 465 145 386 145 266 c 0
 145 146 201 66 298 66 c 0
EndSplineSet
EndChar

StartChar: p
Encoding: 112 112 187
Width: 626
GlyphClass: 2
Flags: MW
HStem: -14 80<318 371 292 408.5> 465 80<331 380> 511 20G<69 179 179 179>
VStem: 69 110<-196 72 179 244 244 271 448 531> 481 116<199 322.5>
LayerCount: 2
Fore
SplineSet
358 545 m 0xd8
 510 545 597 430 597 275 c 0
 597 80 477 -14 340 -14 c 0
 296 -14 241 -2 214 19 c 1
 179 72 l 1
 179 -196 l 1
 69 -196 l 1
 69 531 l 1
 179 531 l 1
 179 448 l 1xb8
 219 505 l 1
 249 530 304 545 358 545 c 0xd8
327 66 m 0
 415 66 481 133 481 265 c 0
 481 380 428 465 332 465 c 0
 250 465 179 413 179 271 c 2
 179 244 l 2
 179 114 257 66 327 66 c 0
EndSplineSet
EndChar

StartChar: q
Encoding: 113 113 189
Width: 629
GlyphClass: 2
Flags: MW
HStem: -14 80<245.5 295> 465 80<254.5 308 217.5 333.5> 511 20G<447 557 557 557>
VStem: 29 116<208.5 332 208.5 354> 447 110<-196 84 84 84 260 288 288 352.5 459 531 -196 531>
LayerCount: 2
Fore
SplineSet
557 531 m 1xb8
 557 -196 l 1
 447 -196 l 1
 447 84 l 1
 407 26 l 1
 377 2 322 -14 268 -14 c 0
 116 -14 29 101 29 257 c 0
 29 451 149 545 286 545 c 0
 330 545 385 533 412 512 c 1
 447 459 l 1xd8
 447 531 l 1
 557 531 l 1xb8
293 66 m 0
 376 66 447 118 447 260 c 2
 447 288 l 2
 447 417 369 465 298 465 c 0
 211 465 145 398 145 266 c 0
 145 151 198 66 293 66 c 0
EndSplineSet
EndChar

StartChar: r
Encoding: 114 114 190
Width: 353
GlyphClass: 2
Flags: MW
HStem: 0 21G<69 179 69 69> 511 20G<69 179 179 179> 518 20G<343 343> 524 20G<292.5 313.5>
VStem: 69 110<0 276 441 531>
AnchorPoint: "Anchor-0" 124 0 basechar 0
LayerCount: 2
Fore
SplineSet
306 544 m 0x98
 321 544 332 542 343 538 c 1
 343 452 l 1xa8
 242 459 179 407 179 276 c 2
 179 0 l 1
 69 0 l 1
 69 531 l 1
 179 531 l 1
 179 441 l 1xc8
 224 514 l 1
 248 533 279 544 306 544 c 0x98
EndSplineSet
EndChar

StartChar: s
Encoding: 115 115 194
Width: 476
GlyphClass: 2
Flags: MW
HStem: -14 78<219.5 272.5 219.5 301> 468 77<206 259>
VStem: 23 111<159 159> 44 111<375 419 375 435.5> 330 112<379 379> 339 111<109 155>
AnchorPoint: "Anchor-0" 247 0 basechar 0
LayerCount: 2
Fore
SplineSet
240 545 m 0
 362 545 430 476 442 379 c 1
 330 379 l 1
 319 435 286 468 232 468 c 0
 180 468 155 439 155 399 c 0
 155 351 194 331 273 310 c 0
 389 280 450 234 450 140 c 0
 450 37 359 -14 243 -14 c 0
 125 -14 38 39 23 159 c 1
 134 159 l 1
 147 91 192 64 247 64 c 0
 298 64 339 86 339 132 c 0
 339 178 303 203 213 227 c 0
 116 252 44 293 44 386 c 0
 44 485 122 545 240 545 c 0
EndSplineSet
EndChar

StartChar: v
Encoding: 118 118 214
Width: 538
GlyphClass: 2
Flags: MW
HStem: 0 21G<204 332 204 204> 0 81<271 271 271 332 204 271> 511 20G<1 122 122 122 418 535 535 535>
VStem: 1 534<531 531>
LayerCount: 2
Fore
SplineSet
535 531 m 1xb0
 332 0 l 1
 204 0 l 1
 1 531 l 1
 122 531 l 1
 271 81 l 1x70
 418 531 l 1
 535 531 l 1xb0
EndSplineSet
EndChar

StartChar: w
Encoding: 119 119 215
Width: 806
GlyphClass: 2
Flags: MW
HStem: 0 21G<170 297 170 170 508 634 508 508> 0 97<577 577 577 634 508 577> 429 101<403 403> 510 20G<337 471 471 471> 511 20G<1 125 125 125 686 803 803 803>
VStem: 1 802<531 531>
LayerCount: 2
Fore
SplineSet
803 531 m 1x8c
 634 0 l 1
 508 0 l 1
 403 429 l 1xa4
 297 0 l 1
 170 0 l 1
 1 531 l 1
 125 531 l 1x8c
 234 98 l 1
 337 530 l 1
 471 530 l 1
 577 97 l 1x54
 686 531 l 1
 803 531 l 1x8c
EndSplineSet
EndChar

StartChar: x
Encoding: 120 120 220
Width: 509
GlyphClass: 2
Flags: MW
HStem: 0 21G<-5 121 -5 -5 373 500 373 373> 511 20G<2 131 131 131 372 498 498 498>
VStem: -5 505<0 0>
LayerCount: 2
Fore
SplineSet
313 270 m 1
 500 0 l 1
 373 0 l 1
 247 200 l 1
 121 0 l 1
 -5 0 l 1
 184 269 l 1
 2 531 l 1
 131 531 l 1
 252 339 l 1
 372 531 l 1
 498 531 l 1
 313 270 l 1
EndSplineSet
EndChar

StartChar: y
Encoding: 121 121 221
Width: 537
GlyphClass: 2
Flags: MW
HStem: -210 83<105 124 93.5 164> 511 20G<1 124 124 124 415 534 534 534>
VStem: 1 533<531 531>
LayerCount: 2
Fore
SplineSet
534 531 m 1
 318 -34 l 2
 269 -160 212 -210 116 -210 c 0
 94 -210 80 -210 64 -207 c 1
 64 -126 l 1
 77 -127 88 -127 99 -127 c 0
 149 -127 183 -106 207 -44 c 1
 215 -25 l 1
 1 531 l 1
 124 531 l 1
 270 82 l 1
 415 531 l 1
 534 531 l 1
EndSplineSet
EndChar

StartChar: z
Encoding: 122 122 226
Width: 478
GlyphClass: 2
Flags: MW
HStem: 0 79<148 449 148 449> 448 79<44 323 44 445 44 445>
VStem: 24 425<0 76 76 76>
LayerCount: 2
Fore
SplineSet
449 79 m 1
 449 0 l 1
 24 0 l 1
 24 76 l 1
 323 448 l 1
 44 448 l 1
 44 527 l 1
 445 527 l 1
 445 448 l 1
 148 79 l 1
 449 79 l 1
EndSplineSet
EndChar

StartChar: braceleft
Encoding: 123 123 261
Width: 335
Flags: MW
HStem: -80 66<227 293 278 293 278 293> 317 66<76 76> 714 66<272 278 278 293>
VStem: 136 68<17 41 659.5 683> 158 70<234.5 265 435.5 465.5>
LayerCount: 2
Fore
SplineSet
293 714 m 1xb0
 278 714 l 2
 222 714 204 699 204 667 c 0xb0
 204 647 206 632 215 570 c 0
 224 506 228 479 228 452 c 0
 228 396 198 361 143 351 c 1
 197 342 228 305 228 248 c 0xa8
 228 221 224 194 215 130 c 0
 206 69 204 54 204 33 c 0
 204 1 222 -14 278 -14 c 2
 293 -14 l 1
 293 -80 l 1
 272 -80 l 2
 182 -80 136 -53 136 29 c 0xb0
 136 53 138 74 148 140 c 0
 155 191 158 218 158 245 c 0
 158 285 139 312 76 317 c 1
 76 383 l 1
 139 389 158 416 158 455 c 0xe8
 158 482 155 509 148 560 c 0
 138 626 136 647 136 672 c 0
 136 753 182 780 272 780 c 2
 293 780 l 1
 293 714 l 1xb0
EndSplineSet
EndChar

StartChar: bar
Encoding: 124 124 314
Width: 266
Flags: MW
HStem: -200 1000<97 169 97 169>
VStem: 97 72<-200 800>
LayerCount: 2
Fore
SplineSet
169 -200 m 1
 97 -200 l 1
 97 800 l 1
 169 800 l 1
 169 -200 l 1
EndSplineSet
EndChar

StartChar: braceright
Encoding: 125 125 262
Width: 335
Flags: MW
HStem: -80 66<42 57 57 63 42 57> 317 66<259 259> 714 66<42 57 42 63>
VStem: 107 70<234.5 265 231.5 276.5 435.5 465.5> 131 68<17 41 -12 43.5 659.5 683>
LayerCount: 2
Fore
SplineSet
259 383 m 1xf0
 259 317 l 1
 196 312 177 285 177 245 c 0xf0
 177 218 180 191 187 140 c 0
 197 74 199 53 199 29 c 0
 199 -53 153 -80 63 -80 c 2
 42 -80 l 1
 42 -14 l 1
 57 -14 l 2
 113 -14 131 1 131 33 c 0xa8
 131 54 129 69 120 130 c 0
 111 194 107 221 107 248 c 0
 107 305 137 340 192 349 c 1
 138 358 107 396 107 452 c 0xb0
 107 479 111 506 120 570 c 0
 129 632 131 647 131 667 c 0
 131 699 113 714 57 714 c 2
 42 714 l 1
 42 780 l 1
 63 780 l 2
 153 780 199 753 199 672 c 0xa8
 199 647 197 626 187 560 c 0
 180 509 177 482 177 455 c 0
 177 416 196 389 259 383 c 1xf0
EndSplineSet
EndChar

StartChar: asciitilde
Encoding: 126 126 288
Width: 601
Flags: MW
HStem: 223 70<393.5 425 393.5 443.5> 299 70<175.5 207>
VStem: 80 66<223 247 223 271> 455 66<344 369>
LayerCount: 2
Fore
SplineSet
455 369 m 1
 521 369 l 1x70
 521 273 482 223 405 223 c 0xb0
 365 223 338 237 287 264 c 0
 246 286 220 299 194 299 c 0
 157 299 146 271 146 223 c 1
 80 223 l 1
 80 319 118 369 195 369 c 0x70
 236 369 263 355 314 328 c 0
 353 307 380 293 407 293 c 0xb0
 443 293 455 319 455 369 c 1
EndSplineSet
EndChar

StartChar: exclamdown
Encoding: 161 161 250
Width: 252
Flags: MW
HStem: 403 141<105.5 146.5>
VStem: 55 141<453.5 494.5> 73 105
LayerCount: 2
Fore
SplineSet
126 403 m 0xc0
 85 403 55 433 55 474 c 0
 55 515 85 544 126 544 c 0
 167 544 196 515 196 474 c 0
 196 433 167 403 126 403 c 0xc0
79 343 m 1xa0
 172 343 l 1
 184 -160 l 1
 67 -160 l 1
 79 343 l 1xa0
EndSplineSet
EndChar

StartChar: cent
Encoding: 162 162 281
Width: 586
Flags: MW
HStem: -13 21G<268 268> -12 21G<336 336> 521 20G<268 268> 523 20G<336 336>
VStem: 53 111<209.5 325 209.5 343.5> 268 68<-90 -13 -13 -13 71 458 458 458 543 620>
LayerCount: 2
Fore
SplineSet
336 461 m 1x5c
 336 70 l 1
 383 81 419 117 432 176 c 1
 539 176 l 1
 517 63 441 0 336 -12 c 1
 336 -90 l 1
 268 -90 l 1x5c
 268 -13 l 1
 144 -1 53 88 53 263 c 0
 53 424 148 522 268 541 c 1
 268 620 l 1
 336 620 l 1xac
 336 543 l 1
 455 533 530 455 542 346 c 1
 436 346 l 1
 422 414 386 451 336 461 c 1x5c
164 270 m 0
 164 149 210 88 268 71 c 1
 268 458 l 1
 209 441 164 380 164 270 c 0
EndSplineSet
EndChar

StartChar: sterling
Encoding: 163 163 285
Width: 601
Flags: MW
HStem: 0 88<203 539 203 539> 310 64<76 122 76 151 76 122 272 272 272 457> 620 84<279.5 346>
VStem: 93 119<486.5 538.5 486.5 559> 173 114<192 226.5> 421 114<504 504>
LayerCount: 2
Fore
SplineSet
539 88 m 1xf0
 539 0 l 1
 67 0 l 1
 67 78 l 1
 147 96 173 151 173 208 c 0
 173 245 167 272 151 310 c 1
 76 310 l 1
 76 374 l 1xe8
 122 374 l 1
 104 416 93 450 93 496 c 0
 93 622 189 704 316 704 c 0
 458 704 527 616 535 504 c 1
 421 504 l 1
 412 581 378 620 314 620 c 0
 245 620 212 566 212 511 c 0
 212 462 221 433 247 374 c 1xf4
 457 374 l 1
 457 310 l 1
 272 310 l 1
 283 279 287 253 287 224 c 0
 287 160 258 118 203 88 c 1xe8
 539 88 l 1xf0
EndSplineSet
EndChar

StartChar: currency
Encoding: 164 164 282
Width: 601
Flags: MW
HStem: 121 67<281 319.5> 414 67<281 319 281 331>
VStem: 120 73<282 320.5> 408 72<282 320 282 334>
LayerCount: 2
Fore
SplineSet
480 301 m 0
 480 263 468 228 448 199 c 1
 507 141 l 1
 462 96 l 1
 404 154 l 1
 374 133 339 121 300 121 c 0
 262 121 226 133 197 153 c 1
 140 96 l 1
 95 141 l 1
 152 198 l 1
 132 227 120 263 120 301 c 0
 120 340 132 375 152 405 c 1
 95 462 l 1
 140 507 l 1
 198 449 l 1
 227 469 262 481 300 481 c 0
 338 481 374 469 403 449 c 1
 462 507 l 1
 507 462 l 1
 448 404 l 1
 468 375 480 339 480 301 c 0
300 188 m 0
 362 188 408 235 408 301 c 0
 408 367 362 414 300 414 c 0
 239 414 193 367 193 301 c 0
 193 235 239 188 300 188 c 0
EndSplineSet
EndChar

StartChar: yen
Encoding: 165 165 286
Width: 601
Flags: MW
HStem: 0 21G<246 355 246 246> 169 66<87 246 87 246 355 514> 297 66<87 204 87 241 87 204 396 514> 670 20G<23 149 149 149 456 577 577 577>
VStem: 246 109<0 169 0 169 235 287 287 287>
LayerCount: 2
Fore
SplineSet
396 363 m 1
 514 363 l 1
 514 297 l 1
 359 297 l 1
 355 289 l 1
 355 235 l 1
 514 235 l 1
 514 169 l 1
 355 169 l 1
 355 0 l 1
 246 0 l 1
 246 169 l 1
 87 169 l 1
 87 235 l 1
 246 235 l 1
 246 287 l 1
 241 297 l 1
 87 297 l 1
 87 363 l 1
 204 363 l 1
 23 690 l 1
 149 690 l 1
 304 367 l 1
 456 690 l 1
 577 690 l 1
 396 363 l 1
EndSplineSet
EndChar

StartChar: brokenbar
Encoding: 166 166 315
Width: 262
Flags: MW
HStem: 670 20G<97 165 165 165>
VStem: 97 68<-160 180 350 690>
LayerCount: 2
Fore
SplineSet
165 350 m 1
 97 350 l 1
 97 690 l 1
 165 690 l 1
 165 350 l 1
165 -160 m 1
 97 -160 l 1
 97 180 l 1
 165 180 l 1
 165 -160 l 1
EndSplineSet
EndChar

StartChar: section
Encoding: 167 167 322
Width: 578
Flags: MW
HStem: -174 77<260.5 313.5 260.5 338.5> 627 77<263 310>
VStem: 30 114<273.5 324.5 273.5 331> 94 114<523 574.5 523 588> 377 114<-43.5 9.5> 436 114<214 260>
LayerCount: 2
Fore
SplineSet
550 243 m 0xd4
 550 177 511 126 455 98 c 1
 478 70 491 36 491 -8 c 0
 491 -118 394 -174 283 -174 c 0
 163 -174 76 -119 62 2 c 1
 173 2 l 1
 190 -67 233 -97 288 -97 c 0
 339 -97 377 -70 377 -17 c 0
 377 36 346 74 226 105 c 0
 111 135 30 192 30 295 c 0xe8
 30 367 68 417 126 444 c 1
 106 469 94 500 94 536 c 0
 94 640 175 704 287 704 c 0
 409 704 478 637 489 535 c 1
 378 535 l 1
 367 593 335 627 285 627 c 0
 241 627 208 599 208 550 c 0
 208 496 244 463 340 437 c 0
 485 397 550 342 550 243 c 0xd4
144 299 m 0xe4
 144 248 194 211 274 190 c 0
 313 180 347 168 376 154 c 1
 413 166 436 196 436 232 c 0
 436 288 395 319 297 349 c 0
 264 359 233 370 205 384 c 1
 169 377 144 350 144 299 c 0xe4
EndSplineSet
EndChar

StartChar: dieresis
Encoding: 168 168 329
Width: 300
Flags: MW
HStem: 580 105<55 85 215 245>
VStem: 17 107<617 647> 177 106<617 647>
LayerCount: 2
Fore
SplineSet
70 685 m 0
 100 685 124 662 124 632 c 0
 124 602 100 580 70 580 c 0
 40 580 17 602 17 632 c 0
 17 662 40 685 70 685 c 0
230 685 m 0
 260 685 283 662 283 632 c 0
 283 602 260 580 230 580 c 0
 200 580 177 602 177 632 c 0
 177 662 200 685 230 685 c 0
EndSplineSet
EndChar

StartChar: guillemotleft
Encoding: 171 171 270
Width: 592
Flags: MW
HStem: 82 332<264 351 264 351 264 451 451 538>
VStem: 127 411<82 248>
LayerCount: 2
Fore
SplineSet
351 414 m 1
 214 248 l 1
 351 82 l 1
 264 82 l 1
 127 248 l 1
 264 414 l 1
 351 414 l 1
538 414 m 1
 401 248 l 1
 538 82 l 1
 451 82 l 1
 314 248 l 1
 451 414 l 1
 538 414 l 1
EndSplineSet
EndChar

StartChar: logicalnot
Encoding: 172 172 298
Width: 601
Flags: MW
HStem: 322 66<105 416 105 485>
VStem: 416 69<201 322 322 322>
LayerCount: 2
Fore
SplineSet
485 201 m 1
 416 201 l 1
 416 322 l 1
 105 322 l 1
 105 388 l 1
 485 388 l 1
 485 201 l 1
EndSplineSet
EndChar

StartChar: registered
Encoding: 174 174 321
Width: 503
Flags: MW
HStem: 344 49<204.5 298 204.5 313> 455 99 523 43<227 245 245 248 227 245> 619 42<227 245 227 227> 716 48<204.5 298>
VStem: 41 51<507 601.5 507 615.5> 175 52<455 523 455 566 566 619> 264 77 410 51<507 601.5>
LayerCount: 2
Fore
SplineSet
251 764 m 0xbe80
 375 764 461 677 461 554 c 0
 461 431 375 344 251 344 c 0
 128 344 41 431 41 554 c 0
 41 677 128 764 251 764 c 0xbe80
251 393 m 0
 345 393 410 460 410 554 c 0
 410 649 345 716 251 716 c 0
 158 716 92 649 92 554 c 0
 92 460 158 393 251 393 c 0
300 554 m 1xdf80
 320 549 328 531 330 509 c 0
 333 482 338 466 343 455 c 1
 284 455 l 1xdf80
 281 467 279 481 277 499 c 0
 275 517 264 523 248 523 c 2
 227 523 l 1
 227 455 l 1
 175 455 l 1xbf80
 175 661 l 1
 247 661 l 2
 257 661 265 661 274 660 c 0
 315 656 341 638 341 604 c 0
 341 577 323 561 300 554 c 1xdf80
264 567 m 0xbf80
 278 570 284 579 284 593 c 0
 284 608 276 615 264 618 c 0
 258 619 254 619 245 619 c 2
 227 619 l 1
 227 566 l 1
 245 566 l 2
 253 566 258 566 264 567 c 0xbf80
EndSplineSet
EndChar

StartChar: macron
Encoding: 175 175 333
Width: 300
Flags: MW
HStem: 600 63<23 278 23 278>
VStem: 23 255<600 663 600 663>
LayerCount: 2
Fore
SplineSet
278 600 m 1
 23 600 l 1
 23 663 l 1
 278 663 l 1
 278 600 l 1
EndSplineSet
EndChar

StartChar: degree
Encoding: 176 176 319
Width: 304
Flags: MW
HStem: 458 64<136 167.5 136 189> 640 64<136 167.5>
VStem: 26 70<563.5 598.5 563.5 617.5> 208 70<563.5 598.5>
LayerCount: 2
Fore
SplineSet
152 704 m 0
 226 704 278 654 278 581 c 0
 278 508 226 458 152 458 c 0
 78 458 26 508 26 581 c 0
 26 654 78 704 152 704 c 0
152 640 m 0
 120 640 96 616 96 581 c 0
 96 546 120 522 152 522 c 0
 183 522 208 546 208 581 c 0
 208 616 183 640 152 640 c 0
EndSplineSet
EndChar

StartChar: plusminus
Encoding: 177 177 306
Width: 601
Flags: MW
HStem: 0 64<93 508 93 508> 286 66<93 266 93 266 335 508>
VStem: 266 69<115 286 115 286 352 519>
LayerCount: 2
Fore
SplineSet
335 352 m 1
 508 352 l 1
 508 286 l 1
 335 286 l 1
 335 115 l 1
 266 115 l 1
 266 286 l 1
 93 286 l 1
 93 352 l 1
 266 352 l 1
 266 519 l 1
 335 519 l 1
 335 352 l 1
508 0 m 1
 93 0 l 1
 93 64 l 1
 508 64 l 1
 508 0 l 1
EndSplineSet
EndChar

StartChar: acute
Encoding: 180 180 324
Width: 300
Flags: MW
HStem: 578 114<111 280 111 280>
VStem: 111 169<578 692>
LayerCount: 2
Fore
SplineSet
177 578 m 1
 111 578 l 1
 180 692 l 1
 280 692 l 1
 177 578 l 1
EndSplineSet
EndChar

StartChar: paragraph
Encoding: 182 182 320
Width: 579
Flags: MW
HStem: 624 66<341 439 341 341>
VStem: 273 68<-110 320 320 320> 439 68<-110 624 624 624>
LayerCount: 2
Fore
SplineSet
507 690 m 1
 507 -110 l 1
 439 -110 l 1
 439 624 l 1
 341 624 l 1
 341 -110 l 1
 273 -110 l 1
 273 320 l 1
 256 320 l 2
 238 320 217 320 200 321 c 0
 98 327 43 410 43 505 c 0
 43 600 98 683 200 689 c 0
 217 690 238 690 256 690 c 2
 507 690 l 1
EndSplineSet
EndChar

StartChar: periodcentered
Encoding: 183 183 253
Width: 222
Flags: MW
HStem: 228 154<89 133>
VStem: 34 154<283 327>
LayerCount: 2
Fore
SplineSet
111 382 m 0
 155 382 188 349 188 305 c 0
 188 261 155 228 111 228 c 0
 67 228 34 261 34 305 c 0
 34 349 67 382 111 382 c 0
EndSplineSet
EndChar

StartChar: cedilla
Encoding: 184 184 327
Width: 300
Flags: MW
HStem: -210 49<103.5 134 103.5 150> -41 50<161 161>
VStem: 175 70<-134 -106.5>
LayerCount: 2
Fore
SplineSet
187 9 m 1
 161 -41 l 1
 216 -48 245 -76 245 -122 c 0
 245 -181 189 -210 111 -210 c 0
 92 -210 74 -208 59 -202 c 1
 59 -151 l 1
 77 -159 94 -161 113 -161 c 0
 155 -161 175 -146 175 -122 c 0
 175 -91 149 -76 79 -81 c 1
 126 9 l 1
 187 9 l 1
EndSplineSet
EndChar

StartChar: guillemotright
Encoding: 187 187 271
Width: 584
Flags: MW
HStem: 82 332<54 141 54 141 54 241 241 328>
VStem: 54 411<82 248 248 414>
LayerCount: 2
Fore
SplineSet
278 248 m 1
 141 82 l 1
 54 82 l 1
 191 248 l 1
 54 414 l 1
 141 414 l 1
 278 248 l 1
465 248 m 1
 328 82 l 1
 241 82 l 1
 378 248 l 1
 241 414 l 1
 328 414 l 1
 465 248 l 1
EndSplineSet
EndChar

StartChar: questiondown
Encoding: 191 191 255
Width: 508
Flags: MW
HStem: -173 84<251 318 251 348> 404 141<274.5 315.5>
VStem: 62 119<-16 43 -16 49> 224 141<454.5 495.5> 245 101<344 344> 402 112<42 42>
LayerCount: 2
Fore
SplineSet
295 404 m 0xf4
 254 404 224 434 224 475 c 0
 224 516 254 545 295 545 c 0
 336 545 365 516 365 475 c 0
 365 434 336 404 295 404 c 0xf4
279 -173 m 0
 140 -173 62 -96 62 13 c 0
 62 85 96 144 167 211 c 0
 225 267 241 294 245 344 c 1
 346 344 l 1xec
 341 279 322 242 270 183 c 0
 203 108 181 70 181 16 c 0
 181 -48 218 -89 284 -89 c 0
 352 -89 396 -45 402 42 c 1
 514 42 l 1
 510 -90 417 -173 279 -173 c 0
EndSplineSet
EndChar

StartChar: Agrave
Encoding: 192 192 6
Width: 656
GlyphClass: 2
Flags: MW
HStem: 0 21G<23 140 23 23 535 535 535 654> 228 87<244 431 244 460 215 431> 599 91<340 340> 670 20G<271 413 413 413> 736 102<315 315 315 318 218 381>
VStem: 23 631<0 0>
LayerCount: 2
Fore
SplineSet
315 736 m 1xdc
 218 838 l 1
 318 838 l 1
 381 736 l 1
 315 736 l 1xdc
460 228 m 1
 215 228 l 1
 140 0 l 1
 23 0 l 1
 271 690 l 1
 413 690 l 1
 654 0 l 1
 535 0 l 1
 460 228 l 1
244 315 m 1
 431 315 l 1
 340 599 l 1xec
 244 315 l 1
EndSplineSet
Position2: "'cpsp' Capital Spacing in Latin lookup 0 subtable" dx=5 dy=0 dh=10 dv=0
EndChar

StartChar: Atilde
Encoding: 195 195 10
Width: 656
GlyphClass: 2
Flags: MW
HStem: 0 21G<23 140 23 23 535 535 535 654> 228 87<244 431 244 460 215 431> 599 91<340 340> 670 20G<271 413 413 413> 744 87<410 421> 748 87<263.5 274 222 294>
VStem: 222 52<748 756.5 748 780.5> 410 53<822.5 831>
LayerCount: 2
Fore
SplineSet
290 771 m 0xd7
 280 771 274 765 274 748 c 1
 222 748 l 1
 222 813 244 835 283 835 c 0xd7
 305 835 321 831 350 820 c 1
 374 812 386 808 394 808 c 0
 405 808 410 814 410 831 c 1
 463 831 l 1
 463 766 441 744 401 744 c 0xdb
 380 744 364 748 334 759 c 0
 310 767 299 771 290 771 c 0xd7
460 228 m 1xdb
 215 228 l 1
 140 0 l 1
 23 0 l 1
 271 690 l 1
 413 690 l 1
 654 0 l 1
 535 0 l 1
 460 228 l 1xdb
244 315 m 1
 431 315 l 1
 340 599 l 1xeb
 244 315 l 1
EndSplineSet
Position2: "'cpsp' Capital Spacing in Latin lookup 0 subtable" dx=5 dy=0 dh=10 dv=0
EndChar

StartChar: Adieresis
Encoding: 196 196 5
Width: 656
GlyphClass: 2
Flags: MW
HStem: 0 21G<23 140 23 23 535 535 535 654> 228 87<244 431 244 460 215 431> 599 91<340 340> 670 20G<271 413 413 413> 733 106<250 280 405 435>
VStem: 211 107<771 801> 366 107<771 801>
LayerCount: 2
Fore
SplineSet
265 733 m 0xde
 235 733 211 756 211 786 c 0
 211 816 235 839 265 839 c 0
 295 839 318 816 318 786 c 0
 318 756 295 733 265 733 c 0xde
420 733 m 0
 390 733 366 756 366 786 c 0
 366 816 390 839 420 839 c 0
 450 839 473 816 473 786 c 0
 473 756 450 733 420 733 c 0
460 228 m 1
 215 228 l 1
 140 0 l 1
 23 0 l 1
 271 690 l 1
 413 690 l 1
 654 0 l 1
 535 0 l 1
 460 228 l 1
244 315 m 1
 431 315 l 1
 340 599 l 1xee
 244 315 l 1
EndSplineSet
Position2: "'cpsp' Capital Spacing in Latin lookup 0 subtable" dx=5 dy=0 dh=10 dv=0
EndChar

StartChar: Aring
Encoding: 197 197 9
Width: 656
GlyphClass: 2
Flags: MW
HStem: 0 21G<23 140 23 23 535 535 535 654> 228 87<244 431 244 460 215 431> 599 91<340 340> 670 20G<271 413 413 413> 718 43<330.5 353.5 330.5 370.5> 845 44<330.5 353.5>
VStem: 244 58<791 815.5 791 828> 382 58<791 815.5>
LayerCount: 2
Fore
SplineSet
342 718 m 0xdf
 285 718 244 753 244 803 c 0
 244 853 285 889 342 889 c 0
 399 889 440 853 440 803 c 0
 440 753 399 718 342 718 c 0xdf
342 845 m 0
 319 845 302 828 302 803 c 0
 302 779 319 761 342 761 c 0
 365 761 382 779 382 803 c 0
 382 828 365 845 342 845 c 0
460 228 m 1
 215 228 l 1
 140 0 l 1
 23 0 l 1
 271 690 l 1
 413 690 l 1xd7
 654 0 l 1
 535 0 l 1
 460 228 l 1
244 315 m 1
 431 315 l 1
 340 599 l 1xe7
 244 315 l 1
EndSplineSet
Position2: "'cpsp' Capital Spacing in Latin lookup 0 subtable" dx=5 dy=0 dh=10 dv=0
EndChar

StartChar: AE
Encoding: 198 198 11
Width: 930
GlyphClass: 2
Flags: MW
HStem: 0 88<555 902 555 902> 235 88<256 428 256 434 208 428> 302 87<539 864 539 539> 603 87<517 892 517 517>
VStem: 442.5 104.5
LayerCount: 2
Fore
SplineSet
902 88 m 1xb8
 902 0 l 1
 451 0 l 1
 434 235 l 1
 208 235 l 1xd8
 81 0 l 1
 -37 0 l 1
 352 690 l 1
 892 690 l 1
 892 603 l 1
 517 603 l 1
 533 389 l 1
 864 389 l 1
 864 302 l 1
 539 302 l 1
 555 88 l 1
 902 88 l 1xb8
428 323 m 1
 407 602 l 1
 256 323 l 1
 428 323 l 1
EndSplineSet
Position2: "'cpsp' Capital Spacing in Latin lookup 0 subtable" dx=5 dy=0 dh=10 dv=0
EndChar

StartChar: Ccedilla
Encoding: 199 199 16
Width: 708
GlyphClass: 2
Flags: MW
HStem: -210 49<307.5 338 307.5 354> -81 151<283 424> -11 21G<320 320> 620 84<313 429>
VStem: 49 119<261.5 428.5 261.5 450.5> 379 70<-134 -106.5>
AnchorPoint: "Anchor-0" 354 0 basechar 0
LayerCount: 2
Fore
SplineSet
554 234 m 1xbc
 663 234 l 1
 662 224 l 2
 648 92 551 -9 379 -14 c 1
 365 -41 l 1
 420 -48 449 -76 449 -122 c 0
 449 -181 393 -210 315 -210 c 0
 296 -210 278 -208 263 -202 c 1
 263 -151 l 1
 281 -159 298 -161 317 -161 c 0
 359 -161 379 -146 379 -122 c 0
 379 -91 353 -76 283 -81 c 1xdc
 320 -11 l 1xbc
 151 11 49 149 49 342 c 0
 49 559 185 704 379 704 c 0
 559 704 653 604 667 468 c 2
 668 458 l 1
 559 458 l 1
 557 468 l 2
 538 561 481 620 377 620 c 0
 249 620 168 510 168 347 c 0
 168 176 250 70 372 70 c 0xdc
 476 70 533 131 552 224 c 2
 554 234 l 1xbc
EndSplineSet
Position2: "'cpsp' Capital Spacing in Latin lookup 0 subtable" dx=5 dy=0 dh=10 dv=0
EndChar

StartChar: Egrave
Encoding: 200 200 28
Width: 600
GlyphClass: 2
Flags: MW
HStem: 0 88<205 572 205 572> 302 87<205 534 205 534> 603 87<205 562 205 205> 736 102<310 310 310 313 213 376>
VStem: 95 110<88 302 389 603>
AnchorPoint: "Anchor-0" 311 0 basechar 0
LayerCount: 2
Fore
SplineSet
310 736 m 1
 213 838 l 1
 313 838 l 1
 376 736 l 1
 310 736 l 1
572 88 m 1
 572 0 l 1
 95 0 l 1
 95 690 l 1
 562 690 l 1
 562 603 l 1
 205 603 l 1
 205 389 l 1
 534 389 l 1
 534 302 l 1
 205 302 l 1
 205 88 l 1
 572 88 l 1
EndSplineSet
Position2: "'cpsp' Capital Spacing in Latin lookup 0 subtable" dx=5 dy=0 dh=10 dv=0
EndChar

StartChar: Edieresis
Encoding: 203 203 26
Width: 600
GlyphClass: 2
Flags: MW
HStem: 0 88<205 572 205 572> 302 87<205 534 205 534> 603 87<205 562 205 205> 733 106<245 275 400 430>
VStem: 95 110<88 302 389 603> 206 107<771 801> 361 107<771 801>
AnchorPoint: "Anchor-0" 311 0 basechar 0
LayerCount: 2
Fore
SplineSet
260 733 m 0
 230 733 206 756 206 786 c 0
 206 816 230 839 260 839 c 0
 290 839 313 816 313 786 c 0
 313 756 290 733 260 733 c 0
415 733 m 0
 385 733 361 756 361 786 c 0
 361 816 385 839 415 839 c 0
 445 839 468 816 468 786 c 0
 468 756 445 733 415 733 c 0
572 88 m 1
 572 0 l 1
 95 0 l 1
 95 690 l 1
 562 690 l 1
 562 603 l 1
 205 603 l 1
 205 389 l 1
 534 389 l 1
 534 302 l 1
 205 302 l 1
 205 88 l 1xe8
 572 88 l 1
EndSplineSet
Position2: "'cpsp' Capital Spacing in Latin lookup 0 subtable" dx=5 dy=0 dh=10 dv=0
EndChar

StartChar: Igrave
Encoding: 204 204 44
Width: 277
GlyphClass: 2
Flags: MW
HStem: 0 21G<95 205 95 95> 670 20G<95 205 205 205> 736 102<123 126 26 189 123 123>
VStem: 95 110<0 690>
LayerCount: 2
Fore
SplineSet
189 736 m 1
 123 736 l 1
 26 838 l 1
 126 838 l 1
 189 736 l 1
205 0 m 1
 95 0 l 1
 95 690 l 1
 205 690 l 1
 205 0 l 1
EndSplineSet
Position2: "'cpsp' Capital Spacing in Latin lookup 0 subtable" dx=5 dy=0 dh=10 dv=0
EndChar

StartChar: Iacute
Encoding: 205 205 40
Width: 277
GlyphClass: 2
Flags: MW
HStem: 0 21G<95 205 95 95> 670 20G<95 205 205 205> 736 102<175 178 112 275>
VStem: 95 110<0 690>
LayerCount: 2
Fore
SplineSet
178 736 m 1
 112 736 l 1
 175 838 l 1
 275 838 l 1
 178 736 l 1
205 0 m 1
 95 0 l 1
 95 690 l 1
 205 690 l 1
 205 0 l 1
EndSplineSet
Position2: "'cpsp' Capital Spacing in Latin lookup 0 subtable" dx=5 dy=0 dh=10 dv=0
EndChar

StartChar: Icircumflex
Encoding: 206 206 41
Width: 277
GlyphClass: 2
Flags: MW
HStem: 0 21G<95 205 95 95> 670 20G<95 205 205 205> 736 102<110 119 44 191 181 181 181 191 110 257>
VStem: 95 110<0 690 0 690>
LayerCount: 2
Fore
SplineSet
119 736 m 1
 44 736 l 1
 110 838 l 1
 191 838 l 1
 257 736 l 1
 181 736 l 1
 150 796 l 1
 119 736 l 1
95 690 m 1
 205 690 l 1
 205 0 l 1
 95 0 l 1
 95 690 l 1
EndSplineSet
Position2: "'cpsp' Capital Spacing in Latin lookup 0 subtable" dx=5 dy=0 dh=10 dv=0
EndChar

StartChar: Idieresis
Encoding: 207 207 42
Width: 277
GlyphClass: 2
Flags: MW
HStem: 0 21G<95 205 95 95> 670 20G<95 205 205 205> 733 106<58 88 213 243>
VStem: 19 107<771 801> 95 110<0 690> 174 107<771 801>
LayerCount: 2
Fore
SplineSet
73 839 m 0xe8
 103 839 126 816 126 786 c 0xe8
 126 756 103 733 73 733 c 0
 43 733 19 756 19 786 c 0xf0
 19 816 43 839 73 839 c 0xe8
228 839 m 0
 258 839 281 816 281 786 c 0xe4
 281 756 258 733 228 733 c 0
 198 733 174 756 174 786 c 0
 174 816 198 839 228 839 c 0
205 0 m 1
 95 0 l 1
 95 690 l 1
 205 690 l 1
 205 0 l 1
EndSplineSet
Position2: "'cpsp' Capital Spacing in Latin lookup 0 subtable" dx=5 dy=0 dh=10 dv=0
EndChar

StartChar: Eth
Encoding: 208 208 19
Width: 716
GlyphClass: 2
Flags: MW
HStem: 0 88<201 301 301 311> 302 66<33 92 33 92 201 329> 603 87<201 304 201 201>
VStem: 92 109<88 302 88 302 88 302 368 603> 563 117<276.5 425.5>
LayerCount: 2
Fore
SplineSet
402 686 m 0
 562 667 680 562 680 353 c 0
 680 147 559 24 399 4 c 0
 364 0 348 0 311 0 c 2
 92 0 l 1
 92 302 l 1
 33 302 l 1
 33 368 l 1
 92 368 l 1
 92 690 l 1
 314 690 l 2
 351 690 367 690 402 686 c 0
380 92 m 0
 490 108 563 200 563 353 c 0
 563 498 494 582 384 598 c 0
 361 602 338 603 304 603 c 2
 201 603 l 1
 201 368 l 1
 329 368 l 1
 329 302 l 1
 201 302 l 1
 201 88 l 1
 301 88 l 2
 334 88 358 88 380 92 c 0
EndSplineSet
Position2: "'cpsp' Capital Spacing in Latin lookup 0 subtable" dx=5 dy=0 dh=10 dv=0
EndChar

StartChar: Ntilde
Encoding: 209 209 62
Width: 737
GlyphClass: 2
Flags: MW
HStem: 0 21G<95 205 95 95 507 665 507 507> 0 117<559 559 559 665 507 559> 569 121<201 201> 670 20G<95 250 250 250 556 664 664 664> 744 87<447 458> 748 87<300.5 311 259 331>
VStem: 95 110<0 330 0 690> 259 52<748 756.5 748 780.5> 447 53<822.5 831> 556 108.5
AnchorPoint: "Anchor-0" 379 0 basechar 0
LayerCount: 2
Fore
SplineSet
320 835 m 0x9740
 342 835 358 831 387 820 c 1
 411 812 423 808 431 808 c 0
 442 808 447 814 447 831 c 1
 500 831 l 1
 500 766 478 744 438 744 c 0x9ac0
 417 744 401 748 371 759 c 0
 347 767 336 771 327 771 c 0
 317 771 311 765 311 748 c 1
 259 748 l 1
 259 813 281 835 320 835 c 0x9740
665 0 m 1x9a40
 507 0 l 1
 201 569 l 1xaa40
 204 490 205 401 205 330 c 2
 205 0 l 1
 95 0 l 1
 95 690 l 1
 250 690 l 1
 559 117 l 1x5a40
 557 195 556 287 556 358 c 2
 556 690 l 1
 664 690 l 1
 665 0 l 1x9a40
EndSplineSet
Position2: "'cpsp' Capital Spacing in Latin lookup 0 subtable" dx=5 dy=0 dh=10 dv=0
EndChar

StartChar: Oacute
Encoding: 211 211 64
Width: 750
GlyphClass: 2
Flags: MW
HStem: -14 84<314.5 449 314.5 487.5> 620 84<314.5 449> 736 102<407 410 344 507>
VStem: 49 118<259.5 431 259.5 452> 596 118<259.5 431>
LayerCount: 2
Fore
SplineSet
410 736 m 1
 344 736 l 1
 407 838 l 1
 507 838 l 1
 410 736 l 1
382 704 m 0
 593 704 714 559 714 345 c 0
 714 132 593 -14 382 -14 c 0
 170 -14 49 132 49 345 c 0
 49 559 170 704 382 704 c 0
382 70 m 0
 516 70 596 174 596 345 c 0
 596 517 516 620 382 620 c 0
 247 620 167 517 167 345 c 0
 167 174 247 70 382 70 c 0
EndSplineSet
Position2: "'cpsp' Capital Spacing in Latin lookup 0 subtable" dx=5 dy=0 dh=10 dv=0
EndChar

StartChar: Ocircumflex
Encoding: 212 212 65
Width: 750
GlyphClass: 2
Flags: MW
HStem: -14 84<314.5 449 314.5 487.5> 620 84<314.5 449> 736 102<342 351 276 423 413 413 413 423 342 489>
VStem: 49 118<259.5 431 259.5 452> 596 118<259.5 431>
LayerCount: 2
Fore
SplineSet
351 736 m 1
 276 736 l 1
 342 838 l 1
 423 838 l 1
 489 736 l 1
 413 736 l 1
 382 796 l 1
 351 736 l 1
382 704 m 0
 593 704 714 559 714 345 c 0
 714 132 593 -14 382 -14 c 0
 170 -14 49 132 49 345 c 0
 49 559 170 704 382 704 c 0
382 70 m 0
 516 70 596 174 596 345 c 0
 596 517 516 620 382 620 c 0
 247 620 167 517 167 345 c 0
 167 174 247 70 382 70 c 0
EndSplineSet
Position2: "'cpsp' Capital Spacing in Latin lookup 0 subtable" dx=5 dy=0 dh=10 dv=0
EndChar

StartChar: Otilde
Encoding: 213 213 71
Width: 750
GlyphClass: 2
Flags: MW
HStem: -14 84<314.5 449 314.5 487.5> 620 84<314.5 449> 744 87<450 461> 748 87<303.5 314 262 334>
VStem: 49 118<259.5 431 259.5 452> 262 52<748 756.5 748 780.5> 450 53<822.5 831> 596 118<259.5 431>
LayerCount: 2
Fore
SplineSet
330 771 m 0xdd
 320 771 314 765 314 748 c 1
 262 748 l 1
 262 813 284 835 323 835 c 0xdd
 345 835 361 831 390 820 c 1
 414 812 426 808 434 808 c 0
 445 808 450 814 450 831 c 1
 503 831 l 1
 503 766 481 744 441 744 c 0xef
 420 744 404 748 374 759 c 0
 350 767 339 771 330 771 c 0xdd
382 704 m 0
 593 704 714 559 714 345 c 0
 714 132 593 -14 382 -14 c 0
 170 -14 49 132 49 345 c 0
 49 559 170 704 382 704 c 0
382 70 m 0
 516 70 596 174 596 345 c 0
 596 517 516 620 382 620 c 0
 247 620 167 517 167 345 c 0
 167 174 247 70 382 70 c 0
EndSplineSet
Position2: "'cpsp' Capital Spacing in Latin lookup 0 subtable" dx=5 dy=0 dh=10 dv=0
EndChar

StartChar: Odieresis
Encoding: 214 214 66
Width: 750
GlyphClass: 2
Flags: MW
HStem: -14 84<314.5 449 314.5 487.5> 620 84<314.5 449> 733 106<290 320 445 475>
VStem: 49 118<259.5 431 259.5 452> 251 107<771 801> 406 107<771 801> 596 118<259.5 431>
LayerCount: 2
Fore
SplineSet
305 733 m 0
 275 733 251 756 251 786 c 0
 251 816 275 839 305 839 c 0
 335 839 358 816 358 786 c 0
 358 756 335 733 305 733 c 0
460 733 m 0
 430 733 406 756 406 786 c 0
 406 816 430 839 460 839 c 0
 490 839 513 816 513 786 c 0
 513 756 490 733 460 733 c 0
382 704 m 0xd2
 593 704 714 559 714 345 c 0
 714 132 593 -14 382 -14 c 0
 170 -14 49 132 49 345 c 0
 49 559 170 704 382 704 c 0xd2
382 70 m 0
 516 70 596 174 596 345 c 0
 596 517 516 620 382 620 c 0
 247 620 167 517 167 345 c 0
 167 174 247 70 382 70 c 0
EndSplineSet
Position2: "'cpsp' Capital Spacing in Latin lookup 0 subtable" dx=5 dy=0 dh=10 dv=0
EndChar

StartChar: multiply
Encoding: 215 215 300
Width: 601
Flags: MW
HStem: 128 380<158 158 158 442>
VStem: 110 381<176 176 176 460>
LayerCount: 2
Fore
SplineSet
349 318 m 1
 491 176 l 1
 442 128 l 1
 300 270 l 1
 158 128 l 1
 110 176 l 1
 252 318 l 1
 110 460 l 1
 158 508 l 1
 300 366 l 1
 442 508 l 1
 491 460 l 1
 349 318 l 1
EndSplineSet
EndChar

StartChar: Oslash
Encoding: 216 216 70
Width: 756
GlyphClass: 2
Flags: MW
HStem: -14 84<352 452.5 352 490.5> 620 84<317.5 418>
VStem: 52 118<317.5 431 317.5 452> 600 118<259.5 372.5>
LayerCount: 2
Fore
SplineSet
725 637 m 1
 658 570 l 1
 697 510 718 434 718 345 c 0
 718 132 596 -14 385 -14 c 0
 290 -14 212 16 156 68 c 1
 93 5 l 1
 45 53 l 1
 112 120 l 1
 73 180 52 257 52 345 c 0
 52 559 174 704 385 704 c 0
 481 704 558 674 614 622 c 1
 677 685 l 1
 725 637 l 1
170 345 m 0
 170 290 178 242 194 202 c 1
 541 549 l 1
 504 595 451 620 385 620 c 0
 250 620 170 517 170 345 c 0
600 345 m 0
 600 400 592 448 576 488 c 1
 229 141 l 1
 266 95 319 70 385 70 c 0
 520 70 600 174 600 345 c 0
EndSplineSet
Position2: "'cpsp' Capital Spacing in Latin lookup 0 subtable" dx=5 dy=0 dh=10 dv=0
EndChar

StartChar: Udieresis
Encoding: 220 220 93
Width: 691
GlyphClass: 2
Flags: MW
HStem: -14 84<308.5 408 308.5 448> 670 20G<88 197 197 197 520 629 629 629> 733 106<266 296 421 451>
VStem: 88 109<267 690> 227 107<771 801> 382 107<771 801> 520 109<265 267 267 690>
LayerCount: 2
Fore
SplineSet
281 839 m 0
 311 839 334 816 334 786 c 0
 334 756 311 733 281 733 c 0
 251 733 227 756 227 786 c 0
 227 816 251 839 281 839 c 0
436 839 m 0
 466 839 489 816 489 786 c 0
 489 756 466 733 436 733 c 0
 406 733 382 756 382 786 c 0
 382 816 406 839 436 839 c 0
629 690 m 1
 629 267 l 2
 629 242 629 222 627 196 c 0
 617 81 538 -14 358 -14 c 0
 178 -14 99 81 90 196 c 0
 88 222 88 242 88 267 c 2
 88 690 l 1
 197 690 l 1
 197 265 l 2
 197 244 197 225 199 209 c 0xf2
 206 126 259 70 358 70 c 0
 458 70 511 126 518 209 c 0
 520 225 520 244 520 265 c 2
 520 690 l 1
 629 690 l 1
EndSplineSet
Position2: "'cpsp' Capital Spacing in Latin lookup 0 subtable" dx=5 dy=0 dh=10 dv=0
EndChar

StartChar: Yacute
Encoding: 221 221 107
Width: 602
GlyphClass: 2
Flags: MW
HStem: 0 21G<262 371 262 262> 670 20G<18 143 143 143 493 615 615 615> 736 102<341 344 278 441>
VStem: 262 109<0 270 0 270>
LayerCount: 2
Fore
SplineSet
344 736 m 1
 278 736 l 1
 341 838 l 1
 441 838 l 1
 344 736 l 1
371 270 m 1
 371 0 l 1
 262 0 l 1
 262 270 l 1
 18 690 l 1
 143 690 l 1
 321 371 l 1
 493 690 l 1
 615 690 l 1
 371 270 l 1
EndSplineSet
Position2: "'cpsp' Capital Spacing in Latin lookup 0 subtable" dx=5 dy=0 dh=10 dv=0
EndChar

StartChar: Thorn
Encoding: 222 222 74
Width: 636
GlyphClass: 2
Flags: MW
HStem: 0 21G<95 205 95 95> 202 89<205 322 322 327 205 322> 513 89<205 322 205 327> 513 177<95 322 95 205>
VStem: 95 110<0 202 0 291 291 513 602 690> 481 116<367.5 436>
LayerCount: 2
Fore
SplineSet
421 598 m 0xec
 521 585 597 521 597 403 c 0
 597 285 521 219 421 206 c 0
 389 202 364 202 327 202 c 2
 205 202 l 1
 205 0 l 1
 95 0 l 1
 95 690 l 1
 205 690 l 1xdc
 205 602 l 1
 327 602 l 2
 364 602 389 602 421 598 c 0xec
392 295 m 0xdc
 440 304 481 333 481 402 c 0
 481 470 440 500 392 509 c 0
 374 512 350 513 322 513 c 2
 205 513 l 1
 205 291 l 1
 322 291 l 2
 350 291 374 292 392 295 c 0xdc
EndSplineSet
Position2: "'cpsp' Capital Spacing in Latin lookup 0 subtable" dx=5 dy=0 dh=10 dv=0
EndChar

StartChar: germandbls
Encoding: 223 223 199
Width: 623
GlyphClass: 2
Flags: MW
HStem: -4 83<373.5 410.5 370 446.5> 0 21G<69 179 69 69> 670 84<273.5 348.5>
VStem: 69 110<0 468 468 476 0 483> 325 119<381 412 381 422> 426 119<562.5 603> 467 119<132.5 171.5>
LayerCount: 2
Fore
SplineSet
313 754 m 0xb4
 458 754 545 682 545 574 c 0xb4
 545 544 537 510 515 476 c 1
 467 450 444 426 444 398 c 0xb8
 444 364 462 342 504 305 c 0
 561 256 586 218 586 145 c 0
 586 49 498 -4 395 -4 c 0
 352 -4 326 -2 287 6 c 1
 287 92 l 1
 331 81 359 79 381 79 c 0
 440 79 467 109 467 156 c 0xb2
 467 187 456 214 408 257 c 0
 349 311 325 341 325 398 c 0xb8
 325 446 350 483 409 514 c 1
 422 535 426 552 426 573 c 0
 426 633 388 670 309 670 c 0
 238 670 187 626 181 540 c 0
 180 526 179 507 179 476 c 2
 179 0 l 1
 69 0 l 1x74
 69 468 l 2
 69 498 70 524 71 542 c 0
 79 683 180 754 313 754 c 0xb4
EndSplineSet
EndChar

StartChar: acircumflex
Encoding: 226 226 118
Width: 545
GlyphClass: 2
Flags: MW
HStem: -14 80<217 231> 0 66 248 73<330 364> 465 80<237 300.5> 578 114<231 238 165 312 304 304 304 312 231 378> 643 49<271 271>
VStem: 35 116<120 188.5 120 198> 364 110<199 248 248 248 321 322>
LayerCount: 2
Fore
SplineSet
238 578 m 1xbb
 165 578 l 1
 231 692 l 1
 312 692 l 1
 378 578 l 1
 304 578 l 1x7b
 271 643 l 1xb7
 238 578 l 1xbb
375 0 m 1
 365 77 l 1x7b
 338 20 l 1
 302 -5 256 -14 206 -14 c 0xbb
 112 -14 35 40 35 139 c 0
 35 257 129 321 330 321 c 2
 364 321 l 1
 364 334 l 2
 364 354 364 372 362 392 c 0
 359 435 332 465 269 465 c 0
 205 465 172 429 166 363 c 1
 56 363 l 1
 63 479 150 545 271 545 c 0
 408 545 462 487 471 397 c 0
 473 375 474 347 474 322 c 2
 474 135 l 2
 474 95 476 59 484 0 c 1
 375 0 l 1
246 66 m 0xbb
 315 66 364 113 364 199 c 2
 364 248 l 1
 235 258 151 229 151 148 c 0
 151 92 188 66 246 66 c 0xbb
EndSplineSet
EndChar

StartChar: atilde
Encoding: 227 227 124
Width: 545
GlyphClass: 2
Flags: MW
HStem: -14 80<217 231> 0 66 248 73<330 364> 465 80<237 300.5> 590 87<339 350> 594 86<192.5 203 151 223>
VStem: 35 116<120 188.5 120 198> 151 52<594 602 594 626.5> 339 53<668.5 677> 364 110<199 248 248 248 321 322>
LayerCount: 2
Fore
SplineSet
219 616 m 0xb540
 209 616 203 610 203 594 c 1
 151 594 l 1
 151 659 173 680 212 680 c 0xb540
 234 680 250 677 279 666 c 0
 303 657 315 654 323 654 c 0
 334 654 339 660 339 677 c 1
 392 677 l 1
 392 611 370 590 330 590 c 0xba80
 309 590 293 594 263 604 c 0
 239 613 228 616 219 616 c 0xb540
375 0 m 1x7640
 365 77 l 1x7640
 338 20 l 1
 302 -5 256 -14 206 -14 c 0xb640
 112 -14 35 40 35 139 c 0
 35 257 129 321 330 321 c 2
 364 321 l 1
 364 334 l 2
 364 354 364 372 362 392 c 0
 359 435 332 465 269 465 c 0
 205 465 172 429 166 363 c 1
 56 363 l 1
 63 479 150 545 271 545 c 0
 408 545 462 487 471 397 c 0
 473 375 474 347 474 322 c 2
 474 135 l 2
 474 95 476 59 484 0 c 1
 375 0 l 1x7640
246 66 m 0xb640
 315 66 364 113 364 199 c 2
 364 248 l 1
 235 258 151 229 151 148 c 0
 151 92 188 66 246 66 c 0xb640
EndSplineSet
EndChar

StartChar: adieresis
Encoding: 228 228 119
Width: 545
GlyphClass: 2
Flags: MW
HStem: -14 80<217 231> 0 66 248 73<330 364> 465 80<237 300.5> 580 105<176 206 336 366>
VStem: 35 116<120 188.5 120 198> 138 107<617 647> 298 106<617 647> 364 110<199 248 248 248 321 322>
LayerCount: 2
Fore
SplineSet
191 580 m 0xbb
 161 580 138 602 138 632 c 0
 138 662 161 685 191 685 c 0
 221 685 245 662 245 632 c 0
 245 602 221 580 191 580 c 0xbb
351 580 m 0
 321 580 298 602 298 632 c 0
 298 662 321 685 351 685 c 0
 381 685 404 662 404 632 c 0
 404 602 381 580 351 580 c 0
375 0 m 1x7c80
 365 77 l 1x7c80
 338 20 l 1
 302 -5 256 -14 206 -14 c 0xbc80
 112 -14 35 40 35 139 c 0
 35 257 129 321 330 321 c 2
 364 321 l 1
 364 334 l 2
 364 354 364 372 362 392 c 0
 359 435 332 465 269 465 c 0
 205 465 172 429 166 363 c 1
 56 363 l 1
 63 479 150 545 271 545 c 0
 408 545 462 487 471 397 c 0
 473 375 474 347 474 322 c 2
 474 135 l 2
 474 95 476 59 484 0 c 1
 375 0 l 1x7c80
246 66 m 0xbc80
 315 66 364 113 364 199 c 2
 364 248 l 1
 235 258 151 229 151 148 c 0
 151 92 188 66 246 66 c 0xbc80
EndSplineSet
EndChar

StartChar: aring
Encoding: 229 229 123
Width: 545
GlyphClass: 2
Flags: MW
HStem: -14 80<217 231> 0 66 248 73<330 364> 465 80<237 300.5> 566 43<259.5 282.5 259.5 299.5> 702 43<259.5 282.5>
VStem: 35 116<120 188.5 120 198> 173 58<640.5 669.5 640.5 681.5> 311 58<640.5 669.5> 364 110<199 248 248 248 321 322>
LayerCount: 2
Fore
SplineSet
271 566 m 0xbf80
 214 566 173 603 173 655 c 0
 173 708 214 745 271 745 c 0
 328 745 369 708 369 655 c 0
 369 603 328 566 271 566 c 0xbf80
271 702 m 0
 248 702 231 684 231 655 c 0
 231 626 248 609 271 609 c 0
 294 609 311 626 311 655 c 0
 311 684 294 702 271 702 c 0
375 0 m 1x7640
 365 77 l 1x7640
 338 20 l 1
 302 -5 256 -14 206 -14 c 0xb640
 112 -14 35 40 35 139 c 0
 35 257 129 321 330 321 c 2
 364 321 l 1
 364 334 l 2
 364 354 364 372 362 392 c 0
 359 435 332 465 269 465 c 0
 205 465 172 429 166 363 c 1
 56 363 l 1
 63 479 150 545 271 545 c 0
 408 545 462 487 471 397 c 0
 473 375 474 347 474 322 c 2
 474 135 l 2
 474 95 476 59 484 0 c 1
 375 0 l 1x7640
246 66 m 0xb640
 315 66 364 113 364 199 c 2
 364 248 l 1
 235 258 151 229 151 148 c 0
 151 92 188 66 246 66 c 0xb640
EndSplineSet
EndChar

StartChar: ae
Encoding: 230 230 125
Width: 910
GlyphClass: 2
Flags: MW
HStem: -14 80<218.5 250 593.5 661.5> 235 77<338 378 493 761> 465 80<238.5 309.5 597.5 671.5>
VStem: 35 116<120.5 187 120.5 200.5> 378 115<210 312 235 312 312 334 312 374.5> 761 113<312 312>
LayerCount: 2
Fore
SplineSet
874 279 m 0
 874 269 873 254 871 235 c 1
 492 235 l 1
 500 114 558 66 629 66 c 0
 694 66 743 105 754 172 c 1
 866 172 l 1
 842 46 742 -14 626 -14 c 0
 537 -14 463 19 421 103 c 1
 384 41 l 1
 335 0 279 -14 221 -14 c 0
 117 -14 35 40 35 140 c 0
 35 261 139 312 338 312 c 2
 378 312 l 1
 378 334 l 2
 378 415 347 465 272 465 c 0
 205 465 169 429 166 363 c 1
 56 363 l 1
 59 479 144 545 271 545 c 0
 369 545 425 511 451 450 c 1
 492 511 556 545 639 545 c 0
 790 545 874 429 874 279 c 0
493 312 m 1
 761 312 l 1
 752 410 710 465 633 465 c 0
 557 465 505 413 493 312 c 1
378 210 m 2
 378 235 l 1
 233 241 151 225 151 149 c 0
 151 92 188 66 249 66 c 0
 322 66 378 121 378 210 c 2
EndSplineSet
EndChar

StartChar: ccedilla
Encoding: 231 231 130
Width: 544
GlyphClass: 2
Flags: MW
HStem: -210 49<221.5 252 221.5 268> -81 147<197 310.5> -11 21G<233 233> 465 80<244.5 315.5>
VStem: 29 116<199 337.5 199 353.5> 293 70<-134 -106.5>
AnchorPoint: "Anchor-0" 268 0 basechar 0
LayerCount: 2
Fore
SplineSet
279 66 m 0xdc
 342 66 387 104 403 176 c 1
 515 176 l 1
 491 56 408 -7 293 -13 c 1
 279 -41 l 1
 334 -48 363 -76 363 -122 c 0
 363 -181 307 -210 229 -210 c 0
 210 -210 192 -208 177 -202 c 1
 177 -151 l 1
 195 -159 212 -161 231 -161 c 0
 273 -161 293 -146 293 -122 c 0
 293 -91 267 -76 197 -81 c 1xdc
 233 -11 l 1xbc
 114 4 29 92 29 263 c 0
 29 444 147 545 286 545 c 0
 420 545 505 464 518 347 c 1
 407 347 l 1
 391 428 348 465 283 465 c 0
 206 465 145 404 145 271 c 0
 145 127 205 66 279 66 c 0xdc
EndSplineSet
EndChar

StartChar: eacute
Encoding: 233 233 137
Width: 562
GlyphClass: 2
Flags: MW
HStem: -14 80<246 314 246 336> 235 77<144 413 144 524 143 413> 465 80<247.5 323.5> 578 114<244 413 244 413>
VStem: 29 115<312 312 312 348> 413 113<312 312>
AnchorPoint: "Anchor-0" 276 0 basechar 0
LayerCount: 2
Fore
SplineSet
310 578 m 1
 244 578 l 1
 313 692 l 1
 413 692 l 1
 310 578 l 1
526 279 m 0
 526 269 526 254 524 235 c 1
 143 235 l 1
 152 108 210 66 282 66 c 0
 346 66 396 105 407 172 c 1
 518 172 l 1
 495 46 394 -14 278 -14 c 0
 136 -14 29 76 29 264 c 0
 29 432 136 545 289 545 c 0
 443 545 526 429 526 279 c 0
285 465 m 0
 210 465 156 414 144 312 c 1
 413 312 l 1
 405 410 362 465 285 465 c 0
EndSplineSet
EndChar

StartChar: ecircumflex
Encoding: 234 234 139
Width: 562
GlyphClass: 2
Flags: MW
HStem: -14 80<246 314 246 336> 235 77<144 413 144 524 143 413> 465 80<247.5 323.5> 578 114<243 250 177 324 316 316 316 324 243 390> 643 49<283 283>
VStem: 29 115<312 312 312 348> 413 113<312 312>
AnchorPoint: "Anchor-0" 276 0 basechar 0
LayerCount: 2
Fore
SplineSet
250 578 m 1xf6
 177 578 l 1
 243 692 l 1
 324 692 l 1
 390 578 l 1
 316 578 l 1xf6
 283 643 l 1xee
 250 578 l 1xf6
526 279 m 0
 526 269 526 254 524 235 c 1
 143 235 l 1
 152 108 210 66 282 66 c 0
 346 66 396 105 407 172 c 1
 518 172 l 1
 495 46 394 -14 278 -14 c 0
 136 -14 29 76 29 264 c 0
 29 432 136 545 289 545 c 0
 443 545 526 429 526 279 c 0
285 465 m 0
 210 465 156 414 144 312 c 1
 413 312 l 1
 405 410 362 465 285 465 c 0
EndSplineSet
EndChar

StartChar: edieresis
Encoding: 235 235 140
Width: 562
GlyphClass: 2
Flags: MW
HStem: -14 80<246 314 246 336> 235 77<144 413 144 524 143 413> 465 80<247.5 323.5> 580 105<188 218 348 378>
VStem: 29 115<312 312 312 348> 150 107<617 647> 310 106<617 647> 413 113<312 312>
AnchorPoint: "Anchor-0" 276 0 basechar 0
LayerCount: 2
Fore
SplineSet
203 580 m 0xf6
 173 580 150 602 150 632 c 0
 150 662 173 685 203 685 c 0
 233 685 257 662 257 632 c 0
 257 602 233 580 203 580 c 0xf6
363 580 m 0
 333 580 310 602 310 632 c 0
 310 662 333 685 363 685 c 0
 393 685 416 662 416 632 c 0
 416 602 393 580 363 580 c 0
526 279 m 0xe9
 526 269 526 254 524 235 c 1
 143 235 l 1
 152 108 210 66 282 66 c 0
 346 66 396 105 407 172 c 1
 518 172 l 1
 495 46 394 -14 278 -14 c 0
 136 -14 29 76 29 264 c 0
 29 432 136 545 289 545 c 0
 443 545 526 429 526 279 c 0xe9
285 465 m 0
 210 465 156 414 144 312 c 1
 413 312 l 1
 405 410 362 465 285 465 c 0
EndSplineSet
EndChar

StartChar: igrave
Encoding: 236 236 157
Width: 251
GlyphClass: 2
Flags: MW
HStem: 0 21G<69 179 69 69> 511 20G<69 179 179 179> 578 114<-3 165 -3 99>
VStem: 69 110<0 531>
LayerCount: 2
Fore
SplineSet
165 578 m 1
 99 578 l 1
 -3 692 l 1
 97 692 l 1
 165 578 l 1
179 0 m 1
 69 0 l 1
 69 531 l 1
 179 531 l 1
 179 0 l 1
EndSplineSet
EndChar

StartChar: iacute
Encoding: 237 237 154
Width: 251
GlyphClass: 2
Flags: MW
HStem: 0 21G<69 179 69 69> 511 20G<69 179 179 179> 578 114<85 254 85 254>
VStem: 69 110<0 531>
LayerCount: 2
Fore
SplineSet
151 578 m 1
 85 578 l 1
 154 692 l 1
 254 692 l 1
 151 578 l 1
179 0 m 1
 69 0 l 1
 69 531 l 1
 179 531 l 1
 179 0 l 1
EndSplineSet
EndChar

StartChar: icircumflex
Encoding: 238 238 155
Width: 251
GlyphClass: 2
Flags: MW
HStem: 0 21G<69 179 69 69> 511 20G<69 179 179 179> 578 114<84 91 18 165 157 157 157 165 84 231> 643 49<124 124>
VStem: 69 110<0 531 0 531>
LayerCount: 2
Fore
SplineSet
91 578 m 1xe8
 18 578 l 1
 84 692 l 1
 165 692 l 1
 231 578 l 1
 157 578 l 1xe8
 124 643 l 1xd8
 91 578 l 1xe8
69 531 m 1
 179 531 l 1
 179 0 l 1
 69 0 l 1
 69 531 l 1
EndSplineSet
EndChar

StartChar: idieresis
Encoding: 239 239 156
Width: 251
GlyphClass: 2
Flags: MW
HStem: 0 21G<69 179 69 69> 511 20G<69 179 179 179> 580 105<29 59 189 219>
VStem: -9 107<617 647> 69 110<0 531> 151 106<617 647>
LayerCount: 2
Fore
SplineSet
44 685 m 0xf4
 74 685 98 662 98 632 c 0
 98 602 74 580 44 580 c 0
 14 580 -9 602 -9 632 c 0
 -9 662 14 685 44 685 c 0xf4
204 685 m 0
 234 685 257 662 257 632 c 0
 257 602 234 580 204 580 c 0
 174 580 151 602 151 632 c 0
 151 662 174 685 204 685 c 0
179 0 m 1xe8
 69 0 l 1
 69 531 l 1
 179 531 l 1
 179 0 l 1xe8
EndSplineSet
EndChar

StartChar: eth
Encoding: 240 240 133
Width: 604
GlyphClass: 2
Flags: MW
HStem: -14 83<245.5 336.5 245.5 358.5> 463 82<249 298 210 330.5> 725 20G<319 319>
VStem: 29 117<204.5 325.5 204.5 350> 442 116<260 289 289 350>
LayerCount: 2
Fore
SplineSet
511 652 m 1
 469 638 l 1
 532 560 558 453 558 307 c 0
 558 72 427 -14 290 -14 c 0
 115 -14 29 102 29 260 c 0
 29 440 144 545 276 545 c 0
 320 545 350 538 387 516 c 1
 432 457 l 1
 426 516 406 565 370 604 c 1
 233 558 l 1
 215 615 l 1
 316 650 l 1
 294 664 269 676 240 687 c 1
 319 745 l 1
 358 728 392 709 421 685 c 1
 493 710 l 1
 511 652 l 1
442 260 m 2
 442 289 l 2
 442 411 367 463 294 463 c 0
 204 463 146 384 146 267 c 0
 146 142 197 69 294 69 c 0
 379 69 442 132 442 260 c 2
EndSplineSet
EndChar

StartChar: ntilde
Encoding: 241 241 176
Width: 606
GlyphClass: 2
Flags: MW
HStem: 464 81<322.5 354.5>
VStem: 69 110<0 238 443 531> 431 110<0 287 287 299 0 299.5>
AnchorPoint: "Anchor-0" 302 0 basechar 0
LayerCount: 2
Fore
SplineSet
257 616 m 0
 247 616 241 610 241 594 c 1
 189 594 l 1
 189 659 211 680 250 680 c 0
 272 680 288 677 317 666 c 0
 341 657 353 654 361 654 c 0
 372 654 377 660 377 677 c 1
 430 677 l 1
 430 611 408 590 368 590 c 0
 347 590 331 594 301 604 c 0
 277 613 266 616 257 616 c 0
538 393 m 0
 540 366 541 342 541 299 c 2
 541 0 l 1
 431 0 l 1
 431 287 l 2
 431 312 431 335 429 362 c 0
 424 422 392 464 317 464 c 0
 241 464 179 404 179 238 c 2
 179 0 l 1
 69 0 l 1
 69 531 l 1
 179 531 l 1
 179 443 l 1
 215 504 l 1
 257 536 296 545 349 545 c 0
 463 545 528 486 538 393 c 0
EndSplineSet
EndChar

StartChar: ograve
Encoding: 242 242 181
Width: 595
GlyphClass: 2
Flags: MW
HStem: -14 80<249.5 346 249.5 387> 465 80<249.5 346> 578 114<171 273 171 339>
VStem: 29 116<206 326 206 343.5> 450 117<206 326>
LayerCount: 2
Fore
SplineSet
273 578 m 1
 171 692 l 1
 271 692 l 1
 339 578 l 1
 273 578 l 1
298 545 m 0
 476 545 567 421 567 266 c 0
 567 111 476 -14 298 -14 c 0
 119 -14 29 111 29 266 c 0
 29 421 119 545 298 545 c 0
298 66 m 0
 394 66 450 146 450 266 c 0
 450 386 394 465 298 465 c 0
 201 465 145 386 145 266 c 0
 145 146 201 66 298 66 c 0
EndSplineSet
EndChar

StartChar: oacute
Encoding: 243 243 178
Width: 595
GlyphClass: 2
Flags: MW
HStem: -14 80<249.5 346 249.5 387> 465 80<249.5 346> 578 114<259 428 259 428>
VStem: 29 116<206 326 206 343.5> 450 117<206 326>
LayerCount: 2
Fore
SplineSet
325 578 m 1
 259 578 l 1
 328 692 l 1
 428 692 l 1
 325 578 l 1
298 545 m 0
 476 545 567 421 567 266 c 0
 567 111 476 -14 298 -14 c 0
 119 -14 29 111 29 266 c 0
 29 421 119 545 298 545 c 0
298 66 m 0
 394 66 450 146 450 266 c 0
 450 386 394 465 298 465 c 0
 201 465 145 386 145 266 c 0
 145 146 201 66 298 66 c 0
EndSplineSet
EndChar

StartChar: ocircumflex
Encoding: 244 244 179
Width: 595
GlyphClass: 2
Flags: MW
HStem: -14 80<249.5 346 249.5 387> 465 80<249.5 346> 578 114<258 265 192 339 331 331 331 339 258 405> 643 49<298 298>
VStem: 29 116<206 326 206 343.5> 450 117<206 326>
LayerCount: 2
Fore
SplineSet
265 578 m 1xec
 192 578 l 1
 258 692 l 1
 339 692 l 1
 405 578 l 1
 331 578 l 1xec
 298 643 l 1xdc
 265 578 l 1xec
298 545 m 0
 476 545 567 421 567 266 c 0
 567 111 476 -14 298 -14 c 0
 119 -14 29 111 29 266 c 0
 29 421 119 545 298 545 c 0
298 66 m 0
 394 66 450 146 450 266 c 0
 450 386 394 465 298 465 c 0
 201 465 145 386 145 266 c 0
 145 146 201 66 298 66 c 0
EndSplineSet
EndChar

StartChar: otilde
Encoding: 245 245 185
Width: 595
GlyphClass: 2
Flags: MW
HStem: -14 80<249.5 346 249.5 387> 465 80<249.5 346> 590 87<366 377> 594 86<219.5 230 178 250>
VStem: 29 116<206 326 206 343.5> 178 52<594 602 594 626.5> 366 53<668.5 677> 450 117<206 326>
LayerCount: 2
Fore
SplineSet
246 616 m 0xdd
 236 616 230 610 230 594 c 1
 178 594 l 1
 178 659 200 680 239 680 c 0xdd
 261 680 277 677 306 666 c 0
 330 657 342 654 350 654 c 0
 361 654 366 660 366 677 c 1
 419 677 l 1
 419 611 397 590 357 590 c 0xef
 336 590 320 594 290 604 c 0
 266 613 255 616 246 616 c 0xdd
298 545 m 0
 476 545 567 421 567 266 c 0
 567 111 476 -14 298 -14 c 0
 119 -14 29 111 29 266 c 0
 29 421 119 545 298 545 c 0
298 66 m 0
 394 66 450 146 450 266 c 0
 450 386 394 465 298 465 c 0
 201 465 145 386 145 266 c 0
 145 146 201 66 298 66 c 0
EndSplineSet
EndChar

StartChar: odieresis
Encoding: 246 246 180
Width: 595
GlyphClass: 2
Flags: MW
HStem: -14 80<249.5 346 249.5 387> 465 80<249.5 346> 580 105<203 233 363 393>
VStem: 29 116<206 326 206 343.5> 165 107<617 647> 325 106<617 647> 450 117<206 326>
LayerCount: 2
Fore
SplineSet
218 580 m 0
 188 580 165 602 165 632 c 0
 165 662 188 685 218 685 c 0
 248 685 272 662 272 632 c 0
 272 602 248 580 218 580 c 0
378 580 m 0
 348 580 325 602 325 632 c 0
 325 662 348 685 378 685 c 0
 408 685 431 662 431 632 c 0
 431 602 408 580 378 580 c 0
298 545 m 0xd2
 476 545 567 421 567 266 c 0
 567 111 476 -14 298 -14 c 0
 119 -14 29 111 29 266 c 0
 29 421 119 545 298 545 c 0xd2
298 66 m 0
 394 66 450 146 450 266 c 0
 450 386 394 465 298 465 c 0
 201 465 145 386 145 266 c 0
 145 146 201 66 298 66 c 0
EndSplineSet
EndChar

StartChar: divide
Encoding: 247 247 289
Width: 601
Flags: MW
HStem: 88 124<284.5 319.5> 286 66<82 519 82 519> 422 124<284.5 319.5>
VStem: 240 124<132.5 167.5 466.5 501.5>
LayerCount: 2
Fore
SplineSet
302 546 m 0
 337 546 364 519 364 484 c 0
 364 449 337 422 302 422 c 0
 267 422 240 449 240 484 c 0
 240 519 267 546 302 546 c 0
519 286 m 1
 82 286 l 1
 82 352 l 1
 519 352 l 1
 519 286 l 1
302 212 m 0
 337 212 364 185 364 150 c 0
 364 115 337 88 302 88 c 0
 267 88 240 115 240 150 c 0
 240 185 267 212 302 212 c 0
EndSplineSet
EndChar

StartChar: oslash
Encoding: 248 248 184
Width: 625
GlyphClass: 2
Flags: MW
HStem: -14 80<284 353.5 284 394.5> 465 80<257 328>
VStem: 36 117<248 326 248 343.5> 458 116<206 282>
LayerCount: 2
Fore
SplineSet
600 505 m 1
 529 434 l 1
 559 387 574 329 574 266 c 0
 574 111 484 -14 305 -14 c 0
 234 -14 177 6 134 39 c 1
 73 -22 l 1
 25 26 l 1
 87 88 l 1
 53 137 36 199 36 266 c 0
 36 421 127 545 305 545 c 0
 381 545 441 523 484 485 c 1
 552 553 l 1
 600 505 l 1
153 266 m 0
 153 230 158 197 168 169 c 1
 414 415 l 1
 388 447 351 465 305 465 c 0
 209 465 153 386 153 266 c 0
458 266 m 0
 458 298 454 326 446 352 c 1
 203 108 l 1
 228 81 263 66 305 66 c 0
 402 66 458 146 458 266 c 0
EndSplineSet
EndChar

StartChar: ugrave
Encoding: 249 249 209
Width: 604
GlyphClass: 2
Flags: MW
HStem: -14 82<254 278.5> 0 68 511 20G<61 170 170 170 423 532 532 532> 578 114<169 271 169 337>
VStem: 61 109<228.5 237 237 531> 423 109<0 91 91 91 281 531 0 531>
LayerCount: 2
Fore
SplineSet
271 578 m 1xbc
 169 692 l 1
 269 692 l 1
 337 578 l 1
 271 578 l 1xbc
532 531 m 1
 532 0 l 1
 423 0 l 1
 423 91 l 1x7c
 386 25 l 1
 344 -5 305 -14 252 -14 c 0
 142 -14 78 48 66 121 c 0
 62 148 61 172 61 215 c 2
 61 531 l 1
 170 531 l 1
 170 237 l 2
 170 220 171 191 174 164 c 0
 182 106 220 68 288 68 c 0
 365 68 423 127 423 281 c 2
 423 531 l 1
 532 531 l 1
EndSplineSet
EndChar

StartChar: uacute
Encoding: 250 250 206
Width: 604
GlyphClass: 2
Flags: MW
HStem: -14 82<254 278.5> 0 68 511 20G<61 170 170 170 423 532 532 532> 578 114<257 426 257 426>
VStem: 61 109<228.5 237 237 531> 423 109<0 91 91 91 281 531 0 531>
LayerCount: 2
Fore
SplineSet
323 578 m 1xbc
 257 578 l 1
 326 692 l 1
 426 692 l 1
 323 578 l 1xbc
532 531 m 1
 532 0 l 1
 423 0 l 1
 423 91 l 1x7c
 386 25 l 1
 344 -5 305 -14 252 -14 c 0
 142 -14 78 48 66 121 c 0
 62 148 61 172 61 215 c 2
 61 531 l 1
 170 531 l 1
 170 237 l 2
 170 220 171 191 174 164 c 0
 182 106 220 68 288 68 c 0
 365 68 423 127 423 281 c 2
 423 531 l 1
 532 531 l 1
EndSplineSet
EndChar

StartChar: udieresis
Encoding: 252 252 208
Width: 604
GlyphClass: 2
Flags: MW
HStem: -14 82<254 278.5> 0 68 511 20G<61 170 170 170 423 532 532 532> 580 105<201 231 361 391>
VStem: 61 109<228.5 237 237 531> 163 107<617 647> 323 106<617 647> 423 109<0 91 91 91 281 531 0 531>
LayerCount: 2
Fore
SplineSet
216 580 m 0xb6
 186 580 163 602 163 632 c 0
 163 662 186 685 216 685 c 0
 246 685 270 662 270 632 c 0
 270 602 246 580 216 580 c 0xb6
376 580 m 0
 346 580 323 602 323 632 c 0
 323 662 346 685 376 685 c 0
 406 685 429 662 429 632 c 0
 429 602 406 580 376 580 c 0
532 531 m 1xb9
 532 0 l 1
 423 0 l 1
 423 91 l 1x79
 386 25 l 1
 344 -5 305 -14 252 -14 c 0
 142 -14 78 48 66 121 c 0
 62 148 61 172 61 215 c 2
 61 531 l 1
 170 531 l 1
 170 237 l 2
 170 220 171 191 174 164 c 0
 182 106 220 68 288 68 c 0
 365 68 423 127 423 281 c 2
 423 531 l 1
 532 531 l 1xb9
EndSplineSet
EndChar

StartChar: yacute
Encoding: 253 253 222
Width: 537
GlyphClass: 2
Flags: MW
HStem: -210 83<105 124 93.5 164> 511 20G<1 124 124 124 415 534 534 534> 578 114<229 398 229 398>
VStem: 1 533<531 531>
LayerCount: 2
Fore
SplineSet
295 578 m 1
 229 578 l 1
 298 692 l 1
 398 692 l 1
 295 578 l 1
534 531 m 1
 318 -34 l 2
 269 -160 212 -210 116 -210 c 0
 94 -210 80 -210 64 -207 c 1
 64 -126 l 1
 77 -127 88 -127 99 -127 c 0
 149 -127 183 -106 207 -44 c 1
 215 -25 l 1
 1 531 l 1
 124 531 l 1
 270 82 l 1
 415 531 l 1
 534 531 l 1
EndSplineSet
EndChar

StartChar: ydieresis
Encoding: 255 255 224
Width: 537
GlyphClass: 2
Flags: MW
HStem: -210 83<105 124 93.5 164> 511 20G<1 124 124 124 415 534 534 534> 580 105<173 203 333 363>
VStem: 135 107<617 647> 295 106<617 647>
LayerCount: 2
Fore
SplineSet
188 580 m 0
 158 580 135 602 135 632 c 0
 135 662 158 685 188 685 c 0
 218 685 242 662 242 632 c 0
 242 602 218 580 188 580 c 0
348 580 m 0
 318 580 295 602 295 632 c 0
 295 662 318 685 348 685 c 0
 378 685 401 662 401 632 c 0
 401 602 378 580 348 580 c 0
534 531 m 1
 318 -34 l 2
 269 -160 212 -210 116 -210 c 0
 94 -210 80 -210 64 -207 c 1
 64 -126 l 1
 77 -127 88 -127 99 -127 c 0
 149 -127 183 -106 207 -44 c 1
 215 -25 l 1
 1 531 l 1
 124 531 l 1
 270 82 l 1
 415 531 l 1
 534 531 l 1
EndSplineSet
EndChar

StartChar: Amacron
Encoding: 256 256 7
Width: 656
GlyphClass: 2
Flags: MW
HStem: 0 21G<23 140 23 23 535 535 535 654> 228 87<244 431 244 460 215 431> 599 91<340 340> 670 20G<271 413 413 413> 758 63<215 470 215 470>
VStem: 215 255<758 821 758 821>
LayerCount: 2
Fore
SplineSet
470 758 m 1xdc
 215 758 l 1
 215 821 l 1
 470 821 l 1
 470 758 l 1xdc
460 228 m 1
 215 228 l 1
 140 0 l 1
 23 0 l 1
 271 690 l 1
 413 690 l 1
 654 0 l 1
 535 0 l 1
 460 228 l 1
244 315 m 1
 431 315 l 1
 340 599 l 1xec
 244 315 l 1
EndSplineSet
Position2: "'cpsp' Capital Spacing in Latin lookup 0 subtable" dx=5 dy=0 dh=10 dv=0
EndChar

StartChar: Abreve
Encoding: 258 258 3
Width: 656
GlyphClass: 2
Flags: MW
HStem: 0 21G<23 140 23 23 535 535 535 654> 228 87<244 431 244 460 215 431> 599 91<340 340> 670 20G<271 413 413 413> 724 62<327.5 356.5 327.5 377.5>
VStem: 232 62<799.5 838> 390 62<799.5 838>
LayerCount: 2
Fore
SplineSet
342 724 m 0xde
 270 724 232 761 232 838 c 1
 294 838 l 1
 295 803 313 786 342 786 c 0
 371 786 389 803 390 838 c 1
 452 838 l 1
 452 761 413 724 342 724 c 0xde
460 228 m 1
 215 228 l 1
 140 0 l 1
 23 0 l 1
 271 690 l 1
 413 690 l 1
 654 0 l 1
 535 0 l 1
 460 228 l 1
244 315 m 1
 431 315 l 1
 340 599 l 1xee
 244 315 l 1
EndSplineSet
Position2: "'cpsp' Capital Spacing in Latin lookup 0 subtable" dx=5 dy=0 dh=10 dv=0
EndChar

StartChar: abreve
Encoding: 259 259 117
Width: 545
GlyphClass: 2
Flags: MW
HStem: -14 80<217 231> 0 66 248 73<330 364> 465 80<237 300.5> 567 62<256.5 285.5 256.5 306.5> 567 125<161 306.5>
VStem: 35 116<120 188.5 120 198> 161 62<648.5 692> 319 62<648.5 692> 364 110<199 248 248 248 321 322>
LayerCount: 2
Fore
SplineSet
271 567 m 0xb780
 199 567 161 605 161 692 c 1
 223 692 l 1xb740
 224 646 242 629 271 629 c 0xba80
 300 629 318 646 319 692 c 1
 381 692 l 1
 381 605 342 567 271 567 c 0xb780
375 0 m 1x7240
 365 77 l 1x7240
 338 20 l 1
 302 -5 256 -14 206 -14 c 0xb240
 112 -14 35 40 35 139 c 0
 35 257 129 321 330 321 c 2
 364 321 l 1
 364 334 l 2
 364 354 364 372 362 392 c 0
 359 435 332 465 269 465 c 0
 205 465 172 429 166 363 c 1
 56 363 l 1
 63 479 150 545 271 545 c 0
 408 545 462 487 471 397 c 0
 473 375 474 347 474 322 c 2
 474 135 l 2
 474 95 476 59 484 0 c 1
 375 0 l 1x7240
246 66 m 0xb240
 315 66 364 113 364 199 c 2
 364 248 l 1
 235 258 151 229 151 148 c 0
 151 92 188 66 246 66 c 0xb240
EndSplineSet
EndChar

StartChar: Aogonek
Encoding: 260 260 8
Width: 656
GlyphClass: 2
Flags: MW
HStem: -223 66<496 582> 0 21G<23 140 23 23 611 611 611 654> 228 87<244 431 244 460 215 431> 599 91<340 340> 670 20G<271 413 413 413>
VStem: 427 102<-125.5 -102.5>
LayerCount: 2
Fore
SplineSet
529 -107 m 0xec
 529 -144 546 -157 573 -157 c 0
 591 -157 608 -151 626 -137 c 1
 626 -192 l 1
 600 -212 566 -223 525 -223 c 0
 467 -223 427 -201 427 -138 c 0
 427 -67 477 -14 532 10 c 1
 460 228 l 1
 215 228 l 1
 140 0 l 1
 23 0 l 1
 271 690 l 1
 413 690 l 1
 654 0 l 1
 611 0 l 1
 567 -7 529 -50 529 -107 c 0xec
244 315 m 1
 431 315 l 1
 340 599 l 1xf4
 244 315 l 1
EndSplineSet
Position2: "'cpsp' Capital Spacing in Latin lookup 0 subtable" dx=5 dy=0 dh=10 dv=0
EndChar

StartChar: Cacute
Encoding: 262 262 14
Width: 708
GlyphClass: 2
Flags: MW
HStem: -14 84<311 424 311 457> 620 84<313 429> 736 102<396 399 333 496>
VStem: 49 119<261.5 428.5 261.5 450.5>
AnchorPoint: "Anchor-0" 354 0 basechar 0
LayerCount: 2
Fore
SplineSet
399 736 m 1
 333 736 l 1
 396 838 l 1
 496 838 l 1
 399 736 l 1
379 704 m 0
 559 704 653 604 667 468 c 2
 668 458 l 1
 559 458 l 1
 557 468 l 2
 538 561 481 620 377 620 c 0
 249 620 168 510 168 347 c 0
 168 176 250 70 372 70 c 0
 476 70 533 131 552 224 c 2
 554 234 l 1
 663 234 l 1
 662 224 l 2
 648 89 547 -14 367 -14 c 0
 170 -14 49 132 49 342 c 0
 49 559 185 704 379 704 c 0
EndSplineSet
Position2: "'cpsp' Capital Spacing in Latin lookup 0 subtable" dx=5 dy=0 dh=10 dv=0
EndChar

StartChar: Cdotaccent
Encoding: 266 266 17
Width: 708
GlyphClass: 2
Flags: MW
HStem: -14 84<311 424 311 457> 620 84<313 429> 734 113<354.5 387.5>
VStem: 49 119<261.5 428.5 261.5 450.5> 313 116<774.5 807>
AnchorPoint: "Anchor-0" 354 0 basechar 0
LayerCount: 2
Fore
SplineSet
371 847 m 0
 404 847 429 823 429 791 c 0
 429 758 404 734 371 734 c 0
 338 734 313 758 313 791 c 0
 313 823 338 847 371 847 c 0
379 704 m 0xd0
 559 704 653 604 667 468 c 2
 668 458 l 1
 559 458 l 1
 557 468 l 2
 538 561 481 620 377 620 c 0
 249 620 168 510 168 347 c 0
 168 176 250 70 372 70 c 0
 476 70 533 131 552 224 c 2
 554 234 l 1
 663 234 l 1
 662 224 l 2
 648 89 547 -14 367 -14 c 0
 170 -14 49 132 49 342 c 0
 49 559 185 704 379 704 c 0xd0
EndSplineSet
Position2: "'cpsp' Capital Spacing in Latin lookup 0 subtable" dx=5 dy=0 dh=10 dv=0
EndChar

StartChar: cdotaccent
Encoding: 267 267 131
Width: 544
GlyphClass: 2
Flags: MW
HStem: -14 80<242 310.5 242 335.5> 465 80<244.5 315.5> 589 127<256.5 293.5>
VStem: 29 116<199 337.5 199 353.5> 211 129<634.5 671>
AnchorPoint: "Anchor-0" 268 0 basechar 0
LayerCount: 2
Fore
SplineSet
275 716 m 0
 312 716 340 689 340 653 c 0
 340 616 312 589 275 589 c 0
 238 589 211 616 211 653 c 0
 211 689 238 716 275 716 c 0
286 545 m 0
 420 545 505 464 518 347 c 1
 407 347 l 1
 391 428 348 465 283 465 c 0
 206 465 145 404 145 271 c 0
 145 127 205 66 279 66 c 0
 342 66 387 104 403 176 c 1
 515 176 l 1
 490 49 398 -14 273 -14 c 0
 134 -14 29 74 29 263 c 0
 29 444 147 545 286 545 c 0
EndSplineSet
EndChar

StartChar: dcaron
Encoding: 271 271 134
Width: 629
GlyphClass: 2
Flags: MW
HStem: -14 80<245.5 295> 0 21G<447 557 447 447> 465 80<254.5 308 217.5 333.5> 583 152<447 652 447 582> 583 153<642 652 582 723>
VStem: 29 116<208.5 332 208.5 354> 447 110<0 84 84 84 260 288 288 352.5 459 735 0 735>
LayerCount: 2
Fore
SplineSet
723 736 m 1xae
 723 724 l 1xae
 652 583 l 1
 582 583 l 1xb6
 642 736 l 1
 723 736 l 1xae
447 735 m 1xb6
 557 735 l 1
 557 0 l 1
 447 0 l 1
 447 84 l 1x76
 407 26 l 1
 377 2 322 -14 268 -14 c 0
 116 -14 29 101 29 257 c 0
 29 451 149 545 286 545 c 0
 330 545 385 533 412 512 c 1
 447 459 l 1
 447 735 l 1xb6
293 66 m 0xb6
 376 66 447 118 447 260 c 2
 447 288 l 2
 447 417 369 465 298 465 c 0
 211 465 145 398 145 266 c 0
 145 151 198 66 293 66 c 0xb6
EndSplineSet
EndChar

StartChar: dcroat
Encoding: 273 273 135
Width: 632
GlyphClass: 2
Flags: MW
HStem: -14 80<245.5 295> 0 21G<447 557 447 447> 465 80<254.5 308 217.5 333.5> 590 66<330 447 330 447 557 600> 590 145<330 557 330 557 447 600 447 557>
VStem: 29 116<208.5 332 208.5 354> 447 110<0 84 84 84 260 288 288 352.5 459 590 0 590 656 735>
LayerCount: 2
Fore
SplineSet
600 590 m 1xae
 557 590 l 1
 557 0 l 1
 447 0 l 1
 447 84 l 1x6e
 407 26 l 1
 377 2 322 -14 268 -14 c 0
 116 -14 29 101 29 257 c 0
 29 451 149 545 286 545 c 0
 330 545 385 533 412 512 c 1
 447 459 l 1
 447 590 l 1
 330 590 l 1xae
 330 656 l 1
 447 656 l 1xb6
 447 735 l 1
 557 735 l 1xae
 557 656 l 1
 600 656 l 1xb6
 600 590 l 1xae
293 66 m 0xae
 376 66 447 118 447 260 c 2
 447 288 l 2
 447 417 369 465 298 465 c 0
 211 465 145 398 145 266 c 0
 145 151 198 66 293 66 c 0xae
EndSplineSet
EndChar

StartChar: Emacron
Encoding: 274 274 29
Width: 600
GlyphClass: 2
Flags: MW
HStem: 0 88<205 572 205 572> 302 87<205 534 205 534> 603 87<205 562 205 205> 758 63<210 465 210 465>
VStem: 95 110<88 302 389 603> 210 255<758 821 758 821>
AnchorPoint: "Anchor-0" 311 0 basechar 0
LayerCount: 2
Fore
SplineSet
465 758 m 1
 210 758 l 1
 210 821 l 1
 465 821 l 1
 465 758 l 1
572 88 m 1
 572 0 l 1
 95 0 l 1
 95 690 l 1
 562 690 l 1
 562 603 l 1
 205 603 l 1
 205 389 l 1
 534 389 l 1
 534 302 l 1
 205 302 l 1
 205 88 l 1xf8
 572 88 l 1
EndSplineSet
Position2: "'cpsp' Capital Spacing in Latin lookup 0 subtable" dx=5 dy=0 dh=10 dv=0
EndChar

StartChar: emacron
Encoding: 275 275 143
Width: 562
GlyphClass: 2
Flags: MW
HStem: -14 80<246 314 246 336> 235 77<144 413 144 524 143 413> 465 80<247.5 323.5> 600 63<156 411 156 411>
VStem: 29 115<312 312 312 348> 156 255<600 663 600 663> 413 113<312 312>
AnchorPoint: "Anchor-0" 276 0 basechar 0
LayerCount: 2
Fore
SplineSet
411 600 m 1
 156 600 l 1
 156 663 l 1
 411 663 l 1
 411 600 l 1
526 279 m 0xfa
 526 269 526 254 524 235 c 1
 143 235 l 1
 152 108 210 66 282 66 c 0
 346 66 396 105 407 172 c 1
 518 172 l 1
 495 46 394 -14 278 -14 c 0
 136 -14 29 76 29 264 c 0
 29 432 136 545 289 545 c 0
 443 545 526 429 526 279 c 0xfa
285 465 m 0
 210 465 156 414 144 312 c 1
 413 312 l 1
 405 410 362 465 285 465 c 0
EndSplineSet
EndChar

StartChar: Edotaccent
Encoding: 278 278 27
Width: 600
GlyphClass: 2
Flags: MW
HStem: 0 88<205 572 205 572> 302 87<205 534 205 534> 603 87<205 562 205 205> 734 113<320.5 353.5>
VStem: 95 110<88 302 389 603> 279 116<774.5 807>
AnchorPoint: "Anchor-0" 311 0 basechar 0
LayerCount: 2
Fore
SplineSet
337 734 m 0
 304 734 279 758 279 791 c 0
 279 823 304 847 337 847 c 0
 370 847 395 823 395 791 c 0
 395 758 370 734 337 734 c 0
572 88 m 1
 572 0 l 1
 95 0 l 1
 95 690 l 1
 562 690 l 1
 562 603 l 1
 205 603 l 1
 205 389 l 1
 534 389 l 1
 534 302 l 1
 205 302 l 1
 205 88 l 1
 572 88 l 1
EndSplineSet
Position2: "'cpsp' Capital Spacing in Latin lookup 0 subtable" dx=5 dy=0 dh=10 dv=0
EndChar

StartChar: Eogonek
Encoding: 280 280 30
Width: 600
GlyphClass: 2
Flags: MW
HStem: -223 66<445 531> 0 88<205 462 560 560 560 572> 302 87<205 534 205 534> 603 87<205 562 205 205>
VStem: 95 110<88 302 389 603> 376 102<-125.5 -106.5> 462 110<0 88>
AnchorPoint: "Anchor-0" 311 0 basechar 0
LayerCount: 2
Fore
SplineSet
522 -157 m 0xfc
 540 -157 557 -151 575 -137 c 1
 575 -192 l 1
 549 -212 515 -223 474 -223 c 0
 416 -223 376 -201 376 -138 c 0xfc
 376 -75 415 -27 462 0 c 1
 95 0 l 1
 95 690 l 1
 562 690 l 1
 562 603 l 1
 205 603 l 1
 205 389 l 1
 534 389 l 1
 534 302 l 1
 205 302 l 1
 205 88 l 1
 572 88 l 1
 572 0 l 1x7a
 560 0 l 1
 516 -7 478 -50 478 -107 c 0
 478 -144 495 -157 522 -157 c 0xfc
EndSplineSet
Position2: "'cpsp' Capital Spacing in Latin lookup 0 subtable" dx=5 dy=0 dh=10 dv=0
EndChar

StartChar: eogonek
Encoding: 281 281 144
Width: 562
GlyphClass: 2
Flags: MW
HStem: -223 66<255 341> -13 79 235 77<144 413 144 524 143 413> 465 80<247.5 323.5>
VStem: 29 115<312 312 312 348> 186 102<-125.5 -111> 413 113<312 312>
AnchorPoint: "Anchor-0" 276 0 basechar 0
LayerCount: 2
Fore
SplineSet
526 279 m 0
 526 269 526 254 524 235 c 1
 143 235 l 1
 152 108 210 66 282 66 c 0
 346 66 396 105 407 172 c 1
 518 172 l 1
 501 81 444 24 370 0 c 0
 363 -2 357 -4 351 -5 c 1
 316 -20 288 -58 288 -107 c 0
 288 -144 305 -157 332 -157 c 0
 350 -157 367 -151 385 -137 c 1
 385 -192 l 1
 359 -212 325 -223 284 -223 c 0
 226 -223 186 -201 186 -138 c 0
 186 -84 215 -41 252 -13 c 1
 123 -2 29 88 29 264 c 0
 29 432 136 545 289 545 c 0
 443 545 526 429 526 279 c 0
285 465 m 0
 210 465 156 414 144 312 c 1
 413 312 l 1
 405 410 362 465 285 465 c 0
EndSplineSet
EndChar

StartChar: Ecaron
Encoding: 282 282 24
Width: 600
GlyphClass: 2
Flags: MW
HStem: 0 88<205 572 205 572> 302 87<205 534 205 534> 603 87<205 562 205 205> 736 102<297 297 297 307 369 378>
VStem: 95 110<88 302 389 603>
AnchorPoint: "Anchor-0" 311 0 basechar 0
LayerCount: 2
Fore
SplineSet
297 736 m 1
 231 838 l 1
 307 838 l 1
 338 777 l 1
 369 838 l 1
 444 838 l 1
 378 736 l 1
 297 736 l 1
572 88 m 1
 572 0 l 1
 95 0 l 1
 95 690 l 1
 562 690 l 1
 562 603 l 1
 205 603 l 1
 205 389 l 1
 534 389 l 1
 534 302 l 1
 205 302 l 1
 205 88 l 1
 572 88 l 1
EndSplineSet
Position2: "'cpsp' Capital Spacing in Latin lookup 0 subtable" dx=5 dy=0 dh=10 dv=0
EndChar

StartChar: ecaron
Encoding: 283 283 138
Width: 562
GlyphClass: 2
Flags: MW
HStem: -14 80<246 314 246 336> 235 77<144 413 144 524 143 413> 465 80<247.5 323.5> 578 114<243 243 243 251 317 324>
VStem: 29 115<312 312 312 348> 413 113<312 312>
AnchorPoint: "Anchor-0" 276 0 basechar 0
LayerCount: 2
Fore
SplineSet
243 578 m 1
 177 692 l 1
 251 692 l 1
 284 626 l 1
 317 692 l 1
 390 692 l 1
 324 578 l 1
 243 578 l 1
526 279 m 0
 526 269 526 254 524 235 c 1
 143 235 l 1
 152 108 210 66 282 66 c 0
 346 66 396 105 407 172 c 1
 518 172 l 1
 495 46 394 -14 278 -14 c 0
 136 -14 29 76 29 264 c 0
 29 432 136 545 289 545 c 0
 443 545 526 429 526 279 c 0
285 465 m 0
 210 465 156 414 144 312 c 1
 413 312 l 1
 405 410 362 465 285 465 c 0
EndSplineSet
EndChar

StartChar: Gbreve
Encoding: 286 286 33
Width: 722
GlyphClass: 2
Flags: MW
HStem: -14 84<312.5 400.5> 0 21G<571 663 571 571> 254 88<402 556 402 663> 620 84<315 431.5> 724 62<354.5 383.5 354.5 404.5>
VStem: 49 119<261.5 428.5 261.5 450.5> 259 62<799.5 838> 417 62<799.5 838> 560 110 569 94
AnchorPoint: "Anchor-0" 370 0 basechar 0
LayerCount: 2
Fore
SplineSet
369 724 m 0xbf40
 297 724 259 761 259 838 c 1
 321 838 l 1
 322 803 340 786 369 786 c 0
 398 786 416 803 417 838 c 1
 479 838 l 1
 479 761 440 724 369 724 c 0xbf40
402 342 m 1
 663 342 l 1
 663 0 l 1
 571 0 l 1x7440
 567 117 l 1
 536 50 l 1xb440
 497 8 439 -14 362 -14 c 0
 165 -14 49 132 49 342 c 0
 49 559 187 704 381 704 c 0
 562 704 656 604 670 468 c 2
 671 458 l 1
 561 458 l 1
 559 468 l 2
 541 561 484 620 379 620 c 0xb480
 251 620 168 510 168 347 c 0
 168 176 251 70 374 70 c 0
 476 70 550 143 556 254 c 1
 402 254 l 1
 402 342 l 1
EndSplineSet
Position2: "'cpsp' Capital Spacing in Latin lookup 0 subtable" dx=5 dy=0 dh=10 dv=0
EndChar

StartChar: gbreve
Encoding: 287 287 147
Width: 629
GlyphClass: 2
Flags: MW
HStem: -213 83<250 339 250 370> -9 80<245.5 298> 465 80<254.5 308 217.5 333.5> 511 20G<447 557 557 557> 567 62<295.5 324.5 295.5 345.5> 567 125<200 345.5>
VStem: 29 116<211.5 335 211.5 356> 45 108<-35 -34> 200 62<648.5 692> 358 62<648.5 692> 447 110<78 132 89 132 265 288 288 352.5 459 531>
LayerCount: 2
Fore
SplineSet
310 567 m 0xe6e0
 238 567 200 605 200 692 c 1
 262 692 l 1xe6a0
 263 646 281 629 310 629 c 0xeae0
 339 629 357 646 358 692 c 1
 420 692 l 1
 420 605 381 567 310 567 c 0xe6e0
557 531 m 1xd2a0
 557 132 l 2
 557 99 557 58 556 29 c 0
 550 -132 450 -213 290 -213 c 0
 137 -213 56 -149 45 -35 c 2
 44 -25 l 1
 152 -25 l 1
 153 -34 l 2xe1a0
 160 -91 209 -130 291 -130 c 0
 387 -130 442 -78 446 17 c 0
 447 40 447 59 447 78 c 2
 447 89 l 1
 407 31 l 1
 377 7 325 -9 271 -9 c 0
 118 -9 29 103 29 259 c 0
 29 453 149 545 286 545 c 0
 330 545 385 533 412 512 c 1
 447 459 l 1xe2a0
 447 531 l 1
 557 531 l 1xd2a0
293 71 m 0
 376 71 447 123 447 265 c 2
 447 288 l 2
 447 417 369 465 298 465 c 0
 211 465 145 401 145 269 c 0xe2a0
 145 154 198 71 293 71 c 0
EndSplineSet
EndChar

StartChar: Gdotaccent
Encoding: 288 288 35
Width: 722
GlyphClass: 2
Flags: MW
HStem: -14 84<312.5 400.5> 0 21G<571 663 571 571> 254 88<402 556 402 663> 620 84<315 431.5> 734 113<352.5 385.5>
VStem: 49 119<261.5 428.5 261.5 450.5> 311 116<774.5 807> 560 110 569 94
AnchorPoint: "Anchor-0" 370 0 basechar 0
LayerCount: 2
Fore
SplineSet
369 734 m 0xbe80
 336 734 311 758 311 791 c 0
 311 823 336 847 369 847 c 0
 402 847 427 823 427 791 c 0
 427 758 402 734 369 734 c 0xbe80
402 342 m 1
 663 342 l 1
 663 0 l 1
 571 0 l 1x7480
 567 117 l 1
 536 50 l 1xb480
 497 8 439 -14 362 -14 c 0
 165 -14 49 132 49 342 c 0
 49 559 187 704 381 704 c 0
 562 704 656 604 670 468 c 2
 671 458 l 1
 561 458 l 1
 559 468 l 2
 541 561 484 620 379 620 c 0xb5
 251 620 168 510 168 347 c 0
 168 176 251 70 374 70 c 0
 476 70 550 143 556 254 c 1
 402 254 l 1
 402 342 l 1
EndSplineSet
Position2: "'cpsp' Capital Spacing in Latin lookup 0 subtable" dx=5 dy=0 dh=10 dv=0
EndChar

StartChar: gdotaccent
Encoding: 289 289 149
Width: 629
GlyphClass: 2
Flags: MW
HStem: -213 83<250 339 250 370> -9 80<245.5 298> 465 80<254.5 308 217.5 333.5> 511 20G<447 557 557 557> 589 127<291.5 328.5>
VStem: 29 116<211.5 335 211.5 356> 45 108<-35 -34> 246 129<634.5 671> 447 110<78 132 89 132 265 288 288 352.5 459 531>
LayerCount: 2
Fore
SplineSet
310 589 m 0xed80
 273 589 246 616 246 653 c 0
 246 689 273 716 310 716 c 0
 347 716 375 689 375 653 c 0
 375 616 347 589 310 589 c 0xed80
557 531 m 1xdd80
 557 132 l 2
 557 99 557 58 556 29 c 0
 550 -132 450 -213 290 -213 c 0
 137 -213 56 -149 45 -35 c 2
 44 -25 l 1
 152 -25 l 1
 153 -34 l 2xeb80
 160 -91 209 -130 291 -130 c 0
 387 -130 442 -78 446 17 c 0
 447 40 447 59 447 78 c 2
 447 89 l 1
 407 31 l 1
 377 7 325 -9 271 -9 c 0
 118 -9 29 103 29 259 c 0
 29 453 149 545 286 545 c 0
 330 545 385 533 412 512 c 1
 447 459 l 1xed80
 447 531 l 1
 557 531 l 1xdd80
293 71 m 0
 376 71 447 123 447 265 c 2
 447 288 l 2
 447 417 369 465 298 465 c 0
 211 465 145 401 145 269 c 0xed80
 145 154 198 71 293 71 c 0
EndSplineSet
EndChar

StartChar: Gcommaaccent
Encoding: 290 290 34
Width: 722
GlyphClass: 2
Flags: MW
HStem: -200 152<341 351 281 422> -14 84<312.5 400.5> 0 21G<571 663 571 571> 254 88<402 556 402 663> 620 84<315 431.5>
VStem: 49 119<261.5 428.5 261.5 450.5> 560 110 569 94
AnchorPoint: "Anchor-0" 370 0 basechar 0
LayerCount: 2
Fore
SplineSet
402 342 m 1x5d
 663 342 l 1
 663 0 l 1
 571 0 l 1xbd
 567 117 l 1
 536 50 l 1x5d
 497 8 439 -14 362 -14 c 0
 165 -14 49 132 49 342 c 0
 49 559 187 704 381 704 c 0
 562 704 656 604 670 468 c 2
 671 458 l 1
 561 458 l 1
 559 468 l 2x5e
 541 561 484 620 379 620 c 0
 251 620 168 510 168 347 c 0
 168 176 251 70 374 70 c 0
 476 70 550 143 556 254 c 1
 402 254 l 1
 402 342 l 1x5d
341 -48 m 1
 422 -48 l 1
 422 -59 l 1
 351 -200 l 1
 281 -200 l 1
 341 -48 l 1
EndSplineSet
Position2: "'cpsp' Capital Spacing in Latin lookup 0 subtable" dx=5 dy=0 dh=10 dv=0
EndChar

StartChar: Hbar
Encoding: 294 294 37
Width: 740
GlyphClass: 2
Flags: MW
HStem: 0 21G<95 205 95 95 559 668 559 559> 294 89<205 559 205 559> 497 66<55 95 55 95 205 559 668 708> 497 193<55 205 55 205 95 205 95 559>
VStem: 95 110<0 294 0 383 383 497 563 690> 559 109<0 294 294 294 383 497 0 497 563 690>
LayerCount: 2
Fore
SplineSet
708 497 m 1xec
 668 497 l 1
 668 0 l 1
 559 0 l 1
 559 294 l 1
 205 294 l 1
 205 0 l 1
 95 0 l 1
 95 497 l 1
 55 497 l 1
 55 563 l 1
 95 563 l 1xec
 95 690 l 1
 205 690 l 1xdc
 205 563 l 1
 559 563 l 1xec
 559 690 l 1
 668 690 l 1xdc
 668 563 l 1
 708 563 l 1
 708 497 l 1xec
559 497 m 1
 205 497 l 1
 205 383 l 1
 559 383 l 1
 559 497 l 1
EndSplineSet
Position2: "'cpsp' Capital Spacing in Latin lookup 0 subtable" dx=5 dy=0 dh=10 dv=0
EndChar

StartChar: hbar
Encoding: 295 295 151
Width: 621
GlyphClass: 2
Flags: MW
HStem: 0 21G<84 194 84 84 446 556 446 446> 464 81 590 66<29 84 29 84 194 299> 590 150<29 194 29 194 84 194 84 299>
VStem: 84 110<0 238 443 590 656 740> 446 110<0 287 287 299 0 299.5>
LayerCount: 2
Fore
SplineSet
553 393 m 0xdc
 555 366 556 342 556 299 c 2
 556 0 l 1
 446 0 l 1
 446 287 l 2
 446 312 446 335 444 362 c 0
 439 422 407 465 332 464 c 0
 256 462 194 404 194 238 c 2
 194 0 l 1
 84 0 l 1
 84 590 l 1
 29 590 l 1xdc
 29 656 l 1
 84 656 l 1xec
 84 740 l 1
 194 740 l 1xdc
 194 656 l 1
 299 656 l 1xec
 299 590 l 1
 194 590 l 1
 194 443 l 1
 230 504 l 1
 272 536 311 545 364 545 c 0
 478 545 543 486 553 393 c 0xdc
EndSplineSet
EndChar

StartChar: Imacron
Encoding: 298 298 45
Width: 277
GlyphClass: 2
Flags: MW
HStem: 0 21G<95 205 95 95> 670 20G<95 205 205 205> 758 63<23 278 23 278>
VStem: 95 110<0 690>
LayerCount: 2
Fore
SplineSet
278 758 m 1
 23 758 l 1
 23 821 l 1
 278 821 l 1
 278 758 l 1
205 0 m 1
 95 0 l 1
 95 690 l 1
 205 690 l 1
 205 0 l 1
EndSplineSet
Position2: "'cpsp' Capital Spacing in Latin lookup 0 subtable" dx=5 dy=0 dh=10 dv=0
EndChar

StartChar: imacron
Encoding: 299 299 159
Width: 251
GlyphClass: 2
Flags: MW
HStem: 0 21G<69 179 69 69> 511 20G<69 179 179 179> 600 63<-4 252 -4 252>
VStem: 69 110<0 531>
LayerCount: 2
Fore
SplineSet
252 600 m 1
 -4 600 l 1
 -4 663 l 1
 252 663 l 1
 252 600 l 1
179 0 m 1
 69 0 l 1
 69 531 l 1
 179 531 l 1
 179 0 l 1
EndSplineSet
EndChar

StartChar: Iogonek
Encoding: 302 302 46
Width: 277
GlyphClass: 2
Flags: MW
HStem: -223 66<57 143> 0 21G<172 205 172 172> 670 20G<95 205 205 205>
VStem: -12 102<-125.5 -102> 95 110<10 690>
LayerCount: 2
Fore
SplineSet
205 0 m 1
 172 0 l 1
 128 -7 90 -50 90 -107 c 0
 90 -144 107 -157 134 -157 c 0xf0
 152 -157 169 -151 187 -137 c 1
 187 -192 l 1xe8
 161 -212 127 -223 86 -223 c 0
 28 -223 -12 -201 -12 -138 c 0xf0
 -12 -66 39 -13 94 10 c 1
 95 10 l 1
 95 690 l 1
 205 690 l 1
 205 0 l 1
EndSplineSet
Position2: "'cpsp' Capital Spacing in Latin lookup 0 subtable" dx=5 dy=0 dh=10 dv=0
EndChar

StartChar: iogonek
Encoding: 303 303 160
Width: 251
GlyphClass: 2
Flags: MW
HStem: -223 66<32 118> 0 21G<147 179 147 147> 511 20G<69 179 179 179> 589 127<105.5 142.5>
VStem: -37 102<-125.5 -102> 60 129<634.5 671> 69 110<10 531 0 531>
LayerCount: 2
Fore
SplineSet
124 589 m 0xf4
 87 589 60 616 60 653 c 0
 60 689 87 716 124 716 c 0
 161 716 189 689 189 653 c 0
 189 616 161 589 124 589 c 0xf4
69 531 m 1xf2
 179 531 l 1
 179 0 l 1xf2
 147 0 l 1
 103 -7 65 -50 65 -107 c 0
 65 -144 82 -157 109 -157 c 0xf8
 127 -157 144 -151 162 -137 c 1
 162 -192 l 1xf2
 136 -212 102 -223 61 -223 c 0
 3 -223 -37 -201 -37 -138 c 0xf8
 -37 -66 14 -13 69 10 c 1
 69 531 l 1xf2
EndSplineSet
EndChar

StartChar: Idotaccent
Encoding: 304 304 43
Width: 277
GlyphClass: 2
Flags: MW
HStem: 0 21G<95 205 95 95> 670 20G<95 205 205 205> 734 113<133.5 166.5>
VStem: 95 110<0 690>
LayerCount: 2
Fore
SplineSet
150 847 m 0
 183 847 208 823 208 791 c 0
 208 758 183 734 150 734 c 0
 117 734 92 758 92 791 c 0
 92 823 117 847 150 847 c 0
205 0 m 1
 95 0 l 1
 95 690 l 1
 205 690 l 1
 205 0 l 1
EndSplineSet
Position2: "'cpsp' Capital Spacing in Latin lookup 0 subtable" dx=5 dy=0 dh=10 dv=0
EndChar

StartChar: dotlessi
Encoding: 305 305 153
Width: 251
GlyphClass: 2
Flags: MW
HStem: 0 21G<69 179 69 69> 511 20G<69 179 179 179>
VStem: 69 110<0 531>
LayerCount: 2
Fore
SplineSet
179 0 m 1
 69 0 l 1
 69 531 l 1
 179 531 l 1
 179 0 l 1
EndSplineSet
EndChar

StartChar: IJ
Encoding: 306 306 39
Width: 844
GlyphClass: 2
Flags: MW
HStem: -14 84<527 600.5 527 631> 0 21G<95 205 95 95> 670 20G<95 205 205 205 680 790 790 790>
VStem: 95 110<0 690> 330.5 110.5 680 110<268 273 273 690>
LayerCount: 2
Fore
SplineSet
205 0 m 1x74
 95 0 l 1
 95 690 l 1
 205 690 l 1
 205 0 l 1x74
790 690 m 1
 790 273 l 2
 790 245 790 223 787 184 c 0
 780 67 708 -14 554 -14 c 0
 411 -14 335 70 331 204 c 2
 330 242 l 1
 440 242 l 1
 442 204 l 2
 447 110 490 70 564 70 c 0xbc
 637 70 673 116 679 191 c 0
 680 212 680 236 680 268 c 2
 680 690 l 1
 790 690 l 1
EndSplineSet
Position2: "'cpsp' Capital Spacing in Latin lookup 0 subtable" dx=5 dy=0 dh=10 dv=0
EndChar

StartChar: ij
Encoding: 307 307 158
Width: 496
GlyphClass: 2
Flags: MW
HStem: -210 85<229 325> 0 21G<69 179 69 69> 511 20G<69 179 179 179 316 425 425 425> 589 127<105.5 142.5 351 390.5>
VStem: 60 129<634.5 671> 69 110<0 531> 306 129<633.5 672> 316 109<-34 -31 -31 531>
LayerCount: 2
Fore
SplineSet
124 716 m 0xfa
 161 716 189 689 189 653 c 0
 189 616 161 589 124 589 c 0
 87 589 60 616 60 653 c 0
 60 689 87 716 124 716 c 0xfa
371 716 m 0
 410 716 435 691 435 653 c 0
 435 614 410 589 371 589 c 0
 331 589 306 614 306 653 c 0
 306 691 331 716 371 716 c 0
179 0 m 1xf5
 69 0 l 1
 69 531 l 1
 179 531 l 1
 179 0 l 1xf5
425 531 m 1
 425 -31 l 2
 425 -51 424 -77 423 -95 c 0
 416 -168 375 -210 275 -210 c 0
 257 -210 243 -210 229 -208 c 1
 229 -125 l 1
 286 -130 310 -115 314 -79 c 0
 316 -65 316 -49 316 -34 c 2
 316 531 l 1
 425 531 l 1
EndSplineSet
EndChar

StartChar: kcommaaccent
Encoding: 311 311 163
Width: 550
GlyphClass: 2
Flags: MW
HStem: -200 152<252 262 192 333> 0 21G<69 179 69 69 406 549 406 406> 511 20G<411 546 546 546> 715 20G<69 179 179 179>
VStem: 69 110<0 166 0 275 275 735>
AnchorPoint: "Anchor-0" 285 0 basechar 0
LayerCount: 2
Fore
SplineSet
549 0 m 1
 406 0 l 1
 226 218 l 1
 179 166 l 1
 179 0 l 1
 69 0 l 1
 69 735 l 1
 179 735 l 1
 179 275 l 1
 411 531 l 1
 546 531 l 1
 304 282 l 1
 549 0 l 1
252 -48 m 1
 333 -48 l 1
 333 -59 l 1
 262 -200 l 1
 192 -200 l 1
 252 -48 l 1
EndSplineSet
EndChar

StartChar: Lacute
Encoding: 313 313 51
Width: 588
GlyphClass: 2
Flags: MW
HStem: 0 91<205 572 205 572> 670 20G<95 205 205 205> 736 102<175 178 112 275>
VStem: 95 110<91 690 91 690 91 690>
AnchorPoint: "Anchor-0" 332 0 basechar 0
LayerCount: 2
Fore
SplineSet
178 736 m 1
 112 736 l 1
 175 838 l 1
 275 838 l 1
 178 736 l 1
572 91 m 1
 572 0 l 1
 95 0 l 1
 95 690 l 1
 205 690 l 1
 205 91 l 1
 572 91 l 1
EndSplineSet
Position2: "'cpsp' Capital Spacing in Latin lookup 0 subtable" dx=5 dy=0 dh=10 dv=0
EndChar

StartChar: Lcommaaccent
Encoding: 315 315 53
Width: 588
GlyphClass: 2
Flags: MW
HStem: -200 152<303 313 243 384> 0 91<205 572 205 572> 670 20G<95 205 205 205>
VStem: 95 110<91 690 91 690 91 690>
AnchorPoint: "Anchor-0" 332 0 basechar 0
LayerCount: 2
Fore
SplineSet
572 91 m 1
 572 0 l 1
 95 0 l 1
 95 690 l 1
 205 690 l 1
 205 91 l 1
 572 91 l 1
303 -48 m 1
 384 -48 l 1
 384 -59 l 1
 313 -200 l 1
 243 -200 l 1
 303 -48 l 1
EndSplineSet
Position2: "'cpsp' Capital Spacing in Latin lookup 0 subtable" dx=5 dy=0 dh=10 dv=0
EndChar

StartChar: lcommaaccent
Encoding: 316 316 167
Width: 262
GlyphClass: 2
Flags: MW
HStem: -200 152<99 109 39 180> -6 82<138 239> -1 21G<239 239> 715 20G<65 175 175 175>
VStem: 65 110<159 162 162 735>
AnchorPoint: "Anchor-0" 133 0 basechar 0
LayerCount: 2
Fore
SplineSet
175 735 m 1xb8
 175 162 l 2
 175 144 175 128 176 112 c 0
 178 82 192 72 239 76 c 1
 239 -1 l 1
 217 -4 192 -6 167 -6 c 0
 109 -6 70 15 66 83 c 0xd8
 65 103 65 127 65 159 c 2
 65 735 l 1
 175 735 l 1xb8
180 -59 m 1
 109 -200 l 1
 39 -200 l 1
 99 -48 l 1
 180 -48 l 1
 180 -59 l 1
EndSplineSet
EndChar

StartChar: Ldot
Encoding: 319 319 54
Width: 588
GlyphClass: 2
Flags: MW
HStem: 0 91<205 572 205 572> 334 132<388 425.5> 670 20G<95 205 205 205>
VStem: 95 110<91 690 91 690 91 690> 340 133<381.5 419>
AnchorPoint: "Anchor-0" 332 0 basechar 0
LayerCount: 2
Fore
SplineSet
572 91 m 1
 572 0 l 1
 95 0 l 1
 95 690 l 1
 205 690 l 1
 205 91 l 1
 572 91 l 1
407 334 m 0
 369 334 340 363 340 400 c 0
 340 438 369 466 407 466 c 0
 444 466 473 438 473 400 c 0
 473 363 444 334 407 334 c 0
EndSplineSet
Ligature2: "Ligature Substitution lookup 5 subtable" L periodcentered
Position2: "'cpsp' Capital Spacing in Latin lookup 0 subtable" dx=5 dy=0 dh=10 dv=0
EndChar

StartChar: ldot
Encoding: 320 320 168
Width: 383
GlyphClass: 2
Flags: MW
HStem: -6 82<138 239> -1 21G<239 239> 337 126<287.5 324.5> 715 20G<65 175 175 175>
VStem: 65 110<159 162 162 735> 241 129<382 418>
AnchorPoint: "Anchor-0" 133 0 basechar 0
LayerCount: 2
Fore
SplineSet
175 735 m 1x78
 175 162 l 2
 175 144 175 128 176 112 c 0
 178 82 192 72 239 76 c 1
 239 -1 l 1
 217 -4 192 -6 167 -6 c 0
 109 -6 70 15 66 83 c 0xbc
 65 103 65 127 65 159 c 2
 65 735 l 1
 175 735 l 1x78
306 463 m 0
 343 463 370 436 370 400 c 0
 370 364 343 337 306 337 c 0
 269 337 241 364 241 400 c 0
 241 436 269 463 306 463 c 0
EndSplineSet
Ligature2: "Ligature Substitution lookup 5 subtable" l periodcentered
EndChar

StartChar: Lslash
Encoding: 321 321 55
Width: 615
GlyphClass: 2
Flags: MW
HStem: 0 91<231 598 231 598> 670 20G<122 231 231 231>
VStem: 122 109<91 287 287 287 428 690>
AnchorPoint: "Anchor-0" 359 0 basechar 0
LayerCount: 2
Fore
SplineSet
598 91 m 1
 598 0 l 1
 122 0 l 1
 122 287 l 1
 17 227 l 1
 17 305 l 1
 122 365 l 1
 122 690 l 1
 231 690 l 1
 231 428 l 1
 347 495 l 1
 347 417 l 1
 231 350 l 1
 231 91 l 1
 598 91 l 1
EndSplineSet
Position2: "'cpsp' Capital Spacing in Latin lookup 0 subtable" dx=5 dy=0 dh=10 dv=0
EndChar

StartChar: lslash
Encoding: 322 322 169
Width: 297
GlyphClass: 2
Flags: MW
HStem: -6 82<164 265> 715 20G<91 200 200 200>
VStem: 91 109<159 162 162 250 250 250 395 735>
AnchorPoint: "Anchor-0" 159 0 basechar 0
LayerCount: 2
Fore
SplineSet
202 112 m 0
 204 82 218 72 265 76 c 1
 265 -1 l 1
 243 -4 218 -6 193 -6 c 0
 135 -6 95 15 92 83 c 0
 91 103 91 127 91 159 c 2
 91 250 l 1
 27 211 l 1
 27 291 l 1
 91 330 l 1
 91 735 l 1
 200 735 l 1
 200 395 l 1
 264 434 l 1
 264 354 l 1
 200 315 l 1
 200 162 l 2
 200 144 200 128 202 112 c 0
EndSplineSet
EndChar

StartChar: Ncommaaccent
Encoding: 325 325 60
Width: 737
GlyphClass: 2
Flags: MW
HStem: -200 152<350 360 290 431> 0 21G<95 205 95 95 507 665 507 507> 0 117<559 559 559 665 507 559> 569 121<201 201> 670 20G<95 250 250 250 556 664 664 664>
VStem: 95 110<0 330 0 690> 556 108.5
AnchorPoint: "Anchor-0" 379 0 basechar 0
LayerCount: 2
Fore
SplineSet
665 0 m 1xce
 507 0 l 1
 201 569 l 1xd6
 204 490 205 401 205 330 c 2
 205 0 l 1
 95 0 l 1
 95 690 l 1
 250 690 l 1
 559 117 l 1xae
 557 195 556 287 556 358 c 2
 556 690 l 1
 664 690 l 1
 665 0 l 1xce
431 -59 m 1
 360 -200 l 1
 290 -200 l 1
 350 -48 l 1
 431 -48 l 1
 431 -59 l 1
EndSplineSet
Position2: "'cpsp' Capital Spacing in Latin lookup 0 subtable" dx=5 dy=0 dh=10 dv=0
EndChar

StartChar: Ncaron
Encoding: 327 327 59
Width: 737
GlyphClass: 2
Flags: MW
HStem: 0 21G<95 205 95 95 507 665 507 507> 0 117<559 559 559 665 507 559> 569 121<201 201> 670 20G<95 250 250 250 556 664 664 664> 736 102<339 339 339 349 411 420>
VStem: 95 110<0 330 0 690> 556 108.5
AnchorPoint: "Anchor-0" 379 0 basechar 0
LayerCount: 2
Fore
SplineSet
339 736 m 1x9e
 273 838 l 1
 349 838 l 1
 380 777 l 1
 411 838 l 1
 486 838 l 1
 420 736 l 1
 339 736 l 1x9e
507 0 m 1
 201 569 l 1xae
 204 490 205 401 205 330 c 2
 205 0 l 1
 95 0 l 1
 95 690 l 1
 250 690 l 1
 559 117 l 1x5e
 557 195 556 287 556 358 c 2
 556 690 l 1
 664 690 l 1
 665 0 l 1
 507 0 l 1
EndSplineSet
Position2: "'cpsp' Capital Spacing in Latin lookup 0 subtable" dx=5 dy=0 dh=10 dv=0
EndChar

StartChar: Eng
Encoding: 330 330 61
Width: 737
GlyphClass: 2
Flags: MW
HStem: -223 85<483 538> 0 21G<95 205 95 95> 563 127<201 201> 670 20G<95 250 250 250 556 665 665 665>
VStem: 95 110<0 330 0 690> 556 109<383 690>
LayerCount: 2
Fore
SplineSet
665 690 m 1xdc
 665 -65 l 2
 665 -83 665 -92 664 -106 c 0
 655 -194 593 -223 483 -223 c 1
 483 -138 l 1
 538 -136 555 -113 555 -71 c 2
 555 -28 l 1
 201 563 l 1xec
 204 484 205 401 205 330 c 2
 205 0 l 1
 95 0 l 1
 95 690 l 1
 250 690 l 1
 559 157 l 1
 557 235 556 312 556 383 c 2
 556 690 l 1
 665 690 l 1xdc
EndSplineSet
Position2: "'cpsp' Capital Spacing in Latin lookup 0 subtable" dx=5 dy=0 dh=10 dv=0
EndChar

StartChar: eng
Encoding: 331 331 175
Width: 606
GlyphClass: 2
Flags: W
LayerCount: 2
Fore
SplineSet
538 393 m 0
 540 366 541 342 541 299 c 2
 541 -49 l 2
 541 -67 541 -76 540 -90 c 0
 532 -183 475 -210 352 -210 c 1
 352 -125 l 1
 403 -125 426 -114 430 -74 c 0
 431 -66 431 -56 431 -46 c 2
 431 287 l 2
 431 312 431 335 429 362 c 0
 424 422 392 464 317 464 c 0
 241 464 179 404 179 238 c 2
 179 0 l 1
 69 0 l 1
 69 531 l 1
 179 531 l 1
 179 443 l 1
 215 504 l 1
 257 536 296 545 349 545 c 0
 463 545 528 486 538 393 c 0
EndSplineSet
EndChar

StartChar: Omacron
Encoding: 332 332 69
Width: 750
GlyphClass: 2
Flags: MW
HStem: -14 84<314.5 449 314.5 487.5> 620 84<314.5 449> 758 63<255 510 255 510>
VStem: 49 118<259.5 431 259.5 452> 255 255<758 821 758 821> 596 118<259.5 431>
LayerCount: 2
Fore
SplineSet
510 758 m 1
 255 758 l 1
 255 821 l 1
 510 821 l 1
 510 758 l 1
382 704 m 0
 593 704 714 559 714 345 c 0
 714 132 593 -14 382 -14 c 0
 170 -14 49 132 49 345 c 0
 49 559 170 704 382 704 c 0
382 70 m 0
 516 70 596 174 596 345 c 0
 596 517 516 620 382 620 c 0
 247 620 167 517 167 345 c 0
 167 174 247 70 382 70 c 0
EndSplineSet
Position2: "'cpsp' Capital Spacing in Latin lookup 0 subtable" dx=5 dy=0 dh=10 dv=0
EndChar

StartChar: omacron
Encoding: 333 333 183
Width: 595
GlyphClass: 2
Flags: MW
HStem: -14 80<249.5 346 249.5 387> 465 80<249.5 346> 600 63<171 426 171 426>
VStem: 29 116<206 326 206 343.5> 171 255<600 663 600 663> 450 117<206 326>
LayerCount: 2
Fore
SplineSet
426 600 m 1
 171 600 l 1
 171 663 l 1
 426 663 l 1
 426 600 l 1
298 545 m 0xf4
 476 545 567 421 567 266 c 0
 567 111 476 -14 298 -14 c 0
 119 -14 29 111 29 266 c 0
 29 421 119 545 298 545 c 0xf4
298 66 m 0
 394 66 450 146 450 266 c 0
 450 386 394 465 298 465 c 0
 201 465 145 386 145 266 c 0
 145 146 201 66 298 66 c 0
EndSplineSet
EndChar

StartChar: OE
Encoding: 338 338 72
Width: 1101
GlyphClass: 2
Flags: MW
HStem: -14 84<314.5 408.5> 0 88<706 1073 706 1073> 302 87<706 1035 706 1035> 603 87<706 1063 706 706> 620 84<314.5 413 267 449>
VStem: 49 118<262.5 428.5 262.5 448> 596 110<88 129 129 129 262.5 302 389 428.5 559 603>
LayerCount: 2
Fore
SplineSet
1073 88 m 1x76
 1073 0 l 1
 596 0 l 1x76
 596 129 l 1
 568 60 l 1
 516 6 453 -14 364 -14 c 0
 170 -14 49 140 49 345 c 0
 49 551 170 704 364 704 c 0
 462 704 516 684 568 628 c 1xae
 596 559 l 1
 596 690 l 1
 1063 690 l 1
 1063 603 l 1
 706 603 l 1
 706 389 l 1
 1035 389 l 1
 1035 302 l 1
 706 302 l 1
 706 88 l 1
 1073 88 l 1x76
382 70 m 0xae
 516 70 596 180 596 345 c 0
 596 512 516 620 382 620 c 0
 247 620 167 512 167 345 c 0
 167 180 247 70 382 70 c 0xae
EndSplineSet
Position2: "'cpsp' Capital Spacing in Latin lookup 0 subtable" dx=5 dy=0 dh=10 dv=0
EndChar

StartChar: oe
Encoding: 339 339 186
Width: 984
GlyphClass: 2
Flags: MW
HStem: -14 80<249.5 345 667.5 735.5> 235 77<567 835 567 945 566 835> 465 80<249.5 346 670 745.5>
VStem: 29 116<206 326 206 343.5> 450 117<312 312 312 326> 835 113<312 312>
LayerCount: 2
Fore
SplineSet
948 279 m 0
 948 269 947 254 945 235 c 1
 566 235 l 1
 574 114 632 66 703 66 c 0
 768 66 817 105 828 172 c 1
 940 172 l 1
 916 46 816 -14 701 -14 c 0
 620 -14 549 19 505 103 c 1
 462 23 392 -14 298 -14 c 0
 119 -14 29 111 29 266 c 0
 29 421 119 545 298 545 c 0
 394 545 466 506 509 424 c 1
 555 509 627 545 713 545 c 0
 864 545 948 429 948 279 c 0
298 66 m 0
 394 66 450 146 450 266 c 0
 450 386 394 465 298 465 c 0
 201 465 145 386 145 266 c 0
 145 146 201 66 298 66 c 0
567 312 m 1
 835 312 l 1
 826 410 784 465 707 465 c 0
 631 465 579 413 567 312 c 1
EndSplineSet
EndChar

StartChar: racute
Encoding: 341 341 191
Width: 353
GlyphClass: 2
Flags: MW
HStem: 0 21G<69 179 69 69> 511 20G<69 179 179 179> 518 20G<343 343> 524 20G<292.5 313.5> 578 114<152 321 152 321>
VStem: 69 110<0 276 441 531>
AnchorPoint: "Anchor-0" 124 0 basechar 0
LayerCount: 2
Fore
SplineSet
218 578 m 1x9c
 152 578 l 1
 221 692 l 1
 321 692 l 1
 218 578 l 1x9c
306 544 m 0
 321 544 332 542 343 538 c 1
 343 452 l 1xac
 242 459 179 407 179 276 c 2
 179 0 l 1
 69 0 l 1
 69 531 l 1
 179 531 l 1
 179 441 l 1xcc
 224 514 l 1
 248 533 279 544 306 544 c 0
EndSplineSet
EndChar

StartChar: Rcommaaccent
Encoding: 342 342 79
Width: 635
GlyphClass: 2
Flags: MW
HStem: -200 152<297 307 237 378> 0 21G<95 205 95 95 497 618 497 497> 288 85<205 312 205 320> 603 87<205 327 205 205>
VStem: 95 110<0 288 373 603> 487 116<457 524.5>
AnchorPoint: "Anchor-0" 326 0 basechar 0
LayerCount: 2
Fore
SplineSet
570 178 m 0
 578 91 590 38 618 0 c 1
 497 0 l 1
 479 45 470 88 462 164 c 1
 453 237 426 283 363 287 c 0
 346 288 329 288 312 288 c 2
 205 288 l 1
 205 0 l 1
 95 0 l 1
 95 690 l 1
 333 690 l 2
 370 690 395 690 428 686 c 0
 528 673 603 620 603 502 c 0
 603 412 548 359 475 337 c 1
 537 310 563 250 570 178 c 0
205 373 m 1
 320 373 l 2
 348 373 365 373 382 375 c 0
 442 381 487 415 487 488 c 0
 487 561 450 591 391 599 c 0
 373 602 355 603 327 603 c 2
 205 603 l 1
 205 373 l 1
297 -48 m 1
 378 -48 l 1
 378 -59 l 1
 307 -200 l 1
 237 -200 l 1
 297 -48 l 1
EndSplineSet
Position2: "'cpsp' Capital Spacing in Latin lookup 0 subtable" dx=5 dy=0 dh=10 dv=0
EndChar

StartChar: rcommaaccent
Encoding: 343 343 193
Width: 353
GlyphClass: 2
Flags: MW
HStem: -200 152<90 100 30 171> 0 21G<69 179 69 69> 511 20G<69 179 179 179> 518 20G<343 343> 524 20G<292.5 313.5>
VStem: 69 110<0 276 441 531>
AnchorPoint: "Anchor-0" 124 0 basechar 0
LayerCount: 2
Fore
SplineSet
306 544 m 0xcc
 321 544 332 542 343 538 c 1
 343 452 l 1xd4
 242 459 179 407 179 276 c 2
 179 0 l 1
 69 0 l 1
 69 531 l 1
 179 531 l 1
 179 441 l 1xe4
 224 514 l 1
 248 533 279 544 306 544 c 0xcc
90 -48 m 1
 171 -48 l 1
 171 -59 l 1
 100 -200 l 1
 30 -200 l 1
 90 -48 l 1
EndSplineSet
EndChar

StartChar: rcaron
Encoding: 345 345 192
Width: 353
GlyphClass: 2
Flags: MW
HStem: 0 21G<69 179 69 69> 511 20G<69 179 179 179> 518 20G<343 343> 524 20G<292.5 313.5> 578 114<151 151 151 159 225 232>
VStem: 69 110<0 276 441 531>
AnchorPoint: "Anchor-0" 124 0 basechar 0
LayerCount: 2
Fore
SplineSet
151 578 m 1x9c
 85 692 l 1
 159 692 l 1
 192 626 l 1
 225 692 l 1
 298 692 l 1
 232 578 l 1
 151 578 l 1x9c
306 544 m 0
 321 544 332 542 343 538 c 1
 343 452 l 1xac
 242 459 179 407 179 276 c 2
 179 0 l 1
 69 0 l 1
 69 531 l 1
 179 531 l 1
 179 441 l 1xcc
 224 514 l 1
 248 533 279 544 306 544 c 0
EndSplineSet
EndChar

StartChar: Sacute
Encoding: 346 346 81
Width: 595
GlyphClass: 2
Flags: MW
HStem: -14 84<280.5 357 280.5 388> 620 84<277.5 350> 736 102<335 338 272 435>
VStem: 78 116<491.5 557.5 491.5 568> 450 116<140.5 208>
AnchorPoint: "Anchor-0" 306 0 basechar 0
LayerCount: 2
Fore
SplineSet
338 736 m 1
 272 736 l 1
 335 838 l 1
 435 838 l 1
 338 736 l 1
316 704 m 0
 469 704 544 614 558 494 c 1
 444 494 l 1
 436 573 390 620 310 620 c 0
 245 620 194 590 194 525 c 0
 194 458 235 427 342 402 c 0
 494 367 566 302 566 187 c 0
 566 62 455 -14 321 -14 c 0
 163 -14 62 61 48 200 c 1
 162 200 l 1
 180 115 240 70 321 70 c 0
 393 70 450 109 450 172 c 0
 450 244 408 281 296 307 c 0
 165 338 78 387 78 507 c 0
 78 629 187 704 316 704 c 0
EndSplineSet
Position2: "'cpsp' Capital Spacing in Latin lookup 0 subtable" dx=5 dy=0 dh=10 dv=0
EndChar

StartChar: Scedilla
Encoding: 350 350 83
Width: 595
GlyphClass: 2
Flags: MW
HStem: -210 49<259.5 290 259.5 306> -81 151<235 357> -11 21G<271 271> 620 84<277.5 350>
VStem: 78 116<491.5 557.5 491.5 568> 331 70<-134 -106.5> 450 116<140.5 208>
AnchorPoint: "Anchor-0" 306 0 basechar 0
LayerCount: 2
Fore
SplineSet
566 187 m 0xbe
 566 65 460 -10 331 -14 c 1
 317 -41 l 1
 372 -48 401 -76 401 -122 c 0
 401 -181 345 -210 267 -210 c 0
 248 -210 230 -208 215 -202 c 1
 215 -151 l 1
 233 -159 250 -161 269 -161 c 0
 311 -161 331 -146 331 -122 c 0
 331 -91 305 -76 235 -81 c 1xde
 271 -11 l 1xbe
 142 3 60 76 48 200 c 1
 162 200 l 1
 180 115 240 70 321 70 c 0xde
 393 70 450 109 450 172 c 0
 450 244 408 281 296 307 c 0
 165 338 78 387 78 507 c 0
 78 629 187 704 316 704 c 0
 469 704 544 614 558 494 c 1
 444 494 l 1
 436 573 390 620 310 620 c 0
 245 620 194 590 194 525 c 0
 194 458 235 427 342 402 c 0
 494 367 566 302 566 187 c 0xbe
EndSplineSet
Substitution2: "'locl' Localized Forms in Latin lookup 2 subtable" Scommaaccent
Substitution2: "'locl' Localized Forms in Latin lookup 1 subtable" Scommaaccent
Substitution2: "'aalt' Access All Alternates in Latin lookup 0 subtable" Scommaaccent
Position2: "'cpsp' Capital Spacing in Latin lookup 0 subtable" dx=5 dy=0 dh=10 dv=0
EndChar

StartChar: scedilla
Encoding: 351 351 197
Width: 476
GlyphClass: 2
Flags: MW
HStem: -13 77<212 272.5 272 272> 468 77<206 259>
VStem: 23 111<159 159> 44 111<375 419 375 435.5> 330 112<379 379> 339 111<109 155>
AnchorPoint: "Anchor-0" 247 0 basechar 0
LayerCount: 2
Fore
SplineSet
450 140 m 0
 450 46 374 -5 272 -13 c 1
 258 -41 l 1
 313 -48 342 -76 342 -122 c 0
 342 -181 286 -210 208 -210 c 0
 189 -210 171 -208 156 -202 c 1
 156 -151 l 1
 174 -159 191 -161 210 -161 c 0
 252 -161 272 -146 272 -122 c 0
 272 -91 246 -76 176 -81 c 1
 212 -13 l 1
 110 -4 37 50 23 159 c 1
 134 159 l 1
 147 91 192 64 247 64 c 0
 298 64 339 86 339 132 c 0
 339 178 303 203 213 227 c 0
 116 252 44 293 44 386 c 0
 44 485 122 545 240 545 c 0
 362 545 430 476 442 379 c 1
 330 379 l 1
 319 435 286 468 232 468 c 0
 180 468 155 439 155 399 c 0
 155 351 194 331 273 310 c 0
 389 280 450 234 450 140 c 0
EndSplineSet
Substitution2: "'locl' Localized Forms in Latin lookup 2 subtable" scommaaccent
Substitution2: "'locl' Localized Forms in Latin lookup 1 subtable" scommaaccent
Substitution2: "'aalt' Access All Alternates in Latin lookup 0 subtable" scommaaccent
EndChar

StartChar: Scaron
Encoding: 352 352 82
Width: 595
GlyphClass: 2
Flags: MW
HStem: -14 84<280.5 357 280.5 388> 620 84<277.5 350> 736 102<270 270 270 280 342 351>
VStem: 78 116<491.5 557.5 491.5 568> 450 116<140.5 208>
AnchorPoint: "Anchor-0" 306 0 basechar 0
LayerCount: 2
Fore
SplineSet
270 736 m 1
 204 838 l 1
 280 838 l 1
 311 777 l 1
 342 838 l 1
 417 838 l 1
 351 736 l 1
 270 736 l 1
342 402 m 0
 494 367 566 302 566 187 c 0
 566 62 455 -14 321 -14 c 0
 163 -14 62 61 48 200 c 1
 162 200 l 1
 180 115 240 70 321 70 c 0
 393 70 450 109 450 172 c 0
 450 244 408 281 296 307 c 0
 165 338 78 387 78 507 c 0
 78 629 187 704 316 704 c 0
 469 704 544 614 558 494 c 1
 444 494 l 1
 436 573 390 620 310 620 c 0
 245 620 194 590 194 525 c 0
 194 458 235 427 342 402 c 0
EndSplineSet
Position2: "'cpsp' Capital Spacing in Latin lookup 0 subtable" dx=5 dy=0 dh=10 dv=0
EndChar

StartChar: Tcedilla
Encoding: 354 354 88
Width: 617
GlyphClass: 2
Flags: MW
HStem: -210 49<277.5 308 277.5 324> 0 21G<270 295 270 270 356 379 356 356> 603 87<29 270 29 620 379 379 379 620>
VStem: 270 109<0 603 0 603> 349 70<-134 -106.5>
AnchorPoint: "Anchor-0" 324 0 basechar 0
LayerCount: 2
Fore
SplineSet
356 0 m 1xf0
 335 -41 l 1
 390 -48 419 -76 419 -122 c 0
 419 -181 363 -210 285 -210 c 0
 266 -210 248 -208 233 -202 c 1
 233 -151 l 1
 251 -159 268 -161 287 -161 c 0
 329 -161 349 -146 349 -122 c 0
 349 -91 323 -76 253 -81 c 1
 295 0 l 1xe8
 270 0 l 1
 270 603 l 1
 29 603 l 1
 29 690 l 1
 620 690 l 1
 620 603 l 1
 379 603 l 1
 379 0 l 1
 356 0 l 1xf0
EndSplineSet
Substitution2: "'locl' Localized Forms in Latin lookup 2 subtable" uni021A
Substitution2: "'locl' Localized Forms in Latin lookup 1 subtable" uni021A
Substitution2: "'aalt' Access All Alternates in Latin lookup 0 subtable" uni021A
Position2: "'cpsp' Capital Spacing in Latin lookup 0 subtable" dx=5 dy=0 dh=10 dv=0
EndChar

StartChar: tcedilla
Encoding: 355 355 203
Width: 335
GlyphClass: 2
Flags: MW
HStem: -210 49<140.5 171 140.5 187> -10 82<214 297> -3 21G<157 157> 450 77<16 91 16 91 200 304>
VStem: 91 109<163 172 172 450 527 654> 212 70<-134 -106.5>
AnchorPoint: "Anchor-0" 187 0 basechar 0
LayerCount: 2
Fore
SplineSet
200 450 m 1xd8
 200 172 l 2
 200 154 200 142 201 128 c 0
 205 76 225 65 297 72 c 1
 297 -4 l 1
 269 -8 243 -10 216 -10 c 2
 214 -10 l 1xd8
 198 -41 l 1xdc
 253 -48 282 -76 282 -122 c 0
 282 -181 226 -210 148 -210 c 0
 129 -210 111 -208 96 -202 c 1
 96 -151 l 1
 114 -159 131 -161 150 -161 c 0
 192 -161 212 -146 212 -122 c 0
 212 -91 186 -76 116 -81 c 1
 157 -3 l 1xbc
 115 10 96 41 92 91 c 0xb8
 91 109 91 132 91 162 c 2
 91 450 l 1
 16 450 l 1
 16 527 l 1
 91 527 l 1
 91 654 l 1
 200 654 l 1
 200 527 l 1
 304 527 l 1
 304 450 l 1
 200 450 l 1xd8
EndSplineSet
Substitution2: "'locl' Localized Forms in Latin lookup 2 subtable" uni021B
Substitution2: "'locl' Localized Forms in Latin lookup 1 subtable" uni021B
Substitution2: "'aalt' Access All Alternates in Latin lookup 0 subtable" uni021B
EndChar

StartChar: tcaron
Encoding: 357 357 202
Width: 326
GlyphClass: 2
Flags: MW
HStem: -10 82<174.5 297> 450 77<16 91 16 91 200 304> 582 72<91 305 91 235> 582 153<295 305 235 376>
VStem: 91 109<163 172 172 450 527 654>
AnchorPoint: "Anchor-0" 187 0 basechar 0
LayerCount: 2
Fore
SplineSet
376 735 m 1xd8
 376 724 l 1
 305 582 l 1
 235 582 l 1
 295 735 l 1
 376 735 l 1xd8
200 527 m 1
 304 527 l 1
 304 450 l 1
 200 450 l 1
 200 172 l 2
 200 154 200 142 201 128 c 0
 205 76 225 65 297 72 c 1
 297 -4 l 1
 269 -8 243 -10 216 -10 c 0
 133 -10 97 21 92 91 c 0
 91 109 91 132 91 162 c 2
 91 450 l 1
 16 450 l 1
 16 527 l 1
 91 527 l 1
 91 654 l 1
 200 654 l 1xe8
 200 527 l 1
EndSplineSet
EndChar

StartChar: Tbar
Encoding: 358 358 86
Width: 617
GlyphClass: 2
Flags: MW
HStem: 0 21G<270 379 270 270> 302 66<163 270 163 270 379 486> 603 87<29 270 29 620 379 620 379 379>
VStem: 270 109<0 302 0 302 368 603>
AnchorPoint: "Anchor-0" 324 0 basechar 0
LayerCount: 2
Fore
SplineSet
379 603 m 1
 379 368 l 1
 486 368 l 1
 486 302 l 1
 379 302 l 1
 379 0 l 1
 270 0 l 1
 270 302 l 1
 163 302 l 1
 163 368 l 1
 270 368 l 1
 270 603 l 1
 29 603 l 1
 29 690 l 1
 620 690 l 1
 620 603 l 1
 379 603 l 1
EndSplineSet
Position2: "'cpsp' Capital Spacing in Latin lookup 0 subtable" dx=5 dy=0 dh=10 dv=0
EndChar

StartChar: tbar
Encoding: 359 359 201
Width: 335
GlyphClass: 2
Flags: MW
HStem: -10 82<174.5 297> 284 63<25 91 25 91 200 280> 450 77<16 91 16 91 200 304>
VStem: 91 109<163 172 172 284 347 450 527 654>
AnchorPoint: "Anchor-0" 187 0 basechar 0
LayerCount: 2
Fore
SplineSet
200 450 m 1
 200 347 l 1
 280 347 l 1
 280 284 l 1
 200 284 l 1
 200 172 l 2
 200 154 200 142 201 128 c 0
 205 76 225 65 297 72 c 1
 297 -4 l 1
 269 -8 243 -10 216 -10 c 0
 133 -10 97 21 92 91 c 0
 91 109 91 132 91 162 c 2
 91 284 l 1
 25 284 l 1
 25 347 l 1
 91 347 l 1
 91 450 l 1
 16 450 l 1
 16 527 l 1
 91 527 l 1
 91 654 l 1
 200 654 l 1
 200 527 l 1
 304 527 l 1
 304 450 l 1
 200 450 l 1
EndSplineSet
EndChar

StartChar: Umacron
Encoding: 362 362 96
Width: 691
GlyphClass: 2
Flags: MW
HStem: -14 84<308.5 408 308.5 448> 670 20G<88 197 197 197 520 629 629 629> 758 63<231 486 231 486>
VStem: 88 109<267 690> 231 255<758 821 758 821> 520 109<265 267 267 690>
LayerCount: 2
Fore
SplineSet
486 758 m 1
 231 758 l 1
 231 821 l 1
 486 821 l 1
 486 758 l 1
629 690 m 1
 629 267 l 2
 629 242 629 222 627 196 c 0
 617 81 538 -14 358 -14 c 0
 178 -14 99 81 90 196 c 0
 88 222 88 242 88 267 c 2
 88 690 l 1
 197 690 l 1
 197 265 l 2
 197 244 197 225 199 209 c 0
 206 126 259 70 358 70 c 0
 458 70 511 126 518 209 c 0
 520 225 520 244 520 265 c 2
 520 690 l 1
 629 690 l 1
EndSplineSet
Position2: "'cpsp' Capital Spacing in Latin lookup 0 subtable" dx=5 dy=0 dh=10 dv=0
EndChar

StartChar: umacron
Encoding: 363 363 211
Width: 604
GlyphClass: 2
Flags: MW
HStem: -14 82<254 278.5> 0 68 511 20G<61 170 170 170 423 532 532 532> 600 63<169 424 169 424>
VStem: 61 109<228.5 237 237 531> 169 255<600 663 600 663> 423 109<0 91 91 91 281 531 0 531>
LayerCount: 2
Fore
SplineSet
424 600 m 1xb4
 169 600 l 1
 169 663 l 1
 424 663 l 1
 424 600 l 1xb4
532 531 m 1xba
 532 0 l 1
 423 0 l 1
 423 91 l 1x7a
 386 25 l 1
 344 -5 305 -14 252 -14 c 0
 142 -14 78 48 66 121 c 0
 62 148 61 172 61 215 c 2
 61 531 l 1
 170 531 l 1
 170 237 l 2
 170 220 171 191 174 164 c 0
 182 106 220 68 288 68 c 0
 365 68 423 127 423 281 c 2
 423 531 l 1
 532 531 l 1xba
EndSplineSet
EndChar

StartChar: Uring
Encoding: 366 366 98
Width: 691
GlyphClass: 2
Flags: MW
HStem: -14 84<308.5 408 308.5 448> 670 20G<88 197 197 197 520 629 629 629> 718 43<346.5 369.5 346.5 386.5> 845 44<346.5 369.5>
VStem: 88 109<267 690> 260 58<791 815.5 791 828> 398 58<791 815.5> 520 109<265 267 267 690>
LayerCount: 2
Fore
SplineSet
358 889 m 0
 415 889 456 853 456 803 c 0
 456 753 415 718 358 718 c 0xff
 301 718 260 753 260 803 c 0
 260 853 301 889 358 889 c 0
358 845 m 0
 335 845 318 828 318 803 c 0
 318 779 335 761 358 761 c 0xff
 381 761 398 779 398 803 c 0
 398 828 381 845 358 845 c 0
629 690 m 1
 629 267 l 2
 629 242 629 222 627 196 c 0
 617 81 538 -14 358 -14 c 0
 178 -14 99 81 90 196 c 0
 88 222 88 242 88 267 c 2
 88 690 l 1
 197 690 l 1
 197 265 l 2
 197 244 197 225 199 209 c 0
 206 126 259 70 358 70 c 0
 458 70 511 126 518 209 c 0
 520 225 520 244 520 265 c 2
 520 690 l 1
 629 690 l 1
EndSplineSet
Position2: "'cpsp' Capital Spacing in Latin lookup 0 subtable" dx=5 dy=0 dh=10 dv=0
EndChar

StartChar: uring
Encoding: 367 367 213
Width: 604
GlyphClass: 2
Flags: MW
HStem: -14 82<254 278.5> 0 68 511 20G<61 170 170 170 423 532 532 532> 566 43<284.5 307.5 284.5 324.5> 702 43<284.5 307.5>
VStem: 61 109<228.5 237 237 531> 198 58<640.5 669.5 640.5 681.5> 336 58<640.5 669.5> 423 109<0 91 91 91 281 531 0 531>
LayerCount: 2
Fore
SplineSet
296 566 m 0xbf80
 239 566 198 603 198 655 c 0
 198 708 239 745 296 745 c 0
 353 745 394 708 394 655 c 0
 394 603 353 566 296 566 c 0xbf80
296 702 m 0
 273 702 256 684 256 655 c 0
 256 626 273 609 296 609 c 0
 319 609 336 626 336 655 c 0
 336 684 319 702 296 702 c 0
532 531 m 1xbc80
 532 0 l 1
 423 0 l 1
 423 91 l 1x7c80
 386 25 l 1
 344 -5 305 -14 252 -14 c 0
 142 -14 78 48 66 121 c 0
 62 148 61 172 61 215 c 2
 61 531 l 1
 170 531 l 1
 170 237 l 2
 170 220 171 191 174 164 c 0
 182 106 220 68 288 68 c 0
 365 68 423 127 423 281 c 2
 423 531 l 1
 532 531 l 1xbc80
EndSplineSet
EndChar

StartChar: Uogonek
Encoding: 370 370 97
Width: 691
GlyphClass: 2
Flags: MW
HStem: -223 66<351 437> -14 84 670 20G<88 197 197 197 520 629 629 629>
VStem: 88 109<267 690> 282 102<-125.5 -111.5> 520 109<265 267 267 690>
LayerCount: 2
Fore
SplineSet
629 690 m 1
 629 267 l 2
 629 242 629 222 627 196 c 0
 619 103 566 23 450 -4 c 1
 413 -18 384 -57 384 -107 c 0
 384 -144 401 -157 428 -157 c 0
 446 -157 463 -151 481 -137 c 1
 481 -192 l 1
 455 -212 421 -223 380 -223 c 0
 322 -223 282 -201 282 -138 c 0
 282 -85 310 -42 347 -14 c 1
 175 -10 99 83 90 196 c 0
 88 222 88 242 88 267 c 2
 88 690 l 1
 197 690 l 1
 197 265 l 2
 197 244 197 225 199 209 c 0
 206 126 259 70 358 70 c 0
 458 70 511 126 518 209 c 0
 520 225 520 244 520 265 c 2
 520 690 l 1
 629 690 l 1
EndSplineSet
Position2: "'cpsp' Capital Spacing in Latin lookup 0 subtable" dx=5 dy=0 dh=10 dv=0
EndChar

StartChar: uogonek
Encoding: 371 371 212
Width: 604
GlyphClass: 2
Flags: MW
HStem: -223 66<386 472> -14 82<254 278.5> 0 21G<501 532 501 501> 511 20G<61 170 170 170 423 532 532 532>
VStem: 61 109<228.5 237 237 531> 317 102<-125.5 -102> 423 109<10 91 91 91 281 531>
LayerCount: 2
Fore
SplineSet
532 0 m 1xba
 501 0 l 1
 457 -7 419 -50 419 -107 c 0
 419 -144 436 -157 463 -157 c 0xbc
 481 -157 498 -151 516 -137 c 1
 516 -192 l 1xda
 490 -212 456 -223 415 -223 c 0
 357 -223 317 -201 317 -138 c 0xdc
 317 -66 368 -13 423 10 c 1
 423 91 l 1
 386 25 l 1
 344 -5 305 -14 252 -14 c 0
 142 -14 78 48 66 121 c 0
 62 148 61 172 61 215 c 2
 61 531 l 1
 170 531 l 1
 170 237 l 2
 170 220 171 191 174 164 c 0
 182 106 220 68 288 68 c 0xda
 365 68 423 127 423 281 c 2
 423 531 l 1
 532 531 l 1
 532 0 l 1xba
EndSplineSet
EndChar

StartChar: Wcircumflex
Encoding: 372 372 102
Width: 968
GlyphClass: 2
Flags: MW
HStem: 0 21G<204 350 204 204 633 778 633 633> 0 88<712 712 712 778 633 712> 588 92<495 495> 670 20G<26 147 147 147 852 966 966 966> 736 102<457 466 391 538 528 528 528 538 457 604>
VStem: 26 940<690 690>
LayerCount: 2
Fore
SplineSet
466 736 m 1x9c
 391 736 l 1
 457 838 l 1
 538 838 l 1
 604 736 l 1
 528 736 l 1
 497 796 l 1
 466 736 l 1x9c
966 690 m 1
 778 0 l 1
 633 0 l 1
 495 588 l 1xac
 350 0 l 1
 204 0 l 1
 26 690 l 1
 147 690 l 1x9c
 279 91 l 1
 422 680 l 1
 573 680 l 1
 712 88 l 1x6c
 852 690 l 1
 966 690 l 1
EndSplineSet
Position2: "'cpsp' Capital Spacing in Latin lookup 0 subtable" dx=5 dy=0 dh=10 dv=0
EndChar

StartChar: wcircumflex
Encoding: 373 373 217
Width: 806
GlyphClass: 2
Flags: MW
HStem: 0 21G<170 297 170 170 508 634 508 508> 0 97<577 577 577 634 508 577> 429 101<403 403> 510 20G<337 471 471 471> 511 20G<1 125 125 125 686 803 803 803> 578 114<364 371 298 445 437 437 437 445 364 511> 643 49<404 404>
VStem: 1 802<531 531>
LayerCount: 2
Fore
SplineSet
371 578 m 1x8d
 298 578 l 1
 364 692 l 1
 445 692 l 1
 511 578 l 1
 437 578 l 1x4d
 404 643 l 1x8b
 371 578 l 1x8d
803 531 m 1
 634 0 l 1
 508 0 l 1
 403 429 l 1xa5
 297 0 l 1
 170 0 l 1
 1 531 l 1
 125 531 l 1x8d
 234 98 l 1
 337 530 l 1
 471 530 l 1x55
 577 97 l 1
 686 531 l 1
 803 531 l 1
EndSplineSet
EndChar

StartChar: Ycircumflex
Encoding: 374 374 108
Width: 602
GlyphClass: 2
Flags: MW
HStem: 0 21G<262 371 262 262> 670 20G<18 143 143 143 493 615 615 615> 736 102<276 285 210 357 347 347 347 357 276 423>
VStem: 262 109<0 270 0 270>
LayerCount: 2
Fore
SplineSet
285 736 m 1
 210 736 l 1
 276 838 l 1
 357 838 l 1
 423 736 l 1
 347 736 l 1
 316 796 l 1
 285 736 l 1
371 270 m 1
 371 0 l 1
 262 0 l 1
 262 270 l 1
 18 690 l 1
 143 690 l 1
 321 371 l 1
 493 690 l 1
 615 690 l 1
 371 270 l 1
EndSplineSet
Position2: "'cpsp' Capital Spacing in Latin lookup 0 subtable" dx=5 dy=0 dh=10 dv=0
EndChar

StartChar: ycircumflex
Encoding: 375 375 223
Width: 537
GlyphClass: 2
Flags: MW
HStem: -210 83<105 124 93.5 164> 511 20G<1 124 124 124 415 534 534 534> 578 114<228 235 162 309 301 301 301 309 228 375> 643 49<268 268>
VStem: 1 533<531 531>
LayerCount: 2
Fore
SplineSet
235 578 m 1xe8
 162 578 l 1
 228 692 l 1
 309 692 l 1
 375 578 l 1
 301 578 l 1xe8
 268 643 l 1xd8
 235 578 l 1xe8
534 531 m 1
 318 -34 l 2
 269 -160 212 -210 116 -210 c 0
 94 -210 80 -210 64 -207 c 1
 64 -126 l 1
 77 -127 88 -127 99 -127 c 0
 149 -127 183 -106 207 -44 c 1
 215 -25 l 1
 1 531 l 1
 124 531 l 1
 270 82 l 1
 415 531 l 1
 534 531 l 1
EndSplineSet
EndChar

StartChar: Ydieresis
Encoding: 376 376 109
Width: 602
GlyphClass: 2
Flags: MW
HStem: 0 21G<262 371 262 262> 670 20G<18 143 143 143 493 615 615 615> 733 106<224 254 379 409>
VStem: 185 107<771 801> 262 109<0 270 0 270> 340 107<771 801>
LayerCount: 2
Fore
SplineSet
239 733 m 0xf4
 209 733 185 756 185 786 c 0
 185 816 209 839 239 839 c 0
 269 839 292 816 292 786 c 0
 292 756 269 733 239 733 c 0xf4
394 733 m 0
 364 733 340 756 340 786 c 0
 340 816 364 839 394 839 c 0
 424 839 447 816 447 786 c 0
 447 756 424 733 394 733 c 0
371 270 m 1xe8
 371 0 l 1
 262 0 l 1
 262 270 l 1
 18 690 l 1
 143 690 l 1
 321 371 l 1
 493 690 l 1
 615 690 l 1
 371 270 l 1xe8
EndSplineSet
Position2: "'cpsp' Capital Spacing in Latin lookup 0 subtable" dx=5 dy=0 dh=10 dv=0
EndChar

StartChar: Zacute
Encoding: 377 377 112
Width: 605
GlyphClass: 2
Flags: MW
HStem: 0 88<179 581 179 581> 603 87<76 448 76 576> 736 102<340 343 277 440>
VStem: 48 533<0 84 84 84>
LayerCount: 2
Fore
SplineSet
343 736 m 1
 277 736 l 1
 340 838 l 1
 440 838 l 1
 343 736 l 1
581 88 m 1
 581 0 l 1
 48 0 l 1
 48 84 l 1
 448 603 l 1
 76 603 l 1
 76 690 l 1
 576 690 l 1
 576 604 l 1
 179 88 l 1
 581 88 l 1
EndSplineSet
Position2: "'cpsp' Capital Spacing in Latin lookup 0 subtable" dx=5 dy=0 dh=10 dv=0
EndChar

StartChar: zacute
Encoding: 378 378 227
Width: 478
GlyphClass: 2
Flags: MW
HStem: 0 79<148 449 148 449> 448 79<44 323 44 445 44 445> 578 114<203 372 203 372>
VStem: 24 425<0 76 76 76>
LayerCount: 2
Fore
SplineSet
269 578 m 1
 203 578 l 1
 272 692 l 1
 372 692 l 1
 269 578 l 1
449 79 m 1
 449 0 l 1
 24 0 l 1
 24 76 l 1
 323 448 l 1
 44 448 l 1
 44 527 l 1
 445 527 l 1
 445 448 l 1
 148 79 l 1
 449 79 l 1
EndSplineSet
EndChar

StartChar: Zdotaccent
Encoding: 379 379 114
Width: 605
GlyphClass: 2
Flags: MW
HStem: 0 88<179 581 179 581> 603 87<76 448 76 576> 734 113<298.5 331.5>
VStem: 257 116<774.5 807>
LayerCount: 2
Fore
SplineSet
315 734 m 0
 282 734 257 758 257 791 c 0
 257 823 282 847 315 847 c 0
 348 847 373 823 373 791 c 0
 373 758 348 734 315 734 c 0
581 88 m 1
 581 0 l 1
 48 0 l 1
 48 84 l 1
 448 603 l 1
 76 603 l 1
 76 690 l 1
 576 690 l 1
 576 604 l 1
 179 88 l 1
 581 88 l 1
EndSplineSet
Position2: "'cpsp' Capital Spacing in Latin lookup 0 subtable" dx=5 dy=0 dh=10 dv=0
EndChar

StartChar: zdotaccent
Encoding: 380 380 229
Width: 478
GlyphClass: 2
Flags: MW
HStem: 0 79<148 449 148 449> 448 79<44 323 44 445 44 445> 589 127<223.5 260.5>
VStem: 178 129<634.5 671>
LayerCount: 2
Fore
SplineSet
242 589 m 0
 205 589 178 616 178 653 c 0
 178 689 205 716 242 716 c 0
 279 716 307 689 307 653 c 0
 307 616 279 589 242 589 c 0
449 79 m 1
 449 0 l 1
 24 0 l 1
 24 76 l 1
 323 448 l 1
 44 448 l 1
 44 527 l 1
 445 527 l 1
 445 448 l 1
 148 79 l 1
 449 79 l 1
EndSplineSet
EndChar

StartChar: Zcaron
Encoding: 381 381 113
Width: 605
GlyphClass: 2
Flags: MW
HStem: 0 88<179 581 179 581> 603 87<76 448 76 576> 736 102<275 275 275 285 347 356>
VStem: 48 533<0 84 84 84>
LayerCount: 2
Fore
SplineSet
275 736 m 1
 209 838 l 1
 285 838 l 1
 316 777 l 1
 347 838 l 1
 422 838 l 1
 356 736 l 1
 275 736 l 1
581 88 m 1
 581 0 l 1
 48 0 l 1
 48 84 l 1
 448 603 l 1
 76 603 l 1
 76 690 l 1
 576 690 l 1
 576 604 l 1
 179 88 l 1
 581 88 l 1
EndSplineSet
Position2: "'cpsp' Capital Spacing in Latin lookup 0 subtable" dx=5 dy=0 dh=10 dv=0
EndChar

StartChar: zcaron
Encoding: 382 382 228
Width: 478
GlyphClass: 2
Flags: MW
HStem: 0 79<148 449 148 449> 448 79<44 323 44 445 44 445> 578 114<202 202 202 210 276 283>
VStem: 24 425<0 76 76 76>
LayerCount: 2
Fore
SplineSet
202 578 m 1
 136 692 l 1
 210 692 l 1
 243 626 l 1
 276 692 l 1
 349 692 l 1
 283 578 l 1
 202 578 l 1
449 79 m 1
 449 0 l 1
 24 0 l 1
 24 76 l 1
 323 448 l 1
 44 448 l 1
 44 527 l 1
 445 527 l 1
 445 448 l 1
 148 79 l 1
 449 79 l 1
EndSplineSet
EndChar

StartChar: uni021A
Encoding: 538 538 89
Width: 617
GlyphClass: 2
Flags: MW
HStem: -200 152<295 305 235 376> 0 21G<270 379 270 270> 603 87<29 270 29 620 379 620 379 379>
VStem: 270 109<0 603 0 603>
AnchorPoint: "Anchor-0" 324 0 basechar 0
LayerCount: 2
Fore
SplineSet
620 603 m 1
 379 603 l 1
 379 0 l 1
 270 0 l 1
 270 603 l 1
 29 603 l 1
 29 690 l 1
 620 690 l 1
 620 603 l 1
295 -48 m 1
 376 -48 l 1
 376 -59 l 1
 305 -200 l 1
 235 -200 l 1
 295 -48 l 1
EndSplineSet
Position2: "'cpsp' Capital Spacing in Latin lookup 0 subtable" dx=5 dy=0 dh=10 dv=0
EndChar

StartChar: circumflex
Encoding: 710 710 328
Width: 300
Flags: MW
HStem: 578 114<110 117 44 191 183 191 110 257 183 183> 643 49<150 150>
VStem: 44 213<578 578>
LayerCount: 2
Fore
SplineSet
183 578 m 1xa0
 150 643 l 1x60
 117 578 l 1
 44 578 l 1
 110 692 l 1
 191 692 l 1
 257 578 l 1
 183 578 l 1xa0
EndSplineSet
EndChar

StartChar: caron
Encoding: 711 711 326
Width: 300
Flags: MW
HStem: 578 114<110 118 184 191 110 110>
VStem: 44 213<692 692>
LayerCount: 2
Fore
SplineSet
257 692 m 1
 191 578 l 1
 110 578 l 1
 44 692 l 1
 118 692 l 1
 151 626 l 1
 184 692 l 1
 257 692 l 1
EndSplineSet
EndChar

StartChar: breve
Encoding: 728 728 325
Width: 300
Flags: MW
HStem: 567 62<135.5 164.5 135.5 185.5> 567 125<40 185.5>
VStem: 40 62<648.5 692> 198 62<648.5 692>
LayerCount: 2
Fore
SplineSet
198 692 m 1x70
 260 692 l 1
 260 605 221 567 150 567 c 0
 78 567 40 605 40 692 c 1
 102 692 l 1x70
 103 646 121 629 150 629 c 0xb0
 179 629 197 646 198 692 c 1x70
EndSplineSet
EndChar

StartChar: dotaccent
Encoding: 729 729 330
Width: 300
Flags: MW
HStem: 589 127<131.5 168.5>
VStem: 86 129<634.5 671>
LayerCount: 2
Fore
SplineSet
150 716 m 0
 187 716 215 689 215 653 c 0
 215 616 187 589 150 589 c 0
 113 589 86 616 86 653 c 0
 86 689 113 716 150 716 c 0
EndSplineSet
EndChar

StartChar: ring
Encoding: 730 730 335
Width: 300
Flags: MW
HStem: 566 43<138.5 161.5 138.5 178.5> 702 43<138.5 161.5>
VStem: 52 58<640.5 669.5 640.5 681.5> 190 58<640.5 669.5>
LayerCount: 2
Fore
SplineSet
150 745 m 0
 207 745 248 708 248 655 c 0
 248 603 207 566 150 566 c 0
 93 566 52 603 52 655 c 0
 52 708 93 745 150 745 c 0
150 702 m 0
 127 702 110 684 110 655 c 0
 110 626 127 609 150 609 c 0
 173 609 190 626 190 655 c 0
 190 684 173 702 150 702 c 0
EndSplineSet
EndChar

StartChar: ogonek
Encoding: 731 731 334
Width: 300
Flags: MW
HStem: -223 66<113 199> 0 21G<228 228>
VStem: 44 102<-125.5 -102>
LayerCount: 2
Fore
SplineSet
150 10 m 1
 228 0 l 1
 184 -7 146 -50 146 -107 c 0
 146 -144 163 -157 190 -157 c 0
 208 -157 225 -151 243 -137 c 1
 243 -192 l 1
 217 -212 183 -223 142 -223 c 0
 84 -223 44 -201 44 -138 c 0
 44 -66 95 -13 150 10 c 1
EndSplineSet
EndChar

StartChar: tilde
Encoding: 732 732 336
Width: 300
Flags: MW
HStem: 590 87<218 229> 594 86<71.5 82 30 102>
VStem: 30 52<594 602 594 626.5> 218 53<668.5 677>
LayerCount: 2
Fore
SplineSet
91 680 m 0x70
 113 680 129 677 158 666 c 0
 182 657 194 654 202 654 c 0
 213 654 218 660 218 677 c 1
 271 677 l 1
 271 611 249 590 209 590 c 0xb0
 188 590 172 594 142 604 c 0
 118 613 107 616 98 616 c 0
 88 616 82 610 82 594 c 1
 30 594 l 1
 30 659 52 680 91 680 c 0x70
EndSplineSet
EndChar

StartChar: hungarumlaut
Encoding: 733 733 332
Width: 300
Flags: MW
HStem: 578 114<40 208 40 208 179 179 179 208 108 245>
VStem: 40 307<578 692>
LayerCount: 2
Fore
SplineSet
106 578 m 1
 40 578 l 1
 108 692 l 1
 208 692 l 1
 106 578 l 1
245 578 m 1
 179 578 l 1
 247 692 l 1
 347 692 l 1
 245 578 l 1
EndSplineSet
EndChar

StartChar: uni0326
Encoding: 806 806 337
Width: 0
GlyphClass: 4
Flags: MW
HStem: -200 152<121 131 61 202>
VStem: 61 141
AnchorPoint: "Anchor-0" 155 0 mark 0
LayerCount: 2
Fore
SplineSet
202 -59 m 1
 131 -200 l 1
 61 -200 l 1
 121 -48 l 1
 202 -48 l 1
 202 -59 l 1
EndSplineSet
EndChar

StartChar: Wgrave
Encoding: 7808 7808 104
Width: 968
GlyphClass: 2
Flags: MW
HStem: 0 21G<204 350 204 204 633 778 633 633> 0 88<712 712 712 778 633 712> 588 92<495 495> 670 20G<26 147 147 147 852 966 966 966> 736 102<470 470 470 473 373 536>
VStem: 26 940<690 690>
LayerCount: 2
Fore
SplineSet
470 736 m 1x9c
 373 838 l 1
 473 838 l 1
 536 736 l 1
 470 736 l 1x9c
966 690 m 1
 778 0 l 1
 633 0 l 1
 495 588 l 1xac
 350 0 l 1
 204 0 l 1
 26 690 l 1
 147 690 l 1x9c
 279 91 l 1
 422 680 l 1
 573 680 l 1
 712 88 l 1x6c
 852 690 l 1
 966 690 l 1
EndSplineSet
Position2: "'cpsp' Capital Spacing in Latin lookup 0 subtable" dx=5 dy=0 dh=10 dv=0
EndChar

StartChar: Wacute
Encoding: 7810 7810 101
Width: 968
GlyphClass: 2
Flags: MW
HStem: 0 21G<204 350 204 204 633 778 633 633> 0 88<712 712 712 778 633 712> 588 92<495 495> 670 20G<26 147 147 147 852 966 966 966> 736 102<522 525 459 622>
VStem: 26 940<690 690>
LayerCount: 2
Fore
SplineSet
525 736 m 1x9c
 459 736 l 1
 522 838 l 1
 622 838 l 1
 525 736 l 1x9c
966 690 m 1
 778 0 l 1
 633 0 l 1
 495 588 l 1xac
 350 0 l 1
 204 0 l 1
 26 690 l 1
 147 690 l 1x9c
 279 91 l 1
 422 680 l 1
 573 680 l 1
 712 88 l 1x6c
 852 690 l 1
 966 690 l 1
EndSplineSet
Position2: "'cpsp' Capital Spacing in Latin lookup 0 subtable" dx=5 dy=0 dh=10 dv=0
EndChar

StartChar: wacute
Encoding: 7811 7811 216
Width: 806
GlyphClass: 2
Flags: MW
HStem: 0 21G<170 297 170 170 508 634 508 508> 0 97<577 577 577 634 508 577> 429 101<403 403> 510 20G<337 471 471 471> 511 20G<1 125 125 125 686 803 803 803> 578 114<365 534 365 534>
VStem: 1 802<531 531>
LayerCount: 2
Fore
SplineSet
431 578 m 1x8e
 365 578 l 1
 434 692 l 1
 534 692 l 1
 431 578 l 1x8e
803 531 m 1
 634 0 l 1
 508 0 l 1
 403 429 l 1xa6
 297 0 l 1
 170 0 l 1
 1 531 l 1
 125 531 l 1x8e
 234 98 l 1
 337 530 l 1
 471 530 l 1
 577 97 l 1x56
 686 531 l 1
 803 531 l 1
EndSplineSet
EndChar

StartChar: Wdieresis
Encoding: 7812 7812 103
Width: 968
GlyphClass: 2
Flags: MW
HStem: 0 21G<204 350 204 204 633 778 633 633> 0 88<712 712 712 778 633 712> 588 92<495 495> 670 20G<26 147 147 147 852 966 966 966> 733 106<405 435 560 590>
VStem: 366 107<771 801> 521 107<771 801>
LayerCount: 2
Fore
SplineSet
420 733 m 0x9e
 390 733 366 756 366 786 c 0
 366 816 390 839 420 839 c 0
 450 839 473 816 473 786 c 0
 473 756 450 733 420 733 c 0x9e
575 733 m 0
 545 733 521 756 521 786 c 0
 521 816 545 839 575 839 c 0
 605 839 628 816 628 786 c 0
 628 756 605 733 575 733 c 0
966 690 m 1
 778 0 l 1
 633 0 l 1
 495 588 l 1xae
 350 0 l 1
 204 0 l 1
 26 690 l 1
 147 690 l 1x9e
 279 91 l 1
 422 680 l 1
 573 680 l 1
 712 88 l 1x6e
 852 690 l 1
 966 690 l 1
EndSplineSet
Position2: "'cpsp' Capital Spacing in Latin lookup 0 subtable" dx=5 dy=0 dh=10 dv=0
EndChar

StartChar: wdieresis
Encoding: 7813 7813 218
Width: 806
GlyphClass: 2
Flags: MW
HStem: 0 21G<170 297 170 170 508 634 508 508> 0 97<577 577 577 634 508 577> 429 101<403 403> 510 20G<337 471 471 471> 511 20G<1 125 125 125 686 803 803 803> 580 105<309 339 469 499>
VStem: 271 107<617 647> 431 106<617 647>
LayerCount: 2
Fore
SplineSet
324 580 m 0x8f
 294 580 271 602 271 632 c 0
 271 662 294 685 324 685 c 0
 354 685 378 662 378 632 c 0
 378 602 354 580 324 580 c 0x8f
484 580 m 0
 454 580 431 602 431 632 c 0
 431 662 454 685 484 685 c 0
 514 685 537 662 537 632 c 0
 537 602 514 580 484 580 c 0
803 531 m 1
 634 0 l 1
 508 0 l 1
 403 429 l 1xa7
 297 0 l 1
 170 0 l 1
 1 531 l 1
 125 531 l 1x8f
 234 98 l 1
 337 530 l 1
 471 530 l 1
 577 97 l 1x57
 686 531 l 1
 803 531 l 1
EndSplineSet
EndChar

StartChar: Ygrave
Encoding: 7922 7922 110
Width: 602
GlyphClass: 2
Flags: MW
HStem: 0 21G<262 371 262 262> 670 20G<18 143 143 143 493 615 615 615> 736 102<289 289 289 292 192 355>
VStem: 262 109<0 270 0 270>
LayerCount: 2
Fore
SplineSet
289 736 m 1
 192 838 l 1
 292 838 l 1
 355 736 l 1
 289 736 l 1
371 270 m 1
 371 0 l 1
 262 0 l 1
 262 270 l 1
 18 690 l 1
 143 690 l 1
 321 371 l 1
 493 690 l 1
 615 690 l 1
 371 270 l 1
EndSplineSet
Position2: "'cpsp' Capital Spacing in Latin lookup 0 subtable" dx=5 dy=0 dh=10 dv=0
EndChar

StartChar: ygrave
Encoding: 7923 7923 225
Width: 537
GlyphClass: 2
Flags: MW
HStem: -210 83<105 124 93.5 164> 511 20G<1 124 124 124 415 534 534 534> 578 114<141 243 141 309>
VStem: 1 533<531 531>
LayerCount: 2
Fore
SplineSet
243 578 m 1
 141 692 l 1
 241 692 l 1
 309 578 l 1
 243 578 l 1
534 531 m 1
 318 -34 l 2
 269 -160 212 -210 116 -210 c 0
 94 -210 80 -210 64 -207 c 1
 64 -126 l 1
 77 -127 88 -127 99 -127 c 0
 149 -127 183 -106 207 -44 c 1
 215 -25 l 1
 1 531 l 1
 124 531 l 1
 270 82 l 1
 415 531 l 1
 534 531 l 1
EndSplineSet
EndChar

StartChar: endash
Encoding: 8211 8211 268
Width: 500
Flags: MW
HStem: 259 66<75 425 75 425>
VStem: 75 350<259 325 259 325>
LayerCount: 2
Fore
SplineSet
425 259 m 1
 75 259 l 1
 75 325 l 1
 425 325 l 1
 425 259 l 1
EndSplineSet
EndChar

StartChar: emdash
Encoding: 8212 8212 267
Width: 1000
Flags: MW
HStem: 259 66<75 925 75 925>
VStem: 75 850<259 325 259 325>
LayerCount: 2
Fore
SplineSet
925 259 m 1
 75 259 l 1
 75 325 l 1
 925 325 l 1
 925 259 l 1
EndSplineSet
EndChar

StartChar: quoteleft
Encoding: 8216 8216 277
Width: 266
Flags: MW
HStem: 474 261<153 167 55 245>
VStem: 55 190
LayerCount: 2
Fore
SplineSet
55 484 m 1
 153 735 l 1
 245 735 l 1
 167 474 l 1
 55 474 l 1
 55 484 l 1
EndSplineSet
EndChar

StartChar: quoteright
Encoding: 8217 8217 278
Width: 266
Flags: MW
HStem: 474 261<99 113 21 211> 715 20G<99 211 211 211>
VStem: 21 190
LayerCount: 2
Fore
SplineSet
211 725 m 1x60
 113 474 l 1
 21 474 l 1xa0
 99 735 l 1
 211 735 l 1
 211 725 l 1x60
EndSplineSet
EndChar

StartChar: quotesinglbase
Encoding: 8218 8218 279
Width: 232
Flags: MW
HStem: -121 239<49 66 -30 160>
VStem: -30 190
LayerCount: 2
Fore
SplineSet
160 108 m 1
 66 -121 l 1
 -30 -121 l 1
 49 118 l 1
 160 118 l 1
 160 108 l 1
EndSplineSet
EndChar

StartChar: quotedblleft
Encoding: 8220 8220 275
Width: 453
Flags: MW
HStem: 474 262<153 167 55 245 242 242 242 245 340 354>
VStem: 55 377<474 736 484 736>
LayerCount: 2
Fore
SplineSet
55 484 m 1
 153 736 l 1
 245 736 l 1
 167 474 l 1
 55 474 l 1
 55 484 l 1
242 484 m 1
 340 736 l 1
 432 736 l 1
 354 474 l 1
 242 474 l 1
 242 484 l 1
EndSplineSet
EndChar

StartChar: quotedblright
Encoding: 8221 8221 276
Width: 453
Flags: MW
HStem: 474 261<99 113 21 211 208 208 208 211 287 301>
VStem: 21 377<474 725>
LayerCount: 2
Fore
SplineSet
211 725 m 1
 113 474 l 1
 21 474 l 1
 99 735 l 1
 211 735 l 1
 211 725 l 1
398 725 m 1
 301 474 l 1
 208 474 l 1
 287 735 l 1
 398 735 l 1
 398 725 l 1
EndSplineSet
EndChar

StartChar: quotedblbase
Encoding: 8222 8222 274
Width: 419
Flags: MW
HStem: -121 239<49 66 -30 160 158 158 158 160 236 253>
VStem: -30 378<-121 108>
LayerCount: 2
Fore
SplineSet
160 108 m 1
 66 -121 l 1
 -30 -121 l 1
 49 118 l 1
 160 118 l 1
 160 108 l 1
348 108 m 1
 253 -121 l 1
 158 -121 l 1
 236 118 l 1
 348 118 l 1
 348 108 l 1
EndSplineSet
EndChar

StartChar: dagger
Encoding: 8224 8224 317
Width: 555
Flags: MW
HStem: 368 90 670 20G<219 336 336 336>
VStem: 225 105
LayerCount: 2
Fore
SplineSet
504 365 m 1
 324 372 l 1
 336 -160 l 1
 219 -160 l 1
 231 371 l 1
 51 365 l 1
 51 461 l 1
 230 455 l 1
 219 690 l 1
 336 690 l 1
 325 455 l 1
 504 461 l 1
 504 365 l 1
EndSplineSet
EndChar

StartChar: daggerdbl
Encoding: 8225 8225 318
Width: 555
Flags: MW
HStem: 72 90 368 90 670 20G<219 336 336 336>
VStem: 224.5 106 231 93<159 371 371 371>
LayerCount: 2
Fore
SplineSet
324 372 m 1xe8
 324 158 l 1xe8
 504 165 l 1
 504 69 l 1
 325 75 l 1
 336 -160 l 1
 219 -160 l 1
 230 75 l 1xf0
 51 69 l 1
 51 165 l 1
 231 159 l 1
 231 371 l 1xe8
 51 365 l 1
 51 461 l 1
 230 455 l 1
 219 690 l 1
 336 690 l 1
 325 455 l 1xf0
 504 461 l 1
 504 365 l 1
 324 372 l 1xe8
EndSplineSet
EndChar

StartChar: bullet
Encoding: 8226 8226 245
Width: 371
Flags: MW
HStem: 195 221<154 217.5>
VStem: 75 221<273 337>
LayerCount: 2
Fore
SplineSet
186 416 m 0
 249 416 296 369 296 305 c 0
 296 241 249 195 186 195 c 0
 122 195 75 241 75 305 c 0
 75 369 122 416 186 416 c 0
EndSplineSet
EndChar

StartChar: ellipsis
Encoding: 8230 8230 248
Width: 672
Flags: MW
HStem: -14 146<89.5 132 309.5 352 529.5 572>
VStem: 38 146<38 80.5> 258 146<38 80.5> 478 146<38 80.5>
LayerCount: 2
Fore
SplineSet
111 132 m 0
 153 132 184 102 184 59 c 0
 184 17 153 -14 111 -14 c 0
 68 -14 38 17 38 59 c 0
 38 102 68 132 111 132 c 0
331 132 m 0
 373 132 404 102 404 59 c 0
 404 17 373 -14 331 -14 c 0
 288 -14 258 17 258 59 c 0
 258 102 288 132 331 132 c 0
551 132 m 0
 593 132 624 102 624 59 c 0
 624 17 593 -14 551 -14 c 0
 508 -14 478 17 478 59 c 0
 478 102 508 132 551 132 c 0
EndSplineSet
EndChar

StartChar: perthousand
Encoding: 8240 8240 304
Width: 1091
Flags: MW
HStem: -14 66<542.5 580 542.5 607.5 882.5 920> 0 21G<105 201 105 105> 243 66<542.5 580 882.5 920> 378 66<171 208.5 171 236> 635 66<171 208.5> 670 20G<553 649 649 649>
VStem: 39 90<509 571 509 590> 251 90<509 571> 410 90<117 179 117 198> 622 90<117 179> 750 90<117 179 117 198> 962 90<117 179>
LayerCount: 2
Fore
SplineSet
341 540 m 0xbbf0
 341 440 282 378 190 378 c 0
 97 378 39 440 39 540 c 0
 39 640 97 701 190 701 c 0
 282 701 341 640 341 540 c 0xbbf0
649 690 m 1x4440
 201 0 l 1
 105 0 l 1
 553 690 l 1
 649 690 l 1x4440
129 540 m 0xbbf0
 129 478 152 444 190 444 c 0
 227 444 251 478 251 540 c 0
 251 602 227 635 190 635 c 0
 152 635 129 602 129 540 c 0xbbf0
561 309 m 0
 654 309 712 248 712 148 c 0
 712 48 654 -14 561 -14 c 0
 469 -14 410 48 410 148 c 0
 410 248 469 309 561 309 c 0
901 309 m 0
 994 309 1052 248 1052 148 c 0
 1052 48 994 -14 901 -14 c 0
 809 -14 750 48 750 148 c 0
 750 248 809 309 901 309 c 0
561 52 m 0
 599 52 622 86 622 148 c 0
 622 210 599 243 561 243 c 0
 524 243 500 210 500 148 c 0
 500 86 524 52 561 52 c 0
901 52 m 0
 939 52 962 86 962 148 c 0
 962 210 939 243 901 243 c 0
 864 243 840 210 840 148 c 0
 840 86 864 52 901 52 c 0
EndSplineSet
EndChar

StartChar: guilsinglleft
Encoding: 8249 8249 272
Width: 405
Flags: MW
HStem: 82 332<264 351 264 351>
VStem: 127 224<82 248>
LayerCount: 2
Fore
SplineSet
351 414 m 1
 214 248 l 1
 351 82 l 1
 264 82 l 1
 127 248 l 1
 264 414 l 1
 351 414 l 1
EndSplineSet
EndChar

StartChar: guilsinglright
Encoding: 8250 8250 273
Width: 396
Flags: MW
HStem: 82 332<54 141 54 141>
VStem: 54 224<82 248 248 414>
LayerCount: 2
Fore
SplineSet
278 248 m 1
 141 82 l 1
 54 82 l 1
 191 248 l 1
 54 414 l 1
 141 414 l 1
 278 248 l 1
EndSplineSet
EndChar

StartChar: fraction
Encoding: 8260 8260 242
Width: 269
Flags: MW
HStem: 0 21G<-138 -42 -138 -138> 670 20G<310 406 406 406>
VStem: -138 544
LayerCount: 2
Fore
SplineSet
-42 0 m 1
 -138 0 l 1
 310 690 l 1
 406 690 l 1
 -42 0 l 1
EndSplineSet
EndChar

StartChar: Euro
Encoding: 8364 8364 284
Width: 601
Flags: MW
HStem: -14 84<357 423.5> 251 66<44 100 44 105 32 100 225 472 225 225> 370 66<66 101 53 107 225 492> 620 84<361 431.5>
VStem: 100 119<317 342 342 346 346 347>
LayerCount: 2
Fore
SplineSet
472 251 m 1
 225 251 l 1
 244 120 308 70 406 70 c 0
 463 70 509 82 553 110 c 1
 553 24 l 1
 504 -4 456 -14 391 -14 c 0
 233 -14 128 54 105 251 c 1
 32 251 l 1
 44 317 l 1
 100 317 l 1
 100 342 l 2
 100 352 100 361 101 370 c 1
 53 370 l 1
 66 436 l 1
 107 436 l 1
 136 620 252 704 406 704 c 0
 485 704 543 682 579 642 c 1
 532 572 l 1
 499 605 456 620 407 620 c 0
 315 620 246 569 225 436 c 1
 506 436 l 1
 492 370 l 1
 219 370 l 1
 219 346 l 2
 219 336 219 326 219 317 c 1
 483 317 l 1
 472 251 l 1
EndSplineSet
EndChar

StartChar: trademark
Encoding: 8482 8482 323
Width: 539
Flags: MW
HStem: 456 203<94 323 94 323 244 323 244 297 428 428 428 481> 460 48<364 364 364 390 335 364> 618 42<21 94 21 220 147 220 147 147>
VStem: 94 53<456 618 456 618> 244 52.5 429 52
LayerCount: 2
Fore
SplineSet
220 660 m 1x3c
 220 618 l 1
 147 618 l 1
 147 456 l 1
 94 456 l 1
 94 618 l 1
 21 618 l 1
 21 660 l 1
 220 660 l 1x3c
481 659 m 1x9c
 481 456 l 1
 428 456 l 1
 430 598 l 1x9c
 390 460 l 1
 335 460 l 1
 296 597 l 1
 297 456 l 1
 244 456 l 1
 244 659 l 1
 323 659 l 1
 364 508 l 1x7c
 404 659 l 1
 481 659 l 1x9c
EndSplineSet
EndChar

StartChar: partialdiff
Encoding: 8706 8706 302
Width: 601
Flags: MW
HStem: -14 83<255.5 342 255.5 363> 415 83<255 324 211 331.5> 676 82<233.5 322>
VStem: 44 117<184 294.5 184 312> 436 115
LayerCount: 2
Fore
SplineSet
274 758 m 0
 482 758 551 571 551 352 c 0
 551 88 441 -14 285 -14 c 0
 155 -14 44 70 44 239 c 0
 44 385 131 498 291 498 c 0
 357 498 405 473 431 435 c 1
 421 570 380 676 264 676 c 0
 202 676 165 660 121 625 c 1
 79 693 l 1
 138 739 193 758 274 758 c 0
293 69 m 0
 391 69 433 165 436 334 c 1
 407 392 361 415 302 415 c 0
 208 415 161 347 161 242 c 0
 161 126 218 69 293 69 c 0
EndSplineSet
EndChar

StartChar: emptyset
Encoding: 8709 8709 290
Width: 838
Flags: MW
HStem: -39 68<380.5 507 380.5 527> 681 68<331 458.5>
VStem: 30 74<316 445.5 316 464.5> 734 74<264 392.5>
LayerCount: 2
Fore
SplineSet
802 685 m 1
 721 604 l 1
 776 536 808 450 808 355 c 0
 808 136 635 -39 419 -39 c 0
 324 -39 237 -5 170 52 c 1
 85 -33 l 1
 37 16 l 1
 121 100 l 1
 64 169 30 258 30 355 c 0
 30 574 203 749 419 749 c 0
 517 749 606 713 674 653 c 1
 754 733 l 1
 802 685 l 1
104 355 m 0
 104 277 129 207 172 151 c 1
 624 603 l 1
 569 652 498 681 419 681 c 0
 243 681 104 536 104 355 c 0
419 29 m 0
 595 29 734 173 734 355 c 0
 734 430 710 498 670 553 c 1
 219 102 l 1
 273 56 342 29 419 29 c 0
EndSplineSet
EndChar

StartChar: product
Encoding: 8719 8719 307
Width: 601
Flags: MW
HStem: 603 87<33 93 33 568 202 399 202 202 508 568 508 508>
VStem: 93 109<-110 603 -110 603> 399 109<-110 603 -110 603>
LayerCount: 2
Fore
SplineSet
568 603 m 1
 508 603 l 1
 508 -110 l 1
 399 -110 l 1
 399 603 l 1
 202 603 l 1
 202 -110 l 1
 93 -110 l 1
 93 603 l 1
 33 603 l 1
 33 690 l 1
 568 690 l 1
 568 603 l 1
EndSplineSet
EndChar

StartChar: summation
Encoding: 8721 8721 309
Width: 601
Flags: MW
HStem: -110 87<178 555 178 555> 603 87<209 549 209 209>
VStem: 48 507<-110 -31 -31 -31>
LayerCount: 2
Fore
SplineSet
555 -23 m 1
 555 -110 l 1
 48 -110 l 1
 48 -31 l 1
 316 301 l 1
 78 611 l 1
 78 690 l 1
 549 690 l 1
 549 603 l 1
 209 603 l 1
 443 300 l 1
 178 -23 l 1
 555 -23 l 1
EndSplineSet
EndChar

StartChar: minus
Encoding: 8722 8722 299
Width: 601
Flags: MW
HStem: 286 66<87 514 87 514>
VStem: 87 427<286 352 286 352>
LayerCount: 2
Fore
SplineSet
514 286 m 1
 87 286 l 1
 87 352 l 1
 514 352 l 1
 514 286 l 1
EndSplineSet
EndChar

StartChar: radical
Encoding: 8730 8730 308
Width: 601
Flags: MW
HStem: -160 86<304 304 304 349 261 304> 246 64<64 134 64 189>
VStem: 64 502<246 780 310 780>
LayerCount: 2
Fore
SplineSet
566 780 m 1
 349 -160 l 1
 261 -160 l 1
 134 246 l 1
 64 246 l 1
 64 310 l 1
 189 310 l 1
 304 -74 l 1
 493 780 l 1
 566 780 l 1
EndSplineSet
EndChar

StartChar: infinity
Encoding: 8734 8734 294
Width: 995
Flags: MW
HStem: -14 80<240.5 315 240.5 327 680 755> 464 80<240.5 315 680 755>
VStem: 29 116<206 324 206 343> 850 117<206 324>
LayerCount: 2
Fore
SplineSet
720 544 m 0
 884 544 967 421 967 265 c 0
 967 110 884 -14 718 -14 c 0
 620 -14 543 31 494 134 c 1
 444 31 379 -14 275 -14 c 0
 111 -14 29 110 29 265 c 0
 29 421 111 544 278 544 c 0
 375 544 453 499 502 396 c 1
 552 499 616 544 720 544 c 0
280 66 m 0
 350 66 412 121 429 265 c 1
 403 410 350 464 280 464 c 0
 201 464 145 383 145 265 c 0
 145 147 201 66 280 66 c 0
715 66 m 0
 795 66 850 147 850 265 c 0
 850 383 795 464 715 464 c 0
 645 464 584 409 567 265 c 1
 593 121 645 66 715 66 c 0
EndSplineSet
EndChar

StartChar: integral
Encoding: 8747 8747 295
Width: 600
Flags: MW
HStem: -160 66<234.5 266 233 292.5> 688 66<334 365.5 307.5 367>
VStem: 207 73<548.5 614 548.5 629> 320 73<-19.5 46.5>
LayerCount: 2
Fore
SplineSet
349 754 m 0
 382 754 405 750 431 732 c 1
 416 669 l 1
 395 684 379 688 355 688 c 0
 313 688 280 651 280 577 c 0
 280 520 286 471 336 304 c 0
 379 159 393 89 393 23 c 0
 393 -92 334 -160 251 -160 c 0
 218 -160 195 -156 169 -138 c 1
 184 -75 l 1
 205 -90 221 -94 245 -94 c 0
 287 -94 320 -57 320 18 c 0
 320 75 314 123 264 290 c 0
 221 435 207 505 207 572 c 0
 207 686 266 754 349 754 c 0
EndSplineSet
EndChar

StartChar: approxequal
Encoding: 8776 8776 287
Width: 601
Flags: MW
HStem: 135 72<394 423.5 394 431> 211 72<176.5 206> 305 72<394 423.5 394 431> 381 72<176.5 206>
VStem: 70 460<206 214 214 376>
LayerCount: 2
Fore
SplineSet
195 453 m 0
 235 453 261 440 313 412 c 0
 356 389 380 377 408 377 c 0
 439 377 461 392 483 425 c 1
 530 384 l 1
 495 329 458 305 404 305 c 0xa8
 364 305 339 317 286 346 c 0
 244 368 220 381 192 381 c 0
 161 381 139 366 117 332 c 1
 70 376 l 1
 105 431 142 453 195 453 c 0
195 283 m 0x68
 235 283 261 270 313 242 c 0
 356 219 380 207 408 207 c 0
 439 207 461 222 483 255 c 1
 530 214 l 1
 495 159 458 135 404 135 c 0xa8
 364 135 339 147 286 176 c 0
 244 198 220 211 192 211 c 0
 161 211 139 196 117 162 c 1
 70 206 l 1
 105 261 142 283 195 283 c 0x68
EndSplineSet
EndChar

StartChar: notequal
Encoding: 8800 8800 301
Width: 601
Flags: MW
HStem: 184 64<82 189 82 225 301 519 82 265> 384 64<82 300 82 336 412 519 82 376> 384 157<82 464 388 464 388 519 376 464>
VStem: 82 437<184 248 184 248 384 448 184 448>
LayerCount: 2
Fore
SplineSet
376 384 m 1xd0
 301 248 l 1
 519 248 l 1
 519 184 l 1
 265 184 l 1
 213 91 l 1
 137 91 l 1
 189 184 l 1
 82 184 l 1
 82 248 l 1
 225 248 l 1
 300 384 l 1
 82 384 l 1
 82 448 l 1
 336 448 l 1xd0
 388 541 l 1
 464 541 l 1xb0
 412 448 l 1
 519 448 l 1
 519 384 l 1
 376 384 l 1xd0
EndSplineSet
EndChar

StartChar: lessequal
Encoding: 8804 8804 297
Width: 601
Flags: MW
HStem: 0 66<98 523 98 523>
VStem: 98 72<310 310 310 354 310 354>
LayerCount: 2
Fore
SplineSet
523 436 m 1
 170 310 l 1
 523 186 l 1
 523 107 l 1
 98 269 l 1
 98 354 l 1
 523 515 l 1
 523 436 l 1
98 66 m 1
 523 66 l 1
 523 0 l 1
 98 0 l 1
 98 66 l 1
EndSplineSet
EndChar

StartChar: greaterequal
Encoding: 8805 8805 293
Width: 601
Flags: MW
HStem: 0 66<78 501 78 501>
VStem: 429 72<312 312>
LayerCount: 2
Fore
SplineSet
501 354 m 1
 501 269 l 1
 78 107 l 1
 78 186 l 1
 429 312 l 1
 78 436 l 1
 78 515 l 1
 501 354 l 1
78 66 m 1
 501 66 l 1
 501 0 l 1
 78 0 l 1
 78 66 l 1
EndSplineSet
EndChar

StartChar: lozenge
Encoding: 9674 9674 310
Width: 523
Flags: MW
HStem: 0 21G<218 305 218 218> 0 72<262 262 262 305 218 262> 618 72<262 262> 670 20G<218 305 305 305>
VStem: 53 417<345 345>
LayerCount: 2
Fore
SplineSet
470 345 m 1x98
 305 0 l 1
 218 0 l 1
 53 345 l 1
 218 690 l 1
 305 690 l 1
 470 345 l 1x98
387 345 m 1
 262 618 l 1
 136 345 l 1
 262 72 l 1x68
 387 345 l 1
EndSplineSet
EndChar

StartChar: fi
Encoding: 64257 64257 230
Width: 558
GlyphClass: 3
Flags: MW
HStem: 0 21G<78 187 78 78 377 486 377 377> 450 77<21 78 21 78 187 377> 668.25 79.75 668.25 85.75
VStem: 78 109<0 450 0 450 527 539 539 545 0 548.5> 377 109<0 450 450 450>
LayerCount: 2
Fore
SplineSet
486 527 m 1xec
 486 0 l 1
 377 0 l 1
 377 450 l 1
 187 450 l 1
 187 0 l 1
 78 0 l 1
 78 450 l 1
 21 450 l 1
 21 527 l 1
 78 527 l 1
 78 539 l 2
 78 558 78 583 80 601 c 0
 90 699 155 754 308 754 c 0xdc
 335 754 356 752 377 748 c 1
 377 666 l 1
 243 676 198 654 190 595 c 0
 188 581 187 559 187 545 c 2
 187 527 l 1
 486 527 l 1xec
EndSplineSet
Ligature2: "'liga' Standard Ligatures in Latin lookup 4 subtable" f i
EndChar

StartChar: fl
Encoding: 64258 64258 231
Width: 551
GlyphClass: 3
Flags: MW
HStem: -6 80<426.5 529> 0 21G<68 177 68 68> 450 77<21 68 21 68 177 286> 674 80<253 300.5>
VStem: 68 109<0 450 0 450 527 539 539 545 0 548.5> 355 109<159 162 162 667 667 667>
LayerCount: 2
Fore
SplineSet
465 112 m 0xbc
 468 79 484 69 529 74 c 1
 529 -1 l 1
 505 -4 479 -6 454 -6 c 0
 399 -6 359 15 356 83 c 0xbc
 355 103 355 127 355 159 c 2
 355 667 l 1
 335 672 313 674 288 674 c 0
 218 674 186 642 180 595 c 0
 178 581 177 559 177 545 c 2
 177 527 l 1
 286 527 l 1
 286 450 l 1
 177 450 l 1
 177 0 l 1
 68 0 l 1x7c
 68 450 l 1
 21 450 l 1
 21 527 l 1
 68 527 l 1
 68 539 l 2
 68 558 68 581 70 599 c 0
 80 696 148 754 291 754 c 0
 363 754 420 747 464 732 c 1
 464 162 l 2
 464 144 464 128 465 112 c 0xbc
EndSplineSet
Ligature2: "'liga' Standard Ligatures in Latin lookup 4 subtable" f l
EndChar
